<?xml version="1.0" encoding="UTF-8" standalone="no"?>
<!DOCTYPE svg PUBLIC "-//W3C//DTD SVG 1.1//EN"
 "http://www.w3.org/Graphics/SVG/1.1/DTD/svg11.dtd">
<!-- Generated by graphviz version 2.47.0 (20210316.0004)
 -->
<!-- Title: dependencies Pages: 1 -->
<svg width="933pt" height="284pt"
 viewBox="0.00 0.00 933.00 284.00" xmlns="http://www.w3.org/2000/svg" xmlns:xlink="http://www.w3.org/1999/xlink">
<g id="graph0" class="graph" transform="scale(1 1) rotate(0) translate(4 280)">
<title>dependencies</title>
<polygon fill="white" stroke="transparent" points="-4,4 -4,-280 929,-280 929,4 -4,4"/>
<text text-anchor="start" x="441.51" y="-42.4" font-family="Times-12" font-weight="bold" font-size="14.00">Legend</text>
<polygon fill="#ffffb3" stroke="transparent" points="228.5,-10 228.5,-30 248.5,-30 248.5,-10 228.5,-10"/>
<text text-anchor="start" x="252.13" y="-15.4" font-family="Times-12" font-size="14.00"> &#160;Declarations</text>
<polygon fill="#8dd3c7" stroke="transparent" points="341.5,-10 341.5,-30 361.5,-30 361.5,-10 341.5,-10"/>
<text text-anchor="start" x="365.23" y="-15.4" font-family="Times-12" font-size="14.00"> &#160;Module</text>
<polygon fill="#80b1d3" stroke="transparent" points="427.5,-10 427.5,-30 447.5,-30 447.5,-10 427.5,-10"/>
<text text-anchor="start" x="451.28" y="-15.4" font-family="Times-12" font-size="14.00"> &#160;Bootstrap</text>
<polygon fill="#fdb462" stroke="transparent" points="524.5,-10 524.5,-30 544.5,-30 544.5,-10 524.5,-10"/>
<text text-anchor="start" x="548.17" y="-15.4" font-family="Times-12" font-size="14.00"> &#160;Providers</text>
<polygon fill="#fb8072" stroke="transparent" points="620.5,-10 620.5,-30 640.5,-30 640.5,-10 620.5,-10"/>
<text text-anchor="start" x="644.23" y="-15.4" font-family="Times-12" font-size="14.00"> &#160;Exports</text>
<g id="clust1" class="cluster">
<title>cluster_FacilityRoleModule</title>
<polygon fill="none" stroke="black" stroke-dasharray="1,5" points="8,-70 8,-268 917,-268 917,-70 8,-70"/>
</g>
<g id="clust3" class="cluster">
<title>cluster_FacilityRoleModule_imports</title>
<polygon fill="none" stroke="black" points="216,-78 216,-130 909,-130 909,-78 216,-78"/>
</g>
<g id="clust6" class="cluster">
<title>cluster_FacilityRoleModule_providers</title>
<polygon fill="none" stroke="black" points="16,-78 16,-130 208,-130 208,-78 16,-78"/>
</g>
<g id="clust4" class="cluster">
<title>cluster_FacilityRoleModule_exports</title>
<polygon fill="none" stroke="black" points="444,-208 444,-260 590,-260 590,-208 444,-208"/>
</g>
<!-- AuthModule -->
<g id="node1" class="node">
<title>AuthModule</title>
<polygon fill="#8dd3c7" stroke="black" points="900.55,-122 897.55,-126 876.55,-126 873.55,-122 813.45,-122 813.45,-86 900.55,-86 900.55,-122"/>
<text text-anchor="middle" x="857" y="-99.8" font-family="Times,serif" font-size="14.00">AuthModule</text>
</g>
<!-- FacilityRoleModule -->
<g id="node6" class="node">
<title>FacilityRoleModule</title>
<polygon fill="#8dd3c7" stroke="black" points="581.27,-187 578.27,-191 557.27,-191 554.27,-187 452.73,-187 452.73,-151 581.27,-151 581.27,-187"/>
<text text-anchor="middle" x="517" y="-164.8" font-family="Times,serif" font-size="14.00">FacilityRoleModule</text>
</g>
<!-- AuthModule&#45;&gt;FacilityRoleModule -->
<g id="edge1" class="edge">
<title>AuthModule&#45;&gt;FacilityRoleModule</title>
<path fill="none" stroke="black" d="M857,-122.28C857,-143.32 857,-175 857,-175 857,-175 591.35,-175 591.35,-175"/>
<polygon fill="black" stroke="black" points="591.35,-171.5 581.35,-175 591.35,-178.5 591.35,-171.5"/>
</g>
<!-- CommonModule -->
<g id="node2" class="node">
<title>CommonModule</title>
<polygon fill="#8dd3c7" stroke="black" points="794.67,-122 791.67,-126 770.67,-126 767.67,-122 683.33,-122 683.33,-86 794.67,-86 794.67,-122"/>
<text text-anchor="middle" x="739" y="-99.8" font-family="Times,serif" font-size="14.00">CommonModule</text>
</g>
<!-- CommonModule&#45;&gt;FacilityRoleModule -->
<g id="edge2" class="edge">
<title>CommonModule&#45;&gt;FacilityRoleModule</title>
<path fill="none" stroke="black" d="M739,-122.02C739,-139.37 739,-163 739,-163 739,-163 591.51,-163 591.51,-163"/>
<polygon fill="black" stroke="black" points="591.51,-159.5 581.51,-163 591.51,-166.5 591.51,-159.5"/>
</g>
<!-- FacilityGroupModule -->
<g id="node3" class="node">
<title>FacilityGroupModule</title>
<polygon fill="#8dd3c7" stroke="black" points="665.09,-122 662.09,-126 641.09,-126 638.09,-122 526.91,-122 526.91,-86 665.09,-86 665.09,-122"/>
<text text-anchor="middle" x="596" y="-99.8" font-family="Times,serif" font-size="14.00">FacilityGroupModule</text>
</g>
<!-- FacilityGroupModule&#45;&gt;FacilityRoleModule -->
<g id="edge3" class="edge">
<title>FacilityGroupModule&#45;&gt;FacilityRoleModule</title>
<path fill="none" stroke="black" d="M554.17,-122.11C554.17,-122.11 554.17,-140.99 554.17,-140.99"/>
<polygon fill="black" stroke="black" points="550.67,-140.99 554.17,-150.99 557.67,-140.99 550.67,-140.99"/>
</g>
<!-- HealthFacilityModule -->
<g id="node4" class="node">
<title>HealthFacilityModule</title>
<polygon fill="#8dd3c7" stroke="black" points="508.64,-122 505.64,-126 484.64,-126 481.64,-122 369.36,-122 369.36,-86 508.64,-86 508.64,-122"/>
<text text-anchor="middle" x="439" y="-99.8" font-family="Times,serif" font-size="14.00">HealthFacilityModule</text>
</g>
<!-- HealthFacilityModule&#45;&gt;FacilityRoleModule -->
<g id="edge4" class="edge">
<title>HealthFacilityModule&#45;&gt;FacilityRoleModule</title>
<path fill="none" stroke="black" d="M480.72,-122.11C480.72,-122.11 480.72,-140.99 480.72,-140.99"/>
<polygon fill="black" stroke="black" points="477.22,-140.99 480.72,-150.99 484.22,-140.99 477.22,-140.99"/>
</g>
<!-- PermissionsModule -->
<g id="node5" class="node">
<title>PermissionsModule</title>
<polygon fill="#8dd3c7" stroke="black" points="351.71,-122 348.71,-126 327.71,-126 324.71,-122 224.29,-122 224.29,-86 351.71,-86 351.71,-122"/>
<text text-anchor="middle" x="288" y="-99.8" font-family="Times,serif" font-size="14.00">PermissionsModule</text>
</g>
<!-- PermissionsModule&#45;&gt;FacilityRoleModule -->
<g id="edge5" class="edge">
<title>PermissionsModule&#45;&gt;FacilityRoleModule</title>
<path fill="none" stroke="black" d="M288,-122.02C288,-139.37 288,-163 288,-163 288,-163 442.6,-163 442.6,-163"/>
<polygon fill="black" stroke="black" points="442.6,-166.5 452.6,-163 442.6,-159.5 442.6,-166.5"/>
</g>
<!-- FacilityRoleService  -->
<g id="node7" class="node">
<title>FacilityRoleService </title>
<polygon fill="#fb8072" stroke="black" points="582.19,-252 451.81,-252 451.81,-216 582.19,-216 582.19,-252"/>
<text text-anchor="middle" x="517" y="-229.8" font-family="Times,serif" font-size="14.00">FacilityRoleService </text>
</g>
<!-- FacilityRoleModule&#45;&gt;FacilityRoleService  -->
<g id="edge6" class="edge">
<title>FacilityRoleModule&#45;&gt;FacilityRoleService </title>
<path fill="none" stroke="black" stroke-dasharray="5,2" d="M517,-187.11C517,-187.11 517,-205.99 517,-205.99"/>
<polygon fill="black" stroke="black" points="513.5,-205.99 517,-215.99 520.5,-205.99 513.5,-205.99"/>
</g>
<!-- FacilityRoleService -->
<g id="node8" class="node">
<title>FacilityRoleService</title>
<ellipse fill="#fdb462" stroke="black" cx="112" cy="-104" rx="87.97" ry="18"/>
<text text-anchor="middle" x="112" y="-99.8" font-family="Times,serif" font-size="14.00">FacilityRoleService</text>
</g>
<!-- FacilityRoleService&#45;&gt;FacilityRoleModule -->
<g id="edge7" class="edge">
<title>FacilityRoleService&#45;&gt;FacilityRoleModule</title>
<path fill="none" stroke="black" d="M112,-122.28C112,-143.32 112,-175 112,-175 112,-175 442.38,-175 442.38,-175"/>
<polygon fill="black" stroke="black" points="442.38,-178.5 452.38,-175 442.38,-171.5 442.38,-178.5"/>
</g>
</g>
</svg>
