<?xml version="1.0" encoding="UTF-8" standalone="no"?>
<!DOCTYPE svg PUBLIC "-//W3C//DTD SVG 1.1//EN"
 "http://www.w3.org/Graphics/SVG/1.1/DTD/svg11.dtd">
<!-- Generated by graphviz version 2.47.0 (20210316.0004)
 -->
<!-- Title: dependencies Pages: 1 -->
<svg width="1150pt" height="284pt"
 viewBox="0.00 0.00 1150.00 284.00" xmlns="http://www.w3.org/2000/svg" xmlns:xlink="http://www.w3.org/1999/xlink">
<g id="graph0" class="graph" transform="scale(1 1) rotate(0) translate(4 280)">
<title>dependencies</title>
<polygon fill="white" stroke="transparent" points="-4,4 -4,-280 1146,-280 1146,4 -4,4"/>
<text text-anchor="start" x="550.01" y="-42.4" font-family="Times-12" font-weight="bold" font-size="14.00">Legend</text>
<polygon fill="#ffffb3" stroke="transparent" points="337,-10 337,-30 357,-30 357,-10 337,-10"/>
<text text-anchor="start" x="360.63" y="-15.4" font-family="Times-12" font-size="14.00"> &#160;Declarations</text>
<polygon fill="#8dd3c7" stroke="transparent" points="450,-10 450,-30 470,-30 470,-10 450,-10"/>
<text text-anchor="start" x="473.73" y="-15.4" font-family="Times-12" font-size="14.00"> &#160;Module</text>
<polygon fill="#80b1d3" stroke="transparent" points="536,-10 536,-30 556,-30 556,-10 536,-10"/>
<text text-anchor="start" x="559.78" y="-15.4" font-family="Times-12" font-size="14.00"> &#160;Bootstrap</text>
<polygon fill="#fdb462" stroke="transparent" points="633,-10 633,-30 653,-30 653,-10 633,-10"/>
<text text-anchor="start" x="656.67" y="-15.4" font-family="Times-12" font-size="14.00"> &#160;Providers</text>
<polygon fill="#fb8072" stroke="transparent" points="729,-10 729,-30 749,-30 749,-10 729,-10"/>
<text text-anchor="start" x="752.73" y="-15.4" font-family="Times-12" font-size="14.00"> &#160;Exports</text>
<g id="clust1" class="cluster">
<title>cluster_AdminsModule</title>
<polygon fill="none" stroke="black" stroke-dasharray="1,5" points="8,-70 8,-268 1134,-268 1134,-70 8,-70"/>
</g>
<g id="clust4" class="cluster">
<title>cluster_AdminsModule_exports</title>
<polygon fill="none" stroke="black" points="510,-208 510,-260 632,-260 632,-208 510,-208"/>
</g>
<g id="clust6" class="cluster">
<title>cluster_AdminsModule_providers</title>
<polygon fill="none" stroke="black" points="968,-78 968,-130 1126,-130 1126,-78 968,-78"/>
</g>
<g id="clust3" class="cluster">
<title>cluster_AdminsModule_imports</title>
<polygon fill="none" stroke="black" points="16,-78 16,-130 960,-130 960,-78 16,-78"/>
</g>
<!-- AuthModule -->
<g id="node1" class="node">
<title>AuthModule</title>
<polygon fill="#8dd3c7" stroke="black" points="951.55,-122 948.55,-126 927.55,-126 924.55,-122 864.45,-122 864.45,-86 951.55,-86 951.55,-122"/>
<text text-anchor="middle" x="908" y="-99.8" font-family="Times,serif" font-size="14.00">AuthModule</text>
</g>
<!-- AdminsModule -->
<g id="node8" class="node">
<title>AdminsModule</title>
<polygon fill="#8dd3c7" stroke="black" points="622.88,-187 619.88,-191 598.88,-191 595.88,-187 519.12,-187 519.12,-151 622.88,-151 622.88,-187"/>
<text text-anchor="middle" x="571" y="-164.8" font-family="Times,serif" font-size="14.00">AdminsModule</text>
</g>
<!-- AuthModule&#45;&gt;AdminsModule -->
<g id="edge1" class="edge">
<title>AuthModule&#45;&gt;AdminsModule</title>
<path fill="none" stroke="black" d="M908,-122.11C908,-141.34 908,-169 908,-169 908,-169 632.92,-169 632.92,-169"/>
<polygon fill="black" stroke="black" points="632.92,-165.5 622.92,-169 632.92,-172.5 632.92,-165.5"/>
</g>
<!-- CommonModule -->
<g id="node2" class="node">
<title>CommonModule</title>
<polygon fill="#8dd3c7" stroke="black" points="845.67,-122 842.67,-126 821.67,-126 818.67,-122 734.33,-122 734.33,-86 845.67,-86 845.67,-122"/>
<text text-anchor="middle" x="790" y="-99.8" font-family="Times,serif" font-size="14.00">CommonModule</text>
</g>
<!-- CommonModule&#45;&gt;AdminsModule -->
<g id="edge2" class="edge">
<title>CommonModule&#45;&gt;AdminsModule</title>
<path fill="none" stroke="black" d="M790,-122.03C790,-138.4 790,-160 790,-160 790,-160 632.9,-160 632.9,-160"/>
<polygon fill="black" stroke="black" points="632.9,-156.5 622.9,-160 632.9,-163.5 632.9,-156.5"/>
</g>
<!-- FacilityGroupModule -->
<g id="node3" class="node">
<title>FacilityGroupModule</title>
<polygon fill="#8dd3c7" stroke="black" points="716.09,-122 713.09,-126 692.09,-126 689.09,-122 577.91,-122 577.91,-86 716.09,-86 716.09,-122"/>
<text text-anchor="middle" x="647" y="-99.8" font-family="Times,serif" font-size="14.00">FacilityGroupModule</text>
</g>
<!-- FacilityGroupModule&#45;&gt;AdminsModule -->
<g id="edge3" class="edge">
<title>FacilityGroupModule&#45;&gt;AdminsModule</title>
<path fill="none" stroke="black" d="M600.45,-122.11C600.45,-122.11 600.45,-140.99 600.45,-140.99"/>
<polygon fill="black" stroke="black" points="596.95,-140.99 600.45,-150.99 603.95,-140.99 596.95,-140.99"/>
</g>
<!-- FacilityRoleModule -->
<g id="node4" class="node">
<title>FacilityRoleModule</title>
<polygon fill="#8dd3c7" stroke="black" points="560.27,-122 557.27,-126 536.27,-126 533.27,-122 431.73,-122 431.73,-86 560.27,-86 560.27,-122"/>
<text text-anchor="middle" x="496" y="-99.8" font-family="Times,serif" font-size="14.00">FacilityRoleModule</text>
</g>
<!-- FacilityRoleModule&#45;&gt;AdminsModule -->
<g id="edge4" class="edge">
<title>FacilityRoleModule&#45;&gt;AdminsModule</title>
<path fill="none" stroke="black" d="M539.72,-122.11C539.72,-122.11 539.72,-140.99 539.72,-140.99"/>
<polygon fill="black" stroke="black" points="536.22,-140.99 539.72,-150.99 543.22,-140.99 536.22,-140.99"/>
</g>
<!-- OnboardingModule -->
<g id="node5" class="node">
<title>OnboardingModule</title>
<polygon fill="#8dd3c7" stroke="black" points="413.42,-122 410.42,-126 389.42,-126 386.42,-122 286.58,-122 286.58,-86 413.42,-86 413.42,-122"/>
<text text-anchor="middle" x="350" y="-99.8" font-family="Times,serif" font-size="14.00">OnboardingModule</text>
</g>
<!-- OnboardingModule&#45;&gt;AdminsModule -->
<g id="edge5" class="edge">
<title>OnboardingModule&#45;&gt;AdminsModule</title>
<path fill="none" stroke="black" d="M350,-122.03C350,-138.4 350,-160 350,-160 350,-160 508.91,-160 508.91,-160"/>
<polygon fill="black" stroke="black" points="508.91,-163.5 518.91,-160 508.91,-156.5 508.91,-163.5"/>
</g>
<!-- PermissionsModule -->
<g id="node6" class="node">
<title>PermissionsModule</title>
<polygon fill="#8dd3c7" stroke="black" points="268.71,-122 265.71,-126 244.71,-126 241.71,-122 141.29,-122 141.29,-86 268.71,-86 268.71,-122"/>
<text text-anchor="middle" x="205" y="-99.8" font-family="Times,serif" font-size="14.00">PermissionsModule</text>
</g>
<!-- PermissionsModule&#45;&gt;AdminsModule -->
<g id="edge6" class="edge">
<title>PermissionsModule&#45;&gt;AdminsModule</title>
<path fill="none" stroke="black" d="M205,-122.11C205,-141.34 205,-169 205,-169 205,-169 508.95,-169 508.95,-169"/>
<polygon fill="black" stroke="black" points="508.95,-172.5 518.95,-169 508.95,-165.5 508.95,-172.5"/>
</g>
<!-- SettingModule -->
<g id="node7" class="node">
<title>SettingModule</title>
<polygon fill="#8dd3c7" stroke="black" points="123.72,-122 120.72,-126 99.72,-126 96.72,-122 24.28,-122 24.28,-86 123.72,-86 123.72,-122"/>
<text text-anchor="middle" x="74" y="-99.8" font-family="Times,serif" font-size="14.00">SettingModule</text>
</g>
<!-- SettingModule&#45;&gt;AdminsModule -->
<g id="edge7" class="edge">
<title>SettingModule&#45;&gt;AdminsModule</title>
<path fill="none" stroke="black" d="M74,-122.29C74,-144.21 74,-178 74,-178 74,-178 508.75,-178 508.75,-178"/>
<polygon fill="black" stroke="black" points="508.75,-181.5 518.75,-178 508.75,-174.5 508.75,-181.5"/>
</g>
<!-- AdminsService  -->
<g id="node9" class="node">
<title>AdminsService </title>
<polygon fill="#fb8072" stroke="black" points="623.81,-252 518.19,-252 518.19,-216 623.81,-216 623.81,-252"/>
<text text-anchor="middle" x="571" y="-229.8" font-family="Times,serif" font-size="14.00">AdminsService </text>
</g>
<!-- AdminsModule&#45;&gt;AdminsService  -->
<g id="edge8" class="edge">
<title>AdminsModule&#45;&gt;AdminsService </title>
<path fill="none" stroke="black" stroke-dasharray="5,2" d="M571,-187.11C571,-187.11 571,-205.99 571,-205.99"/>
<polygon fill="black" stroke="black" points="567.5,-205.99 571,-215.99 574.5,-205.99 567.5,-205.99"/>
</g>
<!-- AdminsService -->
<g id="node10" class="node">
<title>AdminsService</title>
<ellipse fill="#fdb462" stroke="black" cx="1047" cy="-104" rx="70.64" ry="18"/>
<text text-anchor="middle" x="1047" y="-99.8" font-family="Times,serif" font-size="14.00">AdminsService</text>
</g>
<!-- AdminsService&#45;&gt;AdminsModule -->
<g id="edge9" class="edge">
<title>AdminsService&#45;&gt;AdminsModule</title>
<path fill="none" stroke="black" d="M1047,-122.29C1047,-144.21 1047,-178 1047,-178 1047,-178 633.3,-178 633.3,-178"/>
<polygon fill="black" stroke="black" points="633.3,-174.5 623.3,-178 633.3,-181.5 633.3,-174.5"/>
</g>
</g>
</svg>
