<?xml version="1.0" encoding="UTF-8" standalone="no"?>
<!DOCTYPE svg PUBLIC "-//W3C//DTD SVG 1.1//EN"
 "http://www.w3.org/Graphics/SVG/1.1/DTD/svg11.dtd">
<!-- Generated by graphviz version 2.47.0 (20210316.0004)
 -->
<!-- Title: dependencies Pages: 1 -->
<svg width="504pt" height="284pt"
 viewBox="0.00 0.00 504.00 284.00" xmlns="http://www.w3.org/2000/svg" xmlns:xlink="http://www.w3.org/1999/xlink">
<g id="graph0" class="graph" transform="scale(1 1) rotate(0) translate(4 280)">
<title>dependencies</title>
<polygon fill="white" stroke="transparent" points="-4,4 -4,-280 500,-280 500,4 -4,4"/>
<text text-anchor="start" x="227.01" y="-42.4" font-family="Times-12" font-weight="bold" font-size="14.00">Legend</text>
<polygon fill="#ffffb3" stroke="transparent" points="14,-10 14,-30 34,-30 34,-10 14,-10"/>
<text text-anchor="start" x="37.63" y="-15.4" font-family="Times-12" font-size="14.00"> &#160;Declarations</text>
<polygon fill="#8dd3c7" stroke="transparent" points="127,-10 127,-30 147,-30 147,-10 127,-10"/>
<text text-anchor="start" x="150.73" y="-15.4" font-family="Times-12" font-size="14.00"> &#160;Module</text>
<polygon fill="#80b1d3" stroke="transparent" points="213,-10 213,-30 233,-30 233,-10 213,-10"/>
<text text-anchor="start" x="236.78" y="-15.4" font-family="Times-12" font-size="14.00"> &#160;Bootstrap</text>
<polygon fill="#fdb462" stroke="transparent" points="310,-10 310,-30 330,-30 330,-10 310,-10"/>
<text text-anchor="start" x="333.67" y="-15.4" font-family="Times-12" font-size="14.00"> &#160;Providers</text>
<polygon fill="#fb8072" stroke="transparent" points="406,-10 406,-30 426,-30 426,-10 406,-10"/>
<text text-anchor="start" x="429.73" y="-15.4" font-family="Times-12" font-size="14.00"> &#160;Exports</text>
<g id="clust1" class="cluster">
<title>cluster_NrtsDetailModule</title>
<polygon fill="none" stroke="black" stroke-dasharray="1,5" points="84,-70 84,-268 412,-268 412,-70 84,-70"/>
</g>
<g id="clust6" class="cluster">
<title>cluster_NrtsDetailModule_providers</title>
<polygon fill="none" stroke="black" points="228,-78 228,-130 404,-130 404,-78 228,-78"/>
</g>
<g id="clust3" class="cluster">
<title>cluster_NrtsDetailModule_imports</title>
<polygon fill="none" stroke="black" points="92,-78 92,-130 220,-130 220,-78 92,-78"/>
</g>
<g id="clust4" class="cluster">
<title>cluster_NrtsDetailModule_exports</title>
<polygon fill="none" stroke="black" points="170,-208 170,-260 306,-260 306,-208 170,-208"/>
</g>
<!-- CommonModule -->
<g id="node1" class="node">
<title>CommonModule</title>
<polygon fill="#8dd3c7" stroke="black" points="211.67,-122 208.67,-126 187.67,-126 184.67,-122 100.33,-122 100.33,-86 211.67,-86 211.67,-122"/>
<text text-anchor="middle" x="156" y="-99.8" font-family="Times,serif" font-size="14.00">CommonModule</text>
</g>
<!-- NrtsDetailModule -->
<g id="node2" class="node">
<title>NrtsDetailModule</title>
<polygon fill="#8dd3c7" stroke="black" points="296.86,-187 293.86,-191 272.86,-191 269.86,-187 179.14,-187 179.14,-151 296.86,-151 296.86,-187"/>
<text text-anchor="middle" x="238" y="-164.8" font-family="Times,serif" font-size="14.00">NrtsDetailModule</text>
</g>
<!-- CommonModule&#45;&gt;NrtsDetailModule -->
<g id="edge1" class="edge">
<title>CommonModule&#45;&gt;NrtsDetailModule</title>
<path fill="none" stroke="black" d="M195.45,-122.11C195.45,-122.11 195.45,-140.99 195.45,-140.99"/>
<polygon fill="black" stroke="black" points="191.95,-140.99 195.45,-150.99 198.95,-140.99 191.95,-140.99"/>
</g>
<!-- NrtsDetailService  -->
<g id="node3" class="node">
<title>NrtsDetailService </title>
<polygon fill="#fb8072" stroke="black" points="297.79,-252 178.21,-252 178.21,-216 297.79,-216 297.79,-252"/>
<text text-anchor="middle" x="238" y="-229.8" font-family="Times,serif" font-size="14.00">NrtsDetailService </text>
</g>
<!-- NrtsDetailModule&#45;&gt;NrtsDetailService  -->
<g id="edge2" class="edge">
<title>NrtsDetailModule&#45;&gt;NrtsDetailService </title>
<path fill="none" stroke="black" stroke-dasharray="5,2" d="M238,-187.11C238,-187.11 238,-205.99 238,-205.99"/>
<polygon fill="black" stroke="black" points="234.5,-205.99 238,-215.99 241.5,-205.99 234.5,-205.99"/>
</g>
<!-- NrtsDetailService -->
<g id="node4" class="node">
<title>NrtsDetailService</title>
<ellipse fill="#fdb462" stroke="black" cx="316" cy="-104" rx="80.43" ry="18"/>
<text text-anchor="middle" x="316" y="-99.8" font-family="Times,serif" font-size="14.00">NrtsDetailService</text>
</g>
<!-- NrtsDetailService&#45;&gt;NrtsDetailModule -->
<g id="edge3" class="edge">
<title>NrtsDetailService&#45;&gt;NrtsDetailModule</title>
<path fill="none" stroke="black" d="M266.36,-118.43C266.36,-118.43 266.36,-140.89 266.36,-140.89"/>
<polygon fill="black" stroke="black" points="262.86,-140.89 266.36,-150.89 269.86,-140.89 262.86,-140.89"/>
</g>
</g>
</svg>
