<?xml version="1.0" encoding="UTF-8" standalone="no"?>
<!DOCTYPE svg PUBLIC "-//W3C//DTD SVG 1.1//EN"
 "http://www.w3.org/Graphics/SVG/1.1/DTD/svg11.dtd">
<!-- Generated by graphviz version 2.47.0 (20210316.0004)
 -->
<!-- Title: dependencies Pages: 1 -->
<svg width="509pt" height="284pt"
 viewBox="0.00 0.00 509.00 284.00" xmlns="http://www.w3.org/2000/svg" xmlns:xlink="http://www.w3.org/1999/xlink">
<g id="graph0" class="graph" transform="scale(1 1) rotate(0) translate(4 280)">
<title>dependencies</title>
<polygon fill="white" stroke="transparent" points="-4,4 -4,-280 505,-280 505,4 -4,4"/>
<text text-anchor="start" x="229.51" y="-42.4" font-family="Times-12" font-weight="bold" font-size="14.00">Legend</text>
<polygon fill="#ffffb3" stroke="transparent" points="16.5,-10 16.5,-30 36.5,-30 36.5,-10 16.5,-10"/>
<text text-anchor="start" x="40.13" y="-15.4" font-family="Times-12" font-size="14.00"> &#160;Declarations</text>
<polygon fill="#8dd3c7" stroke="transparent" points="129.5,-10 129.5,-30 149.5,-30 149.5,-10 129.5,-10"/>
<text text-anchor="start" x="153.23" y="-15.4" font-family="Times-12" font-size="14.00"> &#160;Module</text>
<polygon fill="#80b1d3" stroke="transparent" points="215.5,-10 215.5,-30 235.5,-30 235.5,-10 215.5,-10"/>
<text text-anchor="start" x="239.28" y="-15.4" font-family="Times-12" font-size="14.00"> &#160;Bootstrap</text>
<polygon fill="#fdb462" stroke="transparent" points="312.5,-10 312.5,-30 332.5,-30 332.5,-10 312.5,-10"/>
<text text-anchor="start" x="336.17" y="-15.4" font-family="Times-12" font-size="14.00"> &#160;Providers</text>
<polygon fill="#fb8072" stroke="transparent" points="408.5,-10 408.5,-30 428.5,-30 428.5,-10 408.5,-10"/>
<text text-anchor="start" x="432.23" y="-15.4" font-family="Times-12" font-size="14.00"> &#160;Exports</text>
<g id="clust1" class="cluster">
<title>cluster_OnboardingModule</title>
<polygon fill="none" stroke="black" stroke-dasharray="1,5" points="8,-70 8,-268 493,-268 493,-70 8,-70"/>
</g>
<g id="clust3" class="cluster">
<title>cluster_OnboardingModule_imports</title>
<polygon fill="none" stroke="black" points="212,-78 212,-130 485,-130 485,-78 212,-78"/>
</g>
<g id="clust6" class="cluster">
<title>cluster_OnboardingModule_providers</title>
<polygon fill="none" stroke="black" points="16,-78 16,-130 204,-130 204,-78 16,-78"/>
</g>
<g id="clust4" class="cluster">
<title>cluster_OnboardingModule_exports</title>
<polygon fill="none" stroke="black" points="212,-208 212,-260 356,-260 356,-208 212,-208"/>
</g>
<!-- CommonModule -->
<g id="node1" class="node">
<title>CommonModule</title>
<polygon fill="#8dd3c7" stroke="black" points="476.67,-122 473.67,-126 452.67,-126 449.67,-122 365.33,-122 365.33,-86 476.67,-86 476.67,-122"/>
<text text-anchor="middle" x="421" y="-99.8" font-family="Times,serif" font-size="14.00">CommonModule</text>
</g>
<!-- OnboardingModule -->
<g id="node3" class="node">
<title>OnboardingModule</title>
<polygon fill="#8dd3c7" stroke="black" points="347.42,-187 344.42,-191 323.42,-191 320.42,-187 220.58,-187 220.58,-151 347.42,-151 347.42,-187"/>
<text text-anchor="middle" x="284" y="-164.8" font-family="Times,serif" font-size="14.00">OnboardingModule</text>
</g>
<!-- CommonModule&#45;&gt;OnboardingModule -->
<g id="edge1" class="edge">
<title>CommonModule&#45;&gt;OnboardingModule</title>
<path fill="none" stroke="black" d="M421,-122.11C421,-141.34 421,-169 421,-169 421,-169 357.29,-169 357.29,-169"/>
<polygon fill="black" stroke="black" points="357.29,-165.5 347.29,-169 357.29,-172.5 357.29,-165.5"/>
</g>
<!-- NotificationModule -->
<g id="node2" class="node">
<title>NotificationModule</title>
<polygon fill="#8dd3c7" stroke="black" points="347.7,-122 344.7,-126 323.7,-126 320.7,-122 220.3,-122 220.3,-86 347.7,-86 347.7,-122"/>
<text text-anchor="middle" x="284" y="-99.8" font-family="Times,serif" font-size="14.00">NotificationModule</text>
</g>
<!-- NotificationModule&#45;&gt;OnboardingModule -->
<g id="edge2" class="edge">
<title>NotificationModule&#45;&gt;OnboardingModule</title>
<path fill="none" stroke="black" d="M284,-122.11C284,-122.11 284,-140.99 284,-140.99"/>
<polygon fill="black" stroke="black" points="280.5,-140.99 284,-150.99 287.5,-140.99 280.5,-140.99"/>
</g>
<!-- OnboardingService  -->
<g id="node4" class="node">
<title>OnboardingService </title>
<polygon fill="#fb8072" stroke="black" points="348.35,-252 219.65,-252 219.65,-216 348.35,-216 348.35,-252"/>
<text text-anchor="middle" x="284" y="-229.8" font-family="Times,serif" font-size="14.00">OnboardingService </text>
</g>
<!-- OnboardingModule&#45;&gt;OnboardingService  -->
<g id="edge3" class="edge">
<title>OnboardingModule&#45;&gt;OnboardingService </title>
<path fill="none" stroke="black" stroke-dasharray="5,2" d="M284,-187.11C284,-187.11 284,-205.99 284,-205.99"/>
<polygon fill="black" stroke="black" points="280.5,-205.99 284,-215.99 287.5,-205.99 280.5,-205.99"/>
</g>
<!-- OnboardingService -->
<g id="node5" class="node">
<title>OnboardingService</title>
<ellipse fill="#fdb462" stroke="black" cx="110" cy="-104" rx="86.24" ry="18"/>
<text text-anchor="middle" x="110" y="-99.8" font-family="Times,serif" font-size="14.00">OnboardingService</text>
</g>
<!-- OnboardingService&#45;&gt;OnboardingModule -->
<g id="edge4" class="edge">
<title>OnboardingService&#45;&gt;OnboardingModule</title>
<path fill="none" stroke="black" d="M110,-122.11C110,-141.34 110,-169 110,-169 110,-169 210.69,-169 210.69,-169"/>
<polygon fill="black" stroke="black" points="210.69,-172.5 220.69,-169 210.69,-165.5 210.69,-172.5"/>
</g>
</g>
</svg>
