<?xml version="1.0" encoding="UTF-8" standalone="no"?>
<!DOCTYPE svg PUBLIC "-//W3C//DTD SVG 1.1//EN"
 "http://www.w3.org/Graphics/SVG/1.1/DTD/svg11.dtd">
<!-- Generated by graphviz version 2.47.0 (20210316.0004)
 -->
<!-- Title: dependencies Pages: 1 -->
<svg width="504pt" height="284pt"
 viewBox="0.00 0.00 504.00 284.00" xmlns="http://www.w3.org/2000/svg" xmlns:xlink="http://www.w3.org/1999/xlink">
<g id="graph0" class="graph" transform="scale(1 1) rotate(0) translate(4 280)">
<title>dependencies</title>
<polygon fill="white" stroke="transparent" points="-4,4 -4,-280 500,-280 500,4 -4,4"/>
<text text-anchor="start" x="227.01" y="-42.4" font-family="Times-12" font-weight="bold" font-size="14.00">Legend</text>
<polygon fill="#ffffb3" stroke="transparent" points="14,-10 14,-30 34,-30 34,-10 14,-10"/>
<text text-anchor="start" x="37.63" y="-15.4" font-family="Times-12" font-size="14.00"> &#160;Declarations</text>
<polygon fill="#8dd3c7" stroke="transparent" points="127,-10 127,-30 147,-30 147,-10 127,-10"/>
<text text-anchor="start" x="150.73" y="-15.4" font-family="Times-12" font-size="14.00"> &#160;Module</text>
<polygon fill="#80b1d3" stroke="transparent" points="213,-10 213,-30 233,-30 233,-10 213,-10"/>
<text text-anchor="start" x="236.78" y="-15.4" font-family="Times-12" font-size="14.00"> &#160;Bootstrap</text>
<polygon fill="#fdb462" stroke="transparent" points="310,-10 310,-30 330,-30 330,-10 310,-10"/>
<text text-anchor="start" x="333.67" y="-15.4" font-family="Times-12" font-size="14.00"> &#160;Providers</text>
<polygon fill="#fb8072" stroke="transparent" points="406,-10 406,-30 426,-30 426,-10 406,-10"/>
<text text-anchor="start" x="429.73" y="-15.4" font-family="Times-12" font-size="14.00"> &#160;Exports</text>
<g id="clust1" class="cluster">
<title>cluster_FacilityGroupModule</title>
<polygon fill="none" stroke="black" stroke-dasharray="1,5" points="70,-70 70,-268 426,-268 426,-70 70,-70"/>
</g>
<g id="clust6" class="cluster">
<title>cluster_FacilityGroupModule_providers</title>
<polygon fill="none" stroke="black" points="214,-78 214,-130 418,-130 418,-78 214,-78"/>
</g>
<g id="clust3" class="cluster">
<title>cluster_FacilityGroupModule_imports</title>
<polygon fill="none" stroke="black" points="78,-78 78,-130 206,-130 206,-78 78,-78"/>
</g>
<g id="clust4" class="cluster">
<title>cluster_FacilityGroupModule_exports</title>
<polygon fill="none" stroke="black" points="158,-208 158,-260 314,-260 314,-208 158,-208"/>
</g>
<!-- CommonModule -->
<g id="node1" class="node">
<title>CommonModule</title>
<polygon fill="#8dd3c7" stroke="black" points="197.67,-122 194.67,-126 173.67,-126 170.67,-122 86.33,-122 86.33,-86 197.67,-86 197.67,-122"/>
<text text-anchor="middle" x="142" y="-99.8" font-family="Times,serif" font-size="14.00">CommonModule</text>
</g>
<!-- FacilityGroupModule -->
<g id="node2" class="node">
<title>FacilityGroupModule</title>
<polygon fill="#8dd3c7" stroke="black" points="305.09,-187 302.09,-191 281.09,-191 278.09,-187 166.91,-187 166.91,-151 305.09,-151 305.09,-187"/>
<text text-anchor="middle" x="236" y="-164.8" font-family="Times,serif" font-size="14.00">FacilityGroupModule</text>
</g>
<!-- CommonModule&#45;&gt;FacilityGroupModule -->
<g id="edge1" class="edge">
<title>CommonModule&#45;&gt;FacilityGroupModule</title>
<path fill="none" stroke="black" d="M182.39,-122.11C182.39,-122.11 182.39,-140.99 182.39,-140.99"/>
<polygon fill="black" stroke="black" points="178.89,-140.99 182.39,-150.99 185.89,-140.99 178.89,-140.99"/>
</g>
<!-- FacilityGroupService  -->
<g id="node3" class="node">
<title>FacilityGroupService </title>
<polygon fill="#fb8072" stroke="black" points="306.02,-252 165.98,-252 165.98,-216 306.02,-216 306.02,-252"/>
<text text-anchor="middle" x="236" y="-229.8" font-family="Times,serif" font-size="14.00">FacilityGroupService </text>
</g>
<!-- FacilityGroupModule&#45;&gt;FacilityGroupService  -->
<g id="edge2" class="edge">
<title>FacilityGroupModule&#45;&gt;FacilityGroupService </title>
<path fill="none" stroke="black" stroke-dasharray="5,2" d="M236,-187.11C236,-187.11 236,-205.99 236,-205.99"/>
<polygon fill="black" stroke="black" points="232.5,-205.99 236,-215.99 239.5,-205.99 232.5,-205.99"/>
</g>
<!-- FacilityGroupService -->
<g id="node4" class="node">
<title>FacilityGroupService</title>
<ellipse fill="#fdb462" stroke="black" cx="316" cy="-104" rx="94.34" ry="18"/>
<text text-anchor="middle" x="316" y="-99.8" font-family="Times,serif" font-size="14.00">FacilityGroupService</text>
</g>
<!-- FacilityGroupService&#45;&gt;FacilityGroupModule -->
<g id="edge3" class="edge">
<title>FacilityGroupService&#45;&gt;FacilityGroupModule</title>
<path fill="none" stroke="black" d="M263.44,-119.08C263.44,-119.08 263.44,-140.76 263.44,-140.76"/>
<polygon fill="black" stroke="black" points="259.94,-140.76 263.44,-150.76 266.94,-140.76 259.94,-140.76"/>
</g>
</g>
</svg>
