<?xml version="1.0" encoding="UTF-8" standalone="no"?>
<!DOCTYPE svg PUBLIC "-//W3C//DTD SVG 1.1//EN"
 "http://www.w3.org/Graphics/SVG/1.1/DTD/svg11.dtd">
<!-- Generated by graphviz version 2.47.0 (20210316.0004)
 -->
<!-- Title: dependencies Pages: 1 -->
<svg width="708pt" height="284pt"
 viewBox="0.00 0.00 708.00 284.00" xmlns="http://www.w3.org/2000/svg" xmlns:xlink="http://www.w3.org/1999/xlink">
<g id="graph0" class="graph" transform="scale(1 1) rotate(0) translate(4 280)">
<title>dependencies</title>
<polygon fill="white" stroke="transparent" points="-4,4 -4,-280 704,-280 704,4 -4,4"/>
<text text-anchor="start" x="329.01" y="-42.4" font-family="Times-12" font-weight="bold" font-size="14.00">Legend</text>
<polygon fill="#ffffb3" stroke="transparent" points="116,-10 116,-30 136,-30 136,-10 116,-10"/>
<text text-anchor="start" x="139.63" y="-15.4" font-family="Times-12" font-size="14.00"> &#160;Declarations</text>
<polygon fill="#8dd3c7" stroke="transparent" points="229,-10 229,-30 249,-30 249,-10 229,-10"/>
<text text-anchor="start" x="252.73" y="-15.4" font-family="Times-12" font-size="14.00"> &#160;Module</text>
<polygon fill="#80b1d3" stroke="transparent" points="315,-10 315,-30 335,-30 335,-10 315,-10"/>
<text text-anchor="start" x="338.78" y="-15.4" font-family="Times-12" font-size="14.00"> &#160;Bootstrap</text>
<polygon fill="#fdb462" stroke="transparent" points="412,-10 412,-30 432,-30 432,-10 412,-10"/>
<text text-anchor="start" x="435.67" y="-15.4" font-family="Times-12" font-size="14.00"> &#160;Providers</text>
<polygon fill="#fb8072" stroke="transparent" points="508,-10 508,-30 528,-30 528,-10 508,-10"/>
<text text-anchor="start" x="531.73" y="-15.4" font-family="Times-12" font-size="14.00"> &#160;Exports</text>
<g id="clust1" class="cluster">
<title>cluster_PrivateChatMessagesModule</title>
<polygon fill="none" stroke="black" stroke-dasharray="1,5" points="8,-70 8,-268 692,-268 692,-70 8,-70"/>
</g>
<g id="clust6" class="cluster">
<title>cluster_PrivateChatMessagesModule_providers</title>
<polygon fill="none" stroke="black" points="152,-78 152,-130 684,-130 684,-78 152,-78"/>
</g>
<g id="clust3" class="cluster">
<title>cluster_PrivateChatMessagesModule_imports</title>
<polygon fill="none" stroke="black" points="16,-78 16,-130 144,-130 144,-78 16,-78"/>
</g>
<g id="clust4" class="cluster">
<title>cluster_PrivateChatMessagesModule_exports</title>
<polygon fill="none" stroke="black" points="100,-208 100,-260 502,-260 502,-208 100,-208"/>
</g>
<!-- CommonModule -->
<g id="node1" class="node">
<title>CommonModule</title>
<polygon fill="#8dd3c7" stroke="black" points="135.67,-122 132.67,-126 111.67,-126 108.67,-122 24.33,-122 24.33,-86 135.67,-86 135.67,-122"/>
<text text-anchor="middle" x="80" y="-99.8" font-family="Times,serif" font-size="14.00">CommonModule</text>
</g>
<!-- PrivateChatMessagesModule -->
<g id="node2" class="node">
<title>PrivateChatMessagesModule</title>
<polygon fill="#8dd3c7" stroke="black" points="373.07,-187 370.07,-191 349.07,-191 346.07,-187 192.93,-187 192.93,-151 373.07,-151 373.07,-187"/>
<text text-anchor="middle" x="283" y="-164.8" font-family="Times,serif" font-size="14.00">PrivateChatMessagesModule</text>
</g>
<!-- CommonModule&#45;&gt;PrivateChatMessagesModule -->
<g id="edge1" class="edge">
<title>CommonModule&#45;&gt;PrivateChatMessagesModule</title>
<path fill="none" stroke="black" d="M121.92,-122.11C121.92,-141.34 121.92,-169 121.92,-169 121.92,-169 182.57,-169 182.57,-169"/>
<polygon fill="black" stroke="black" points="182.57,-172.5 192.57,-169 182.57,-165.5 182.57,-172.5"/>
</g>
<!-- PrivateChatMessagesListener  -->
<g id="node3" class="node">
<title>PrivateChatMessagesListener </title>
<polygon fill="#fb8072" stroke="black" points="493.89,-252 308.11,-252 308.11,-216 493.89,-216 493.89,-252"/>
<text text-anchor="middle" x="401" y="-229.8" font-family="Times,serif" font-size="14.00">PrivateChatMessagesListener </text>
</g>
<!-- PrivateChatMessagesModule&#45;&gt;PrivateChatMessagesListener  -->
<g id="edge2" class="edge">
<title>PrivateChatMessagesModule&#45;&gt;PrivateChatMessagesListener </title>
<path fill="none" stroke="black" stroke-dasharray="5,2" d="M340.55,-187.11C340.55,-187.11 340.55,-205.99 340.55,-205.99"/>
<polygon fill="black" stroke="black" points="337.05,-205.99 340.55,-215.99 344.05,-205.99 337.05,-205.99"/>
</g>
<!-- PrivateChatMessagesService  -->
<g id="node4" class="node">
<title>PrivateChatMessagesService </title>
<polygon fill="#fb8072" stroke="black" points="290,-252 108,-252 108,-216 290,-216 290,-252"/>
<text text-anchor="middle" x="199" y="-229.8" font-family="Times,serif" font-size="14.00">PrivateChatMessagesService </text>
</g>
<!-- PrivateChatMessagesModule&#45;&gt;PrivateChatMessagesService  -->
<g id="edge3" class="edge">
<title>PrivateChatMessagesModule&#45;&gt;PrivateChatMessagesService </title>
<path fill="none" stroke="black" stroke-dasharray="5,2" d="M241.48,-187.11C241.48,-187.11 241.48,-205.99 241.48,-205.99"/>
<polygon fill="black" stroke="black" points="237.98,-205.99 241.48,-215.99 244.98,-205.99 237.98,-205.99"/>
</g>
<!-- PrivateChatMessagesListener -->
<g id="node5" class="node">
<title>PrivateChatMessagesListener</title>
<ellipse fill="#fdb462" stroke="black" cx="550" cy="-104" rx="125.61" ry="18"/>
<text text-anchor="middle" x="550" y="-99.8" font-family="Times,serif" font-size="14.00">PrivateChatMessagesListener</text>
</g>
<!-- PrivateChatMessagesListener&#45;&gt;PrivateChatMessagesModule -->
<g id="edge4" class="edge">
<title>PrivateChatMessagesListener&#45;&gt;PrivateChatMessagesModule</title>
<path fill="none" stroke="black" d="M459.07,-116.53C459.07,-135.42 459.07,-169 459.07,-169 459.07,-169 383.1,-169 383.1,-169"/>
<polygon fill="black" stroke="black" points="383.1,-165.5 373.1,-169 383.1,-172.5 383.1,-165.5"/>
</g>
<!-- PrivateChatMessagesService -->
<g id="node6" class="node">
<title>PrivateChatMessagesService</title>
<ellipse fill="#fdb462" stroke="black" cx="283" cy="-104" rx="123.25" ry="18"/>
<text text-anchor="middle" x="283" y="-99.8" font-family="Times,serif" font-size="14.00">PrivateChatMessagesService</text>
</g>
<!-- PrivateChatMessagesService&#45;&gt;PrivateChatMessagesModule -->
<g id="edge5" class="edge">
<title>PrivateChatMessagesService&#45;&gt;PrivateChatMessagesModule</title>
<path fill="none" stroke="black" d="M283,-122.11C283,-122.11 283,-140.99 283,-140.99"/>
<polygon fill="black" stroke="black" points="279.5,-140.99 283,-150.99 286.5,-140.99 279.5,-140.99"/>
</g>
</g>
</svg>
