<?xml version="1.0" encoding="UTF-8" standalone="no"?>
<!DOCTYPE svg PUBLIC "-//W3C//DTD SVG 1.1//EN"
 "http://www.w3.org/Graphics/SVG/1.1/DTD/svg11.dtd">
<!-- Generated by graphviz version 2.47.0 (20210316.0004)
 -->
<!-- Title: dependencies Pages: 1 -->
<svg width="504pt" height="284pt"
 viewBox="0.00 0.00 504.00 284.00" xmlns="http://www.w3.org/2000/svg" xmlns:xlink="http://www.w3.org/1999/xlink">
<g id="graph0" class="graph" transform="scale(1 1) rotate(0) translate(4 280)">
<title>dependencies</title>
<polygon fill="white" stroke="transparent" points="-4,4 -4,-280 500,-280 500,4 -4,4"/>
<text text-anchor="start" x="227.01" y="-42.4" font-family="Times-12" font-weight="bold" font-size="14.00">Legend</text>
<polygon fill="#ffffb3" stroke="transparent" points="14,-10 14,-30 34,-30 34,-10 14,-10"/>
<text text-anchor="start" x="37.63" y="-15.4" font-family="Times-12" font-size="14.00"> &#160;Declarations</text>
<polygon fill="#8dd3c7" stroke="transparent" points="127,-10 127,-30 147,-30 147,-10 127,-10"/>
<text text-anchor="start" x="150.73" y="-15.4" font-family="Times-12" font-size="14.00"> &#160;Module</text>
<polygon fill="#80b1d3" stroke="transparent" points="213,-10 213,-30 233,-30 233,-10 213,-10"/>
<text text-anchor="start" x="236.78" y="-15.4" font-family="Times-12" font-size="14.00"> &#160;Bootstrap</text>
<polygon fill="#fdb462" stroke="transparent" points="310,-10 310,-30 330,-30 330,-10 310,-10"/>
<text text-anchor="start" x="333.67" y="-15.4" font-family="Times-12" font-size="14.00"> &#160;Providers</text>
<polygon fill="#fb8072" stroke="transparent" points="406,-10 406,-30 426,-30 426,-10 406,-10"/>
<text text-anchor="start" x="429.73" y="-15.4" font-family="Times-12" font-size="14.00"> &#160;Exports</text>
<g id="clust1" class="cluster">
<title>cluster_MotivationModule</title>
<polygon fill="none" stroke="black" stroke-dasharray="1,5" points="81,-70 81,-268 415,-268 415,-70 81,-70"/>
</g>
<g id="clust6" class="cluster">
<title>cluster_MotivationModule_providers</title>
<polygon fill="none" stroke="black" points="225,-78 225,-130 407,-130 407,-78 225,-78"/>
</g>
<g id="clust4" class="cluster">
<title>cluster_MotivationModule_exports</title>
<polygon fill="none" stroke="black" points="167,-208 167,-260 307,-260 307,-208 167,-208"/>
</g>
<g id="clust3" class="cluster">
<title>cluster_MotivationModule_imports</title>
<polygon fill="none" stroke="black" points="89,-78 89,-130 217,-130 217,-78 89,-78"/>
</g>
<!-- CommonModule -->
<g id="node1" class="node">
<title>CommonModule</title>
<polygon fill="#8dd3c7" stroke="black" points="208.67,-122 205.67,-126 184.67,-126 181.67,-122 97.33,-122 97.33,-86 208.67,-86 208.67,-122"/>
<text text-anchor="middle" x="153" y="-99.8" font-family="Times,serif" font-size="14.00">CommonModule</text>
</g>
<!-- MotivationModule -->
<g id="node2" class="node">
<title>MotivationModule</title>
<polygon fill="#8dd3c7" stroke="black" points="297.77,-187 294.77,-191 273.77,-191 270.77,-187 176.23,-187 176.23,-151 297.77,-151 297.77,-187"/>
<text text-anchor="middle" x="237" y="-164.8" font-family="Times,serif" font-size="14.00">MotivationModule</text>
</g>
<!-- CommonModule&#45;&gt;MotivationModule -->
<g id="edge1" class="edge">
<title>CommonModule&#45;&gt;MotivationModule</title>
<path fill="none" stroke="black" d="M192.47,-122.11C192.47,-122.11 192.47,-140.99 192.47,-140.99"/>
<polygon fill="black" stroke="black" points="188.97,-140.99 192.47,-150.99 195.97,-140.99 188.97,-140.99"/>
</g>
<!-- MotivationService  -->
<g id="node3" class="node">
<title>MotivationService </title>
<polygon fill="#fb8072" stroke="black" points="298.7,-252 175.3,-252 175.3,-216 298.7,-216 298.7,-252"/>
<text text-anchor="middle" x="237" y="-229.8" font-family="Times,serif" font-size="14.00">MotivationService </text>
</g>
<!-- MotivationModule&#45;&gt;MotivationService  -->
<g id="edge2" class="edge">
<title>MotivationModule&#45;&gt;MotivationService </title>
<path fill="none" stroke="black" stroke-dasharray="5,2" d="M237,-187.11C237,-187.11 237,-205.99 237,-205.99"/>
<polygon fill="black" stroke="black" points="233.5,-205.99 237,-215.99 240.5,-205.99 233.5,-205.99"/>
</g>
<!-- MotivationService -->
<g id="node4" class="node">
<title>MotivationService</title>
<ellipse fill="#fdb462" stroke="black" cx="316" cy="-104" rx="82.82" ry="18"/>
<text text-anchor="middle" x="316" y="-99.8" font-family="Times,serif" font-size="14.00">MotivationService</text>
</g>
<!-- MotivationService&#45;&gt;MotivationModule -->
<g id="edge3" class="edge">
<title>MotivationService&#45;&gt;MotivationModule</title>
<path fill="none" stroke="black" d="M265.49,-118.43C265.49,-118.43 265.49,-140.89 265.49,-140.89"/>
<polygon fill="black" stroke="black" points="261.99,-140.89 265.49,-150.89 268.99,-140.89 261.99,-140.89"/>
</g>
</g>
</svg>
