<?xml version="1.0" encoding="UTF-8" standalone="no"?>
<!DOCTYPE svg PUBLIC "-//W3C//DTD SVG 1.1//EN"
 "http://www.w3.org/Graphics/SVG/1.1/DTD/svg11.dtd">
<!-- Generated by graphviz version 2.47.0 (20210316.0004)
 -->
<!-- Title: dependencies Pages: 1 -->
<svg width="582pt" height="211pt"
 viewBox="0.00 0.00 582.00 211.00" xmlns="http://www.w3.org/2000/svg" xmlns:xlink="http://www.w3.org/1999/xlink">
<g id="graph0" class="graph" transform="scale(1 1) rotate(0) translate(4 207)">
<title>dependencies</title>
<polygon fill="white" stroke="transparent" points="-4,4 -4,-207 578,-207 578,4 -4,4"/>
<text text-anchor="start" x="266.01" y="-42.4" font-family="Times-12" font-weight="bold" font-size="14.00">Legend</text>
<polygon fill="#ffffb3" stroke="transparent" points="53,-10 53,-30 73,-30 73,-10 53,-10"/>
<text text-anchor="start" x="76.63" y="-15.4" font-family="Times-12" font-size="14.00"> &#160;Declarations</text>
<polygon fill="#8dd3c7" stroke="transparent" points="166,-10 166,-30 186,-30 186,-10 166,-10"/>
<text text-anchor="start" x="189.73" y="-15.4" font-family="Times-12" font-size="14.00"> &#160;Module</text>
<polygon fill="#80b1d3" stroke="transparent" points="252,-10 252,-30 272,-30 272,-10 252,-10"/>
<text text-anchor="start" x="275.78" y="-15.4" font-family="Times-12" font-size="14.00"> &#160;Bootstrap</text>
<polygon fill="#fdb462" stroke="transparent" points="349,-10 349,-30 369,-30 369,-10 349,-10"/>
<text text-anchor="start" x="372.67" y="-15.4" font-family="Times-12" font-size="14.00"> &#160;Providers</text>
<polygon fill="#fb8072" stroke="transparent" points="445,-10 445,-30 465,-30 465,-10 445,-10"/>
<text text-anchor="start" x="468.73" y="-15.4" font-family="Times-12" font-size="14.00"> &#160;Exports</text>
<g id="clust1" class="cluster">
<title>cluster_TicketsModule</title>
<polygon fill="none" stroke="black" stroke-dasharray="1,5" points="8,-70 8,-195 566,-195 566,-70 8,-70"/>
</g>
<g id="clust6" class="cluster">
<title>cluster_TicketsModule_providers</title>
<polygon fill="none" stroke="black" points="406,-78 406,-130 558,-130 558,-78 406,-78"/>
</g>
<g id="clust3" class="cluster">
<title>cluster_TicketsModule_imports</title>
<polygon fill="none" stroke="black" points="16,-78 16,-130 398,-130 398,-78 16,-78"/>
</g>
<!-- CommonModule -->
<g id="node1" class="node">
<title>CommonModule</title>
<polygon fill="#8dd3c7" stroke="black" points="389.67,-122 386.67,-126 365.67,-126 362.67,-122 278.33,-122 278.33,-86 389.67,-86 389.67,-122"/>
<text text-anchor="middle" x="334" y="-99.8" font-family="Times,serif" font-size="14.00">CommonModule</text>
</g>
<!-- TicketsModule -->
<g id="node4" class="node">
<title>TicketsModule</title>
<polygon fill="#8dd3c7" stroke="black" points="384.26,-187 381.26,-191 360.26,-191 357.26,-187 283.74,-187 283.74,-151 384.26,-151 384.26,-187"/>
<text text-anchor="middle" x="334" y="-164.8" font-family="Times,serif" font-size="14.00">TicketsModule</text>
</g>
<!-- CommonModule&#45;&gt;TicketsModule -->
<g id="edge1" class="edge">
<title>CommonModule&#45;&gt;TicketsModule</title>
<path fill="none" stroke="black" d="M317.21,-122.11C317.21,-122.11 317.21,-140.99 317.21,-140.99"/>
<polygon fill="black" stroke="black" points="313.71,-140.99 317.21,-150.99 320.71,-140.99 313.71,-140.99"/>
</g>
<!-- CommonModule&#45;&gt;TicketsModule -->
<g id="edge2" class="edge">
<title>CommonModule&#45;&gt;TicketsModule</title>
<path fill="none" stroke="black" d="M350.79,-122.11C350.79,-122.11 350.79,-140.99 350.79,-140.99"/>
<polygon fill="black" stroke="black" points="347.29,-140.99 350.79,-150.99 354.29,-140.99 347.29,-140.99"/>
</g>
<!-- NotificationModule -->
<g id="node2" class="node">
<title>NotificationModule</title>
<polygon fill="#8dd3c7" stroke="black" points="260.7,-122 257.7,-126 236.7,-126 233.7,-122 133.3,-122 133.3,-86 260.7,-86 260.7,-122"/>
<text text-anchor="middle" x="197" y="-99.8" font-family="Times,serif" font-size="14.00">NotificationModule</text>
</g>
<!-- NotificationModule&#45;&gt;TicketsModule -->
<g id="edge3" class="edge">
<title>NotificationModule&#45;&gt;TicketsModule</title>
<path fill="none" stroke="black" d="M197,-122.02C197,-139.37 197,-163 197,-163 197,-163 273.38,-163 273.38,-163"/>
<polygon fill="black" stroke="black" points="273.38,-166.5 283.38,-163 273.38,-159.5 273.38,-166.5"/>
</g>
<!-- UsersModule -->
<g id="node3" class="node">
<title>UsersModule</title>
<polygon fill="#8dd3c7" stroke="black" points="115.92,-122 112.92,-126 91.92,-126 88.92,-122 24.08,-122 24.08,-86 115.92,-86 115.92,-122"/>
<text text-anchor="middle" x="70" y="-99.8" font-family="Times,serif" font-size="14.00">UsersModule</text>
</g>
<!-- UsersModule&#45;&gt;TicketsModule -->
<g id="edge4" class="edge">
<title>UsersModule&#45;&gt;TicketsModule</title>
<path fill="none" stroke="black" d="M70,-122.28C70,-143.32 70,-175 70,-175 70,-175 273.72,-175 273.72,-175"/>
<polygon fill="black" stroke="black" points="273.72,-178.5 283.72,-175 273.72,-171.5 273.72,-178.5"/>
</g>
<!-- TicketsService -->
<g id="node5" class="node">
<title>TicketsService</title>
<ellipse fill="#fdb462" stroke="black" cx="482" cy="-104" rx="68.33" ry="18"/>
<text text-anchor="middle" x="482" y="-99.8" font-family="Times,serif" font-size="14.00">TicketsService</text>
</g>
<!-- TicketsService&#45;&gt;TicketsModule -->
<g id="edge5" class="edge">
<title>TicketsService&#45;&gt;TicketsModule</title>
<path fill="none" stroke="black" d="M482,-122.11C482,-141.34 482,-169 482,-169 482,-169 394.52,-169 394.52,-169"/>
<polygon fill="black" stroke="black" points="394.52,-165.5 384.52,-169 394.52,-172.5 394.52,-165.5"/>
</g>
</g>
</svg>
