<?xml version="1.0" encoding="UTF-8" standalone="no"?>
<!DOCTYPE svg PUBLIC "-//W3C//DTD SVG 1.1//EN"
 "http://www.w3.org/Graphics/SVG/1.1/DTD/svg11.dtd">
<!-- Generated by graphviz version 2.47.0 (20210316.0004)
 -->
<!-- Title: dependencies Pages: 1 -->
<svg width="504pt" height="284pt"
 viewBox="0.00 0.00 504.00 284.00" xmlns="http://www.w3.org/2000/svg" xmlns:xlink="http://www.w3.org/1999/xlink">
<g id="graph0" class="graph" transform="scale(1 1) rotate(0) translate(4 280)">
<title>dependencies</title>
<polygon fill="white" stroke="transparent" points="-4,4 -4,-280 500,-280 500,4 -4,4"/>
<text text-anchor="start" x="227.01" y="-42.4" font-family="Times-12" font-weight="bold" font-size="14.00">Legend</text>
<polygon fill="#ffffb3" stroke="transparent" points="14,-10 14,-30 34,-30 34,-10 14,-10"/>
<text text-anchor="start" x="37.63" y="-15.4" font-family="Times-12" font-size="14.00"> &#160;Declarations</text>
<polygon fill="#8dd3c7" stroke="transparent" points="127,-10 127,-30 147,-30 147,-10 127,-10"/>
<text text-anchor="start" x="150.73" y="-15.4" font-family="Times-12" font-size="14.00"> &#160;Module</text>
<polygon fill="#80b1d3" stroke="transparent" points="213,-10 213,-30 233,-30 233,-10 213,-10"/>
<text text-anchor="start" x="236.78" y="-15.4" font-family="Times-12" font-size="14.00"> &#160;Bootstrap</text>
<polygon fill="#fdb462" stroke="transparent" points="310,-10 310,-30 330,-30 330,-10 310,-10"/>
<text text-anchor="start" x="333.67" y="-15.4" font-family="Times-12" font-size="14.00"> &#160;Providers</text>
<polygon fill="#fb8072" stroke="transparent" points="406,-10 406,-30 426,-30 426,-10 406,-10"/>
<text text-anchor="start" x="429.73" y="-15.4" font-family="Times-12" font-size="14.00"> &#160;Exports</text>
<g id="clust1" class="cluster">
<title>cluster_MoodsModule</title>
<polygon fill="none" stroke="black" stroke-dasharray="1,5" points="97,-70 97,-268 399,-268 399,-70 97,-70"/>
</g>
<g id="clust3" class="cluster">
<title>cluster_MoodsModule_imports</title>
<polygon fill="none" stroke="black" points="263,-78 263,-130 391,-130 391,-78 263,-78"/>
</g>
<g id="clust6" class="cluster">
<title>cluster_MoodsModule_providers</title>
<polygon fill="none" stroke="black" points="105,-78 105,-130 255,-130 255,-78 105,-78"/>
</g>
<g id="clust4" class="cluster">
<title>cluster_MoodsModule_exports</title>
<polygon fill="none" stroke="black" points="195,-208 195,-260 311,-260 311,-208 195,-208"/>
</g>
<!-- CommonModule -->
<g id="node1" class="node">
<title>CommonModule</title>
<polygon fill="#8dd3c7" stroke="black" points="382.67,-122 379.67,-126 358.67,-126 355.67,-122 271.33,-122 271.33,-86 382.67,-86 382.67,-122"/>
<text text-anchor="middle" x="327" y="-99.8" font-family="Times,serif" font-size="14.00">CommonModule</text>
</g>
<!-- MoodsModule -->
<g id="node2" class="node">
<title>MoodsModule</title>
<polygon fill="#8dd3c7" stroke="black" points="302.44,-187 299.44,-191 278.44,-191 275.44,-187 203.56,-187 203.56,-151 302.44,-151 302.44,-187"/>
<text text-anchor="middle" x="253" y="-164.8" font-family="Times,serif" font-size="14.00">MoodsModule</text>
</g>
<!-- CommonModule&#45;&gt;MoodsModule -->
<g id="edge1" class="edge">
<title>CommonModule&#45;&gt;MoodsModule</title>
<path fill="none" stroke="black" d="M286.69,-122.11C286.69,-122.11 286.69,-140.99 286.69,-140.99"/>
<polygon fill="black" stroke="black" points="283.19,-140.99 286.69,-150.99 290.19,-140.99 283.19,-140.99"/>
</g>
<!-- MoodsService  -->
<g id="node3" class="node">
<title>MoodsService </title>
<polygon fill="#fb8072" stroke="black" points="303.37,-252 202.63,-252 202.63,-216 303.37,-216 303.37,-252"/>
<text text-anchor="middle" x="253" y="-229.8" font-family="Times,serif" font-size="14.00">MoodsService </text>
</g>
<!-- MoodsModule&#45;&gt;MoodsService  -->
<g id="edge2" class="edge">
<title>MoodsModule&#45;&gt;MoodsService </title>
<path fill="none" stroke="black" stroke-dasharray="5,2" d="M253,-187.11C253,-187.11 253,-205.99 253,-205.99"/>
<polygon fill="black" stroke="black" points="249.5,-205.99 253,-215.99 256.5,-205.99 249.5,-205.99"/>
</g>
<!-- MoodsService -->
<g id="node4" class="node">
<title>MoodsService</title>
<ellipse fill="#fdb462" stroke="black" cx="180" cy="-104" rx="66.63" ry="18"/>
<text text-anchor="middle" x="180" y="-99.8" font-family="Times,serif" font-size="14.00">MoodsService</text>
</g>
<!-- MoodsService&#45;&gt;MoodsModule -->
<g id="edge3" class="edge">
<title>MoodsService&#45;&gt;MoodsModule</title>
<path fill="none" stroke="black" d="M225.3,-117.47C225.3,-117.47 225.3,-140.86 225.3,-140.86"/>
<polygon fill="black" stroke="black" points="221.8,-140.86 225.3,-150.86 228.8,-140.86 221.8,-140.86"/>
</g>
</g>
</svg>
