<?xml version="1.0" encoding="UTF-8" standalone="no"?>
<!DOCTYPE svg PUBLIC "-//W3C//DTD SVG 1.1//EN"
 "http://www.w3.org/Graphics/SVG/1.1/DTD/svg11.dtd">
<!-- Generated by graphviz version 2.47.0 (20210316.0004)
 -->
<!-- Title: dependencies Pages: 1 -->
<svg width="1509pt" height="284pt"
 viewBox="0.00 0.00 1509.00 284.00" xmlns="http://www.w3.org/2000/svg" xmlns:xlink="http://www.w3.org/1999/xlink">
<g id="graph0" class="graph" transform="scale(1 1) rotate(0) translate(4 280)">
<title>dependencies</title>
<polygon fill="white" stroke="transparent" points="-4,4 -4,-280 1505,-280 1505,4 -4,4"/>
<text text-anchor="start" x="729.51" y="-42.4" font-family="Times-12" font-weight="bold" font-size="14.00">Legend</text>
<polygon fill="#ffffb3" stroke="transparent" points="516.5,-10 516.5,-30 536.5,-30 536.5,-10 516.5,-10"/>
<text text-anchor="start" x="540.13" y="-15.4" font-family="Times-12" font-size="14.00"> &#160;Declarations</text>
<polygon fill="#8dd3c7" stroke="transparent" points="629.5,-10 629.5,-30 649.5,-30 649.5,-10 629.5,-10"/>
<text text-anchor="start" x="653.23" y="-15.4" font-family="Times-12" font-size="14.00"> &#160;Module</text>
<polygon fill="#80b1d3" stroke="transparent" points="715.5,-10 715.5,-30 735.5,-30 735.5,-10 715.5,-10"/>
<text text-anchor="start" x="739.28" y="-15.4" font-family="Times-12" font-size="14.00"> &#160;Bootstrap</text>
<polygon fill="#fdb462" stroke="transparent" points="812.5,-10 812.5,-30 832.5,-30 832.5,-10 812.5,-10"/>
<text text-anchor="start" x="836.17" y="-15.4" font-family="Times-12" font-size="14.00"> &#160;Providers</text>
<polygon fill="#fb8072" stroke="transparent" points="908.5,-10 908.5,-30 928.5,-30 928.5,-10 908.5,-10"/>
<text text-anchor="start" x="932.23" y="-15.4" font-family="Times-12" font-size="14.00"> &#160;Exports</text>
<g id="clust1" class="cluster">
<title>cluster_GroupChatsModule</title>
<polygon fill="none" stroke="black" stroke-dasharray="1,5" points="8,-70 8,-268 1493,-268 1493,-70 8,-70"/>
</g>
<g id="clust6" class="cluster">
<title>cluster_GroupChatsModule_providers</title>
<polygon fill="none" stroke="black" points="1295,-78 1295,-130 1485,-130 1485,-78 1295,-78"/>
</g>
<g id="clust3" class="cluster">
<title>cluster_GroupChatsModule_imports</title>
<polygon fill="none" stroke="black" points="16,-78 16,-130 1287,-130 1287,-78 16,-78"/>
</g>
<g id="clust4" class="cluster">
<title>cluster_GroupChatsModule_exports</title>
<polygon fill="none" stroke="black" points="615,-208 615,-260 761,-260 761,-208 615,-208"/>
</g>
<!-- AvailabilitiesModule -->
<g id="node1" class="node">
<title>AvailabilitiesModule</title>
<polygon fill="#8dd3c7" stroke="black" points="1279.48,-122 1276.48,-126 1255.48,-126 1252.48,-122 1144.52,-122 1144.52,-86 1279.48,-86 1279.48,-122"/>
<text text-anchor="middle" x="1212" y="-99.8" font-family="Times,serif" font-size="14.00">AvailabilitiesModule</text>
</g>
<!-- GroupChatsModule -->
<g id="node10" class="node">
<title>GroupChatsModule</title>
<polygon fill="#8dd3c7" stroke="black" points="751.7,-187 748.7,-191 727.7,-191 724.7,-187 624.3,-187 624.3,-151 751.7,-151 751.7,-187"/>
<text text-anchor="middle" x="688" y="-164.8" font-family="Times,serif" font-size="14.00">GroupChatsModule</text>
</g>
<!-- AvailabilitiesModule&#45;&gt;GroupChatsModule -->
<g id="edge1" class="edge">
<title>AvailabilitiesModule&#45;&gt;GroupChatsModule</title>
<path fill="none" stroke="black" d="M1212,-122.13C1212,-142.57 1212,-173 1212,-173 1212,-173 761.73,-173 761.73,-173"/>
<polygon fill="black" stroke="black" points="761.73,-169.5 751.73,-173 761.73,-176.5 761.73,-169.5"/>
</g>
<!-- BlockedUsersModule -->
<g id="node2" class="node">
<title>BlockedUsersModule</title>
<polygon fill="#8dd3c7" stroke="black" points="1126.08,-122 1123.08,-126 1102.08,-126 1099.08,-122 987.92,-122 987.92,-86 1126.08,-86 1126.08,-122"/>
<text text-anchor="middle" x="1057" y="-99.8" font-family="Times,serif" font-size="14.00">BlockedUsersModule</text>
</g>
<!-- BlockedUsersModule&#45;&gt;GroupChatsModule -->
<g id="edge2" class="edge">
<title>BlockedUsersModule&#45;&gt;GroupChatsModule</title>
<path fill="none" stroke="black" d="M1057,-122.27C1057,-140.56 1057,-166 1057,-166 1057,-166 761.85,-166 761.85,-166"/>
<polygon fill="black" stroke="black" points="761.85,-162.5 751.85,-166 761.85,-169.5 761.85,-162.5"/>
</g>
<!-- CommonModule -->
<g id="node3" class="node">
<title>CommonModule</title>
<polygon fill="#8dd3c7" stroke="black" points="969.67,-122 966.67,-126 945.67,-126 942.67,-122 858.33,-122 858.33,-86 969.67,-86 969.67,-122"/>
<text text-anchor="middle" x="914" y="-99.8" font-family="Times,serif" font-size="14.00">CommonModule</text>
</g>
<!-- CommonModule&#45;&gt;GroupChatsModule -->
<g id="edge3" class="edge">
<title>CommonModule&#45;&gt;GroupChatsModule</title>
<path fill="none" stroke="black" d="M914,-122.01C914,-138.05 914,-159 914,-159 914,-159 761.86,-159 761.86,-159"/>
<polygon fill="black" stroke="black" points="761.86,-155.5 751.86,-159 761.86,-162.5 761.86,-155.5"/>
</g>
<!-- HealthFacilityModule -->
<g id="node4" class="node">
<title>HealthFacilityModule</title>
<polygon fill="#8dd3c7" stroke="black" points="839.64,-122 836.64,-126 815.64,-126 812.64,-122 700.36,-122 700.36,-86 839.64,-86 839.64,-122"/>
<text text-anchor="middle" x="770" y="-99.8" font-family="Times,serif" font-size="14.00">HealthFacilityModule</text>
</g>
<!-- HealthFacilityModule&#45;&gt;GroupChatsModule -->
<g id="edge4" class="edge">
<title>HealthFacilityModule&#45;&gt;GroupChatsModule</title>
<path fill="none" stroke="black" d="M725.89,-122.11C725.89,-122.11 725.89,-140.99 725.89,-140.99"/>
<polygon fill="black" stroke="black" points="722.39,-140.99 725.89,-150.99 729.39,-140.99 722.39,-140.99"/>
</g>
<!-- HealthSpecialistModule -->
<g id="node5" class="node">
<title>HealthSpecialistModule</title>
<polygon fill="#8dd3c7" stroke="black" points="682.8,-122 679.8,-126 658.8,-126 655.8,-122 531.2,-122 531.2,-86 682.8,-86 682.8,-122"/>
<text text-anchor="middle" x="607" y="-99.8" font-family="Times,serif" font-size="14.00">HealthSpecialistModule</text>
</g>
<!-- HealthSpecialistModule&#45;&gt;GroupChatsModule -->
<g id="edge5" class="edge">
<title>HealthSpecialistModule&#45;&gt;GroupChatsModule</title>
<path fill="none" stroke="black" d="M653.52,-122.11C653.52,-122.11 653.52,-140.99 653.52,-140.99"/>
<polygon fill="black" stroke="black" points="650.02,-140.99 653.52,-150.99 657.02,-140.99 650.02,-140.99"/>
</g>
<!-- MessagesModule -->
<g id="node6" class="node">
<title>MessagesModule</title>
<polygon fill="#8dd3c7" stroke="black" points="512.97,-122 509.97,-126 488.97,-126 485.97,-122 399.03,-122 399.03,-86 512.97,-86 512.97,-122"/>
<text text-anchor="middle" x="456" y="-99.8" font-family="Times,serif" font-size="14.00">MessagesModule</text>
</g>
<!-- MessagesModule&#45;&gt;GroupChatsModule -->
<g id="edge6" class="edge">
<title>MessagesModule&#45;&gt;GroupChatsModule</title>
<path fill="none" stroke="black" d="M456,-122.01C456,-138.05 456,-159 456,-159 456,-159 614.3,-159 614.3,-159"/>
<polygon fill="black" stroke="black" points="614.3,-162.5 624.3,-159 614.3,-155.5 614.3,-162.5"/>
</g>
<!-- PatientModule -->
<g id="node7" class="node">
<title>PatientModule</title>
<polygon fill="#8dd3c7" stroke="black" points="381.43,-122 378.43,-126 357.43,-126 354.43,-122 282.57,-122 282.57,-86 381.43,-86 381.43,-122"/>
<text text-anchor="middle" x="332" y="-99.8" font-family="Times,serif" font-size="14.00">PatientModule</text>
</g>
<!-- PatientModule&#45;&gt;GroupChatsModule -->
<g id="edge7" class="edge">
<title>PatientModule&#45;&gt;GroupChatsModule</title>
<path fill="none" stroke="black" d="M332,-122.27C332,-140.56 332,-166 332,-166 332,-166 614.35,-166 614.35,-166"/>
<polygon fill="black" stroke="black" points="614.35,-169.5 624.35,-166 614.35,-162.5 614.35,-169.5"/>
</g>
<!-- PrivateChatsModule -->
<g id="node8" class="node">
<title>PrivateChatsModule</title>
<polygon fill="#8dd3c7" stroke="black" points="264.59,-122 261.59,-126 240.59,-126 237.59,-122 133.41,-122 133.41,-86 264.59,-86 264.59,-122"/>
<text text-anchor="middle" x="199" y="-99.8" font-family="Times,serif" font-size="14.00">PrivateChatsModule</text>
</g>
<!-- PrivateChatsModule&#45;&gt;GroupChatsModule -->
<g id="edge8" class="edge">
<title>PrivateChatsModule&#45;&gt;GroupChatsModule</title>
<path fill="none" stroke="black" d="M199,-122.13C199,-142.57 199,-173 199,-173 199,-173 614.07,-173 614.07,-173"/>
<polygon fill="black" stroke="black" points="614.07,-176.5 624.07,-173 614.07,-169.5 614.07,-176.5"/>
</g>
<!-- UsersModule -->
<g id="node9" class="node">
<title>UsersModule</title>
<polygon fill="#8dd3c7" stroke="black" points="115.92,-122 112.92,-126 91.92,-126 88.92,-122 24.08,-122 24.08,-86 115.92,-86 115.92,-122"/>
<text text-anchor="middle" x="70" y="-99.8" font-family="Times,serif" font-size="14.00">UsersModule</text>
</g>
<!-- UsersModule&#45;&gt;GroupChatsModule -->
<g id="edge9" class="edge">
<title>UsersModule&#45;&gt;GroupChatsModule</title>
<path fill="none" stroke="black" d="M70,-122.01C70,-144.49 70,-180 70,-180 70,-180 614.19,-180 614.19,-180"/>
<polygon fill="black" stroke="black" points="614.19,-183.5 624.19,-180 614.19,-176.5 614.19,-183.5"/>
</g>
<!-- GroupChatsService  -->
<g id="node11" class="node">
<title>GroupChatsService </title>
<polygon fill="#fb8072" stroke="black" points="752.63,-252 623.37,-252 623.37,-216 752.63,-216 752.63,-252"/>
<text text-anchor="middle" x="688" y="-229.8" font-family="Times,serif" font-size="14.00">GroupChatsService </text>
</g>
<!-- GroupChatsModule&#45;&gt;GroupChatsService  -->
<g id="edge10" class="edge">
<title>GroupChatsModule&#45;&gt;GroupChatsService </title>
<path fill="none" stroke="black" stroke-dasharray="5,2" d="M688,-187.11C688,-187.11 688,-205.99 688,-205.99"/>
<polygon fill="black" stroke="black" points="684.5,-205.99 688,-215.99 691.5,-205.99 684.5,-205.99"/>
</g>
<!-- GroupChatsService -->
<g id="node12" class="node">
<title>GroupChatsService</title>
<ellipse fill="#fdb462" stroke="black" cx="1390" cy="-104" rx="86.82" ry="18"/>
<text text-anchor="middle" x="1390" y="-99.8" font-family="Times,serif" font-size="14.00">GroupChatsService</text>
</g>
<!-- GroupChatsService&#45;&gt;GroupChatsModule -->
<g id="edge11" class="edge">
<title>GroupChatsService&#45;&gt;GroupChatsModule</title>
<path fill="none" stroke="black" d="M1390,-122.01C1390,-144.49 1390,-180 1390,-180 1390,-180 761.85,-180 761.85,-180"/>
<polygon fill="black" stroke="black" points="761.85,-176.5 751.85,-180 761.85,-183.5 761.85,-176.5"/>
</g>
</g>
</svg>
