<?xml version="1.0" encoding="UTF-8" standalone="no"?>
<!DOCTYPE svg PUBLIC "-//W3C//DTD SVG 1.1//EN"
 "http://www.w3.org/Graphics/SVG/1.1/DTD/svg11.dtd">
<!-- Generated by graphviz version 2.47.0 (20210316.0004)
 -->
<!-- Title: dependencies Pages: 1 -->
<svg width="504pt" height="284pt"
 viewBox="0.00 0.00 504.00 284.00" xmlns="http://www.w3.org/2000/svg" xmlns:xlink="http://www.w3.org/1999/xlink">
<g id="graph0" class="graph" transform="scale(1 1) rotate(0) translate(4 280)">
<title>dependencies</title>
<polygon fill="white" stroke="transparent" points="-4,4 -4,-280 500,-280 500,4 -4,4"/>
<text text-anchor="start" x="227.01" y="-42.4" font-family="Times-12" font-weight="bold" font-size="14.00">Legend</text>
<polygon fill="#ffffb3" stroke="transparent" points="14,-10 14,-30 34,-30 34,-10 14,-10"/>
<text text-anchor="start" x="37.63" y="-15.4" font-family="Times-12" font-size="14.00"> &#160;Declarations</text>
<polygon fill="#8dd3c7" stroke="transparent" points="127,-10 127,-30 147,-30 147,-10 127,-10"/>
<text text-anchor="start" x="150.73" y="-15.4" font-family="Times-12" font-size="14.00"> &#160;Module</text>
<polygon fill="#80b1d3" stroke="transparent" points="213,-10 213,-30 233,-30 233,-10 213,-10"/>
<text text-anchor="start" x="236.78" y="-15.4" font-family="Times-12" font-size="14.00"> &#160;Bootstrap</text>
<polygon fill="#fdb462" stroke="transparent" points="310,-10 310,-30 330,-30 330,-10 310,-10"/>
<text text-anchor="start" x="333.67" y="-15.4" font-family="Times-12" font-size="14.00"> &#160;Providers</text>
<polygon fill="#fb8072" stroke="transparent" points="406,-10 406,-30 426,-30 426,-10 406,-10"/>
<text text-anchor="start" x="429.73" y="-15.4" font-family="Times-12" font-size="14.00"> &#160;Exports</text>
<g id="clust1" class="cluster">
<title>cluster_PatientModule</title>
<polygon fill="none" stroke="black" stroke-dasharray="1,5" points="38.5,-70 38.5,-268 457.5,-268 457.5,-70 38.5,-70"/>
</g>
<g id="clust4" class="cluster">
<title>cluster_PatientModule_exports</title>
<polygon fill="none" stroke="black" points="169.5,-208 169.5,-260 285.5,-260 285.5,-208 169.5,-208"/>
</g>
<g id="clust6" class="cluster">
<title>cluster_PatientModule_providers</title>
<polygon fill="none" stroke="black" points="299.5,-78 299.5,-130 449.5,-130 449.5,-78 299.5,-78"/>
</g>
<g id="clust3" class="cluster">
<title>cluster_PatientModule_imports</title>
<polygon fill="none" stroke="black" points="46.5,-78 46.5,-130 291.5,-130 291.5,-78 46.5,-78"/>
</g>
<!-- CommonModule -->
<g id="node1" class="node">
<title>CommonModule</title>
<polygon fill="#8dd3c7" stroke="black" points="283.17,-122 280.17,-126 259.17,-126 256.17,-122 171.83,-122 171.83,-86 283.17,-86 283.17,-122"/>
<text text-anchor="middle" x="227.5" y="-99.8" font-family="Times,serif" font-size="14.00">CommonModule</text>
</g>
<!-- PatientModule -->
<g id="node3" class="node">
<title>PatientModule</title>
<polygon fill="#8dd3c7" stroke="black" points="276.93,-187 273.93,-191 252.93,-191 249.93,-187 178.07,-187 178.07,-151 276.93,-151 276.93,-187"/>
<text text-anchor="middle" x="227.5" y="-164.8" font-family="Times,serif" font-size="14.00">PatientModule</text>
</g>
<!-- CommonModule&#45;&gt;PatientModule -->
<g id="edge1" class="edge">
<title>CommonModule&#45;&gt;PatientModule</title>
<path fill="none" stroke="black" d="M227.5,-122.11C227.5,-122.11 227.5,-140.99 227.5,-140.99"/>
<polygon fill="black" stroke="black" points="224,-140.99 227.5,-150.99 231,-140.99 224,-140.99"/>
</g>
<!-- SettingModule -->
<g id="node2" class="node">
<title>SettingModule</title>
<polygon fill="#8dd3c7" stroke="black" points="154.22,-122 151.22,-126 130.22,-126 127.22,-122 54.78,-122 54.78,-86 154.22,-86 154.22,-122"/>
<text text-anchor="middle" x="104.5" y="-99.8" font-family="Times,serif" font-size="14.00">SettingModule</text>
</g>
<!-- SettingModule&#45;&gt;PatientModule -->
<g id="edge2" class="edge">
<title>SettingModule&#45;&gt;PatientModule</title>
<path fill="none" stroke="black" d="M104.5,-122.11C104.5,-141.34 104.5,-169 104.5,-169 104.5,-169 168.18,-169 168.18,-169"/>
<polygon fill="black" stroke="black" points="168.18,-172.5 178.18,-169 168.18,-165.5 168.18,-172.5"/>
</g>
<!-- PatientService  -->
<g id="node4" class="node">
<title>PatientService </title>
<polygon fill="#fb8072" stroke="black" points="277.86,-252 177.14,-252 177.14,-216 277.86,-216 277.86,-252"/>
<text text-anchor="middle" x="227.5" y="-229.8" font-family="Times,serif" font-size="14.00">PatientService </text>
</g>
<!-- PatientModule&#45;&gt;PatientService  -->
<g id="edge3" class="edge">
<title>PatientModule&#45;&gt;PatientService </title>
<path fill="none" stroke="black" stroke-dasharray="5,2" d="M227.5,-187.11C227.5,-187.11 227.5,-205.99 227.5,-205.99"/>
<polygon fill="black" stroke="black" points="224,-205.99 227.5,-215.99 231,-205.99 224,-205.99"/>
</g>
<!-- PatientService -->
<g id="node5" class="node">
<title>PatientService</title>
<ellipse fill="#fdb462" stroke="black" cx="374.5" cy="-104" rx="66.63" ry="18"/>
<text text-anchor="middle" x="374.5" y="-99.8" font-family="Times,serif" font-size="14.00">PatientService</text>
</g>
<!-- PatientService&#45;&gt;PatientModule -->
<g id="edge4" class="edge">
<title>PatientService&#45;&gt;PatientModule</title>
<path fill="none" stroke="black" d="M374.5,-122.11C374.5,-141.34 374.5,-169 374.5,-169 374.5,-169 286.86,-169 286.86,-169"/>
<polygon fill="black" stroke="black" points="286.86,-165.5 276.86,-169 286.86,-172.5 286.86,-165.5"/>
</g>
</g>
</svg>
