<?xml version="1.0" encoding="UTF-8" standalone="no"?>
<!DOCTYPE svg PUBLIC "-//W3C//DTD SVG 1.1//EN"
 "http://www.w3.org/Graphics/SVG/1.1/DTD/svg11.dtd">
<!-- Generated by graphviz version 2.47.0 (20210316.0004)
 -->
<!-- Title: dependencies Pages: 1 -->
<svg width="545pt" height="284pt"
 viewBox="0.00 0.00 545.00 284.00" xmlns="http://www.w3.org/2000/svg" xmlns:xlink="http://www.w3.org/1999/xlink">
<g id="graph0" class="graph" transform="scale(1 1) rotate(0) translate(4 280)">
<title>dependencies</title>
<polygon fill="white" stroke="transparent" points="-4,4 -4,-280 541,-280 541,4 -4,4"/>
<text text-anchor="start" x="247.51" y="-42.4" font-family="Times-12" font-weight="bold" font-size="14.00">Legend</text>
<polygon fill="#ffffb3" stroke="transparent" points="34.5,-10 34.5,-30 54.5,-30 54.5,-10 34.5,-10"/>
<text text-anchor="start" x="58.13" y="-15.4" font-family="Times-12" font-size="14.00"> &#160;Declarations</text>
<polygon fill="#8dd3c7" stroke="transparent" points="147.5,-10 147.5,-30 167.5,-30 167.5,-10 147.5,-10"/>
<text text-anchor="start" x="171.23" y="-15.4" font-family="Times-12" font-size="14.00"> &#160;Module</text>
<polygon fill="#80b1d3" stroke="transparent" points="233.5,-10 233.5,-30 253.5,-30 253.5,-10 233.5,-10"/>
<text text-anchor="start" x="257.28" y="-15.4" font-family="Times-12" font-size="14.00"> &#160;Bootstrap</text>
<polygon fill="#fdb462" stroke="transparent" points="330.5,-10 330.5,-30 350.5,-30 350.5,-10 330.5,-10"/>
<text text-anchor="start" x="354.17" y="-15.4" font-family="Times-12" font-size="14.00"> &#160;Providers</text>
<polygon fill="#fb8072" stroke="transparent" points="426.5,-10 426.5,-30 446.5,-30 446.5,-10 426.5,-10"/>
<text text-anchor="start" x="450.23" y="-15.4" font-family="Times-12" font-size="14.00"> &#160;Exports</text>
<g id="clust1" class="cluster">
<title>cluster_AvailabilitiesModule</title>
<polygon fill="none" stroke="black" stroke-dasharray="1,5" points="8,-70 8,-268 529,-268 529,-70 8,-70"/>
</g>
<g id="clust4" class="cluster">
<title>cluster_AvailabilitiesModule_exports</title>
<polygon fill="none" stroke="black" points="232,-208 232,-260 384,-260 384,-208 232,-208"/>
</g>
<g id="clust3" class="cluster">
<title>cluster_AvailabilitiesModule_imports</title>
<polygon fill="none" stroke="black" points="224,-78 224,-130 521,-130 521,-78 224,-78"/>
</g>
<g id="clust6" class="cluster">
<title>cluster_AvailabilitiesModule_providers</title>
<polygon fill="none" stroke="black" points="16,-78 16,-130 216,-130 216,-78 16,-78"/>
</g>
<!-- CommonModule -->
<g id="node1" class="node">
<title>CommonModule</title>
<polygon fill="#8dd3c7" stroke="black" points="512.67,-122 509.67,-126 488.67,-126 485.67,-122 401.33,-122 401.33,-86 512.67,-86 512.67,-122"/>
<text text-anchor="middle" x="457" y="-99.8" font-family="Times,serif" font-size="14.00">CommonModule</text>
</g>
<!-- AvailabilitiesModule -->
<g id="node3" class="node">
<title>AvailabilitiesModule</title>
<polygon fill="#8dd3c7" stroke="black" points="375.48,-187 372.48,-191 351.48,-191 348.48,-187 240.52,-187 240.52,-151 375.48,-151 375.48,-187"/>
<text text-anchor="middle" x="308" y="-164.8" font-family="Times,serif" font-size="14.00">AvailabilitiesModule</text>
</g>
<!-- CommonModule&#45;&gt;AvailabilitiesModule -->
<g id="edge1" class="edge">
<title>CommonModule&#45;&gt;AvailabilitiesModule</title>
<path fill="none" stroke="black" d="M457,-122.11C457,-141.34 457,-169 457,-169 457,-169 385.52,-169 385.52,-169"/>
<polygon fill="black" stroke="black" points="385.52,-165.5 375.52,-169 385.52,-172.5 385.52,-165.5"/>
</g>
<!-- HealthSpecialistModule -->
<g id="node2" class="node">
<title>HealthSpecialistModule</title>
<polygon fill="#8dd3c7" stroke="black" points="383.8,-122 380.8,-126 359.8,-126 356.8,-122 232.2,-122 232.2,-86 383.8,-86 383.8,-122"/>
<text text-anchor="middle" x="308" y="-99.8" font-family="Times,serif" font-size="14.00">HealthSpecialistModule</text>
</g>
<!-- HealthSpecialistModule&#45;&gt;AvailabilitiesModule -->
<g id="edge2" class="edge">
<title>HealthSpecialistModule&#45;&gt;AvailabilitiesModule</title>
<path fill="none" stroke="black" d="M308,-122.11C308,-122.11 308,-140.99 308,-140.99"/>
<polygon fill="black" stroke="black" points="304.5,-140.99 308,-150.99 311.5,-140.99 304.5,-140.99"/>
</g>
<!-- AvailabilitiesService  -->
<g id="node4" class="node">
<title>AvailabilitiesService </title>
<polygon fill="#fb8072" stroke="black" points="376.41,-252 239.59,-252 239.59,-216 376.41,-216 376.41,-252"/>
<text text-anchor="middle" x="308" y="-229.8" font-family="Times,serif" font-size="14.00">AvailabilitiesService </text>
</g>
<!-- AvailabilitiesModule&#45;&gt;AvailabilitiesService  -->
<g id="edge3" class="edge">
<title>AvailabilitiesModule&#45;&gt;AvailabilitiesService </title>
<path fill="none" stroke="black" stroke-dasharray="5,2" d="M308,-187.11C308,-187.11 308,-205.99 308,-205.99"/>
<polygon fill="black" stroke="black" points="304.5,-205.99 308,-215.99 311.5,-205.99 304.5,-205.99"/>
</g>
<!-- AvailabilitiesService -->
<g id="node5" class="node">
<title>AvailabilitiesService</title>
<ellipse fill="#fdb462" stroke="black" cx="116" cy="-104" rx="92.04" ry="18"/>
<text text-anchor="middle" x="116" y="-99.8" font-family="Times,serif" font-size="14.00">AvailabilitiesService</text>
</g>
<!-- AvailabilitiesService&#45;&gt;AvailabilitiesModule -->
<g id="edge4" class="edge">
<title>AvailabilitiesService&#45;&gt;AvailabilitiesModule</title>
<path fill="none" stroke="black" d="M116,-122.11C116,-141.34 116,-169 116,-169 116,-169 230.31,-169 230.31,-169"/>
<polygon fill="black" stroke="black" points="230.31,-172.5 240.31,-169 230.31,-165.5 230.31,-172.5"/>
</g>
</g>
</svg>
