<?xml version="1.0" encoding="UTF-8" standalone="no"?>
<!DOCTYPE svg PUBLIC "-//W3C//DTD SVG 1.1//EN"
 "http://www.w3.org/Graphics/SVG/1.1/DTD/svg11.dtd">
<!-- Generated by graphviz version 2.47.0 (20210316.0004)
 -->
<!-- Title: dependencies Pages: 1 -->
<svg width="504pt" height="284pt"
 viewBox="0.00 0.00 504.00 284.00" xmlns="http://www.w3.org/2000/svg" xmlns:xlink="http://www.w3.org/1999/xlink">
<g id="graph0" class="graph" transform="scale(1 1) rotate(0) translate(4 280)">
<title>dependencies</title>
<polygon fill="white" stroke="transparent" points="-4,4 -4,-280 500,-280 500,4 -4,4"/>
<text text-anchor="start" x="227.01" y="-42.4" font-family="Times-12" font-weight="bold" font-size="14.00">Legend</text>
<polygon fill="#ffffb3" stroke="transparent" points="14,-10 14,-30 34,-30 34,-10 14,-10"/>
<text text-anchor="start" x="37.63" y="-15.4" font-family="Times-12" font-size="14.00"> &#160;Declarations</text>
<polygon fill="#8dd3c7" stroke="transparent" points="127,-10 127,-30 147,-30 147,-10 127,-10"/>
<text text-anchor="start" x="150.73" y="-15.4" font-family="Times-12" font-size="14.00"> &#160;Module</text>
<polygon fill="#80b1d3" stroke="transparent" points="213,-10 213,-30 233,-30 233,-10 213,-10"/>
<text text-anchor="start" x="236.78" y="-15.4" font-family="Times-12" font-size="14.00"> &#160;Bootstrap</text>
<polygon fill="#fdb462" stroke="transparent" points="310,-10 310,-30 330,-30 330,-10 310,-10"/>
<text text-anchor="start" x="333.67" y="-15.4" font-family="Times-12" font-size="14.00"> &#160;Providers</text>
<polygon fill="#fb8072" stroke="transparent" points="406,-10 406,-30 426,-30 426,-10 406,-10"/>
<text text-anchor="start" x="429.73" y="-15.4" font-family="Times-12" font-size="14.00"> &#160;Exports</text>
<g id="clust1" class="cluster">
<title>cluster_AppStartUpModule</title>
<polygon fill="none" stroke="black" stroke-dasharray="1,5" points="78,-70 78,-268 418,-268 418,-70 78,-70"/>
</g>
<g id="clust6" class="cluster">
<title>cluster_AppStartUpModule_providers</title>
<polygon fill="none" stroke="black" points="86,-78 86,-130 410,-130 410,-78 86,-78"/>
</g>
<g id="clust4" class="cluster">
<title>cluster_AppStartUpModule_exports</title>
<polygon fill="none" stroke="black" points="121,-208 121,-260 373,-260 373,-208 121,-208"/>
</g>
<!-- EnvironmentService  -->
<g id="node1" class="node">
<title>EnvironmentService </title>
<polygon fill="#fb8072" stroke="black" points="365.08,-252 230.92,-252 230.92,-216 365.08,-216 365.08,-252"/>
<text text-anchor="middle" x="298" y="-229.8" font-family="Times,serif" font-size="14.00">EnvironmentService </text>
</g>
<!-- FileService  -->
<g id="node2" class="node">
<title>FileService </title>
<polygon fill="#fb8072" stroke="black" points="212.76,-252 129.24,-252 129.24,-216 212.76,-216 212.76,-252"/>
<text text-anchor="middle" x="171" y="-229.8" font-family="Times,serif" font-size="14.00">FileService </text>
</g>
<!-- AppStartUpModule -->
<g id="node3" class="node">
<title>AppStartUpModule</title>
<polygon fill="#8dd3c7" stroke="black" points="269.7,-187 266.7,-191 245.7,-191 242.7,-187 142.3,-187 142.3,-151 269.7,-151 269.7,-187"/>
<text text-anchor="middle" x="206" y="-164.8" font-family="Times,serif" font-size="14.00">AppStartUpModule</text>
</g>
<!-- AppStartUpModule&#45;&gt;EnvironmentService  -->
<g id="edge1" class="edge">
<title>AppStartUpModule&#45;&gt;EnvironmentService </title>
<path fill="none" stroke="black" stroke-dasharray="5,2" d="M250.16,-187.11C250.16,-187.11 250.16,-205.99 250.16,-205.99"/>
<polygon fill="black" stroke="black" points="246.66,-205.99 250.16,-215.99 253.66,-205.99 246.66,-205.99"/>
</g>
<!-- AppStartUpModule&#45;&gt;FileService  -->
<g id="edge2" class="edge">
<title>AppStartUpModule&#45;&gt;FileService </title>
<path fill="none" stroke="black" stroke-dasharray="5,2" d="M177.51,-187.11C177.51,-187.11 177.51,-205.99 177.51,-205.99"/>
<polygon fill="black" stroke="black" points="174.01,-205.99 177.51,-215.99 181.01,-205.99 174.01,-205.99"/>
</g>
<!-- EnvironmentService -->
<g id="node4" class="node">
<title>EnvironmentService</title>
<ellipse fill="#fdb462" stroke="black" cx="312" cy="-104" rx="90.33" ry="18"/>
<text text-anchor="middle" x="312" y="-99.8" font-family="Times,serif" font-size="14.00">EnvironmentService</text>
</g>
<!-- EnvironmentService&#45;&gt;AppStartUpModule -->
<g id="edge3" class="edge">
<title>EnvironmentService&#45;&gt;AppStartUpModule</title>
<path fill="none" stroke="black" d="M245.59,-116.23C245.59,-116.23 245.59,-140.68 245.59,-140.68"/>
<polygon fill="black" stroke="black" points="242.09,-140.68 245.59,-150.68 249.09,-140.68 242.09,-140.68"/>
</g>
<!-- FileService -->
<g id="node5" class="node">
<title>FileService</title>
<ellipse fill="#fdb462" stroke="black" cx="149" cy="-104" rx="55.03" ry="18"/>
<text text-anchor="middle" x="149" y="-99.8" font-family="Times,serif" font-size="14.00">FileService</text>
</g>
<!-- FileService&#45;&gt;AppStartUpModule -->
<g id="edge4" class="edge">
<title>FileService&#45;&gt;AppStartUpModule</title>
<path fill="none" stroke="black" d="M173.21,-120.4C173.21,-120.4 173.21,-140.54 173.21,-140.54"/>
<polygon fill="black" stroke="black" points="169.71,-140.54 173.21,-150.54 176.71,-140.54 169.71,-140.54"/>
</g>
</g>
</svg>
