<?xml version="1.0" encoding="UTF-8" standalone="no"?>
<!DOCTYPE svg PUBLIC "-//W3C//DTD SVG 1.1//EN"
 "http://www.w3.org/Graphics/SVG/1.1/DTD/svg11.dtd">
<!-- Generated by graphviz version 2.47.0 (20210316.0004)
 -->
<!-- Title: dependencies Pages: 1 -->
<svg width="897pt" height="284pt"
 viewBox="0.00 0.00 897.00 284.00" xmlns="http://www.w3.org/2000/svg" xmlns:xlink="http://www.w3.org/1999/xlink">
<g id="graph0" class="graph" transform="scale(1 1) rotate(0) translate(4 280)">
<title>dependencies</title>
<polygon fill="white" stroke="transparent" points="-4,4 -4,-280 893,-280 893,4 -4,4"/>
<text text-anchor="start" x="423.51" y="-42.4" font-family="Times-12" font-weight="bold" font-size="14.00">Legend</text>
<polygon fill="#ffffb3" stroke="transparent" points="210.5,-10 210.5,-30 230.5,-30 230.5,-10 210.5,-10"/>
<text text-anchor="start" x="234.13" y="-15.4" font-family="Times-12" font-size="14.00"> &#160;Declarations</text>
<polygon fill="#8dd3c7" stroke="transparent" points="323.5,-10 323.5,-30 343.5,-30 343.5,-10 323.5,-10"/>
<text text-anchor="start" x="347.23" y="-15.4" font-family="Times-12" font-size="14.00"> &#160;Module</text>
<polygon fill="#80b1d3" stroke="transparent" points="409.5,-10 409.5,-30 429.5,-30 429.5,-10 409.5,-10"/>
<text text-anchor="start" x="433.28" y="-15.4" font-family="Times-12" font-size="14.00"> &#160;Bootstrap</text>
<polygon fill="#fdb462" stroke="transparent" points="506.5,-10 506.5,-30 526.5,-30 526.5,-10 506.5,-10"/>
<text text-anchor="start" x="530.17" y="-15.4" font-family="Times-12" font-size="14.00"> &#160;Providers</text>
<polygon fill="#fb8072" stroke="transparent" points="602.5,-10 602.5,-30 622.5,-30 622.5,-10 602.5,-10"/>
<text text-anchor="start" x="626.23" y="-15.4" font-family="Times-12" font-size="14.00"> &#160;Exports</text>
<g id="clust1" class="cluster">
<title>cluster_MessagesModule</title>
<polygon fill="none" stroke="black" stroke-dasharray="1,5" points="8,-70 8,-268 881,-268 881,-70 8,-70"/>
</g>
<g id="clust6" class="cluster">
<title>cluster_MessagesModule_providers</title>
<polygon fill="none" stroke="black" points="523,-78 523,-130 873,-130 873,-78 523,-78"/>
</g>
<g id="clust4" class="cluster">
<title>cluster_MessagesModule_exports</title>
<polygon fill="none" stroke="black" points="248,-208 248,-260 518,-260 518,-208 248,-208"/>
</g>
<g id="clust3" class="cluster">
<title>cluster_MessagesModule_imports</title>
<polygon fill="none" stroke="black" points="16,-78 16,-130 515,-130 515,-78 16,-78"/>
</g>
<!-- CommonModule -->
<g id="node1" class="node">
<title>CommonModule</title>
<polygon fill="#8dd3c7" stroke="black" points="506.67,-122 503.67,-126 482.67,-126 479.67,-122 395.33,-122 395.33,-86 506.67,-86 506.67,-122"/>
<text text-anchor="middle" x="451" y="-99.8" font-family="Times,serif" font-size="14.00">CommonModule</text>
</g>
<!-- MessagesModule -->
<g id="node5" class="node">
<title>MessagesModule</title>
<polygon fill="#8dd3c7" stroke="black" points="438.97,-187 435.97,-191 414.97,-191 411.97,-187 325.03,-187 325.03,-151 438.97,-151 438.97,-187"/>
<text text-anchor="middle" x="382" y="-164.8" font-family="Times,serif" font-size="14.00">MessagesModule</text>
</g>
<!-- CommonModule&#45;&gt;MessagesModule -->
<g id="edge1" class="edge">
<title>CommonModule&#45;&gt;MessagesModule</title>
<path fill="none" stroke="black" d="M417.08,-122.11C417.08,-122.11 417.08,-140.99 417.08,-140.99"/>
<polygon fill="black" stroke="black" points="413.58,-140.99 417.08,-150.99 420.58,-140.99 413.58,-140.99"/>
</g>
<!-- NotificationModule -->
<g id="node2" class="node">
<title>NotificationModule</title>
<polygon fill="#8dd3c7" stroke="black" points="377.7,-122 374.7,-126 353.7,-126 350.7,-122 250.3,-122 250.3,-86 377.7,-86 377.7,-122"/>
<text text-anchor="middle" x="314" y="-99.8" font-family="Times,serif" font-size="14.00">NotificationModule</text>
</g>
<!-- NotificationModule&#45;&gt;MessagesModule -->
<g id="edge2" class="edge">
<title>NotificationModule&#45;&gt;MessagesModule</title>
<path fill="none" stroke="black" d="M351.31,-122.11C351.31,-122.11 351.31,-140.99 351.31,-140.99"/>
<polygon fill="black" stroke="black" points="347.81,-140.99 351.31,-150.99 354.81,-140.99 347.81,-140.99"/>
</g>
<!-- PatientModule -->
<g id="node3" class="node">
<title>PatientModule</title>
<polygon fill="#8dd3c7" stroke="black" points="232.43,-122 229.43,-126 208.43,-126 205.43,-122 133.57,-122 133.57,-86 232.43,-86 232.43,-122"/>
<text text-anchor="middle" x="183" y="-99.8" font-family="Times,serif" font-size="14.00">PatientModule</text>
</g>
<!-- PatientModule&#45;&gt;MessagesModule -->
<g id="edge3" class="edge">
<title>PatientModule&#45;&gt;MessagesModule</title>
<path fill="none" stroke="black" d="M183,-122.02C183,-139.37 183,-163 183,-163 183,-163 314.97,-163 314.97,-163"/>
<polygon fill="black" stroke="black" points="314.97,-166.5 324.97,-163 314.97,-159.5 314.97,-166.5"/>
</g>
<!-- UsersModule -->
<g id="node4" class="node">
<title>UsersModule</title>
<polygon fill="#8dd3c7" stroke="black" points="115.92,-122 112.92,-126 91.92,-126 88.92,-122 24.08,-122 24.08,-86 115.92,-86 115.92,-122"/>
<text text-anchor="middle" x="70" y="-99.8" font-family="Times,serif" font-size="14.00">UsersModule</text>
</g>
<!-- UsersModule&#45;&gt;MessagesModule -->
<g id="edge4" class="edge">
<title>UsersModule&#45;&gt;MessagesModule</title>
<path fill="none" stroke="black" d="M70,-122.28C70,-143.32 70,-175 70,-175 70,-175 314.77,-175 314.77,-175"/>
<polygon fill="black" stroke="black" points="314.77,-178.5 324.77,-175 314.77,-171.5 314.77,-178.5"/>
</g>
<!-- MessagesListener  -->
<g id="node6" class="node">
<title>MessagesListener </title>
<polygon fill="#fb8072" stroke="black" points="509.79,-252 390.21,-252 390.21,-216 509.79,-216 509.79,-252"/>
<text text-anchor="middle" x="450" y="-229.8" font-family="Times,serif" font-size="14.00">MessagesListener </text>
</g>
<!-- MessagesModule&#45;&gt;MessagesListener  -->
<g id="edge5" class="edge">
<title>MessagesModule&#45;&gt;MessagesListener </title>
<path fill="none" stroke="black" stroke-dasharray="5,2" d="M414.55,-187.11C414.55,-187.11 414.55,-205.99 414.55,-205.99"/>
<polygon fill="black" stroke="black" points="411.05,-205.99 414.55,-215.99 418.05,-205.99 411.05,-205.99"/>
</g>
<!-- MessagesService  -->
<g id="node7" class="node">
<title>MessagesService </title>
<polygon fill="#fb8072" stroke="black" points="371.9,-252 256.1,-252 256.1,-216 371.9,-216 371.9,-252"/>
<text text-anchor="middle" x="314" y="-229.8" font-family="Times,serif" font-size="14.00">MessagesService </text>
</g>
<!-- MessagesModule&#45;&gt;MessagesService  -->
<g id="edge6" class="edge">
<title>MessagesModule&#45;&gt;MessagesService </title>
<path fill="none" stroke="black" stroke-dasharray="5,2" d="M348.48,-187.11C348.48,-187.11 348.48,-205.99 348.48,-205.99"/>
<polygon fill="black" stroke="black" points="344.98,-205.99 348.48,-215.99 351.98,-205.99 344.98,-205.99"/>
</g>
<!-- MessagesListener -->
<g id="node8" class="node">
<title>MessagesListener</title>
<ellipse fill="#fdb462" stroke="black" cx="785" cy="-104" rx="80.43" ry="18"/>
<text text-anchor="middle" x="785" y="-99.8" font-family="Times,serif" font-size="14.00">MessagesListener</text>
</g>
<!-- MessagesListener&#45;&gt;MessagesModule -->
<g id="edge7" class="edge">
<title>MessagesListener&#45;&gt;MessagesModule</title>
<path fill="none" stroke="black" d="M785,-122.28C785,-143.32 785,-175 785,-175 785,-175 449.31,-175 449.31,-175"/>
<polygon fill="black" stroke="black" points="449.31,-171.5 439.31,-175 449.31,-178.5 449.31,-171.5"/>
</g>
<!-- MessagesService -->
<g id="node9" class="node">
<title>MessagesService</title>
<ellipse fill="#fdb462" stroke="black" cx="609" cy="-104" rx="77.56" ry="18"/>
<text text-anchor="middle" x="609" y="-99.8" font-family="Times,serif" font-size="14.00">MessagesService</text>
</g>
<!-- MessagesService&#45;&gt;MessagesModule -->
<g id="edge8" class="edge">
<title>MessagesService&#45;&gt;MessagesModule</title>
<path fill="none" stroke="black" d="M609,-122.02C609,-139.37 609,-163 609,-163 609,-163 448.99,-163 448.99,-163"/>
<polygon fill="black" stroke="black" points="448.99,-159.5 438.99,-163 448.99,-166.5 448.99,-159.5"/>
</g>
</g>
</svg>
