<?xml version="1.0" encoding="UTF-8" standalone="no"?>
<!DOCTYPE svg PUBLIC "-//W3C//DTD SVG 1.1//EN"
 "http://www.w3.org/Graphics/SVG/1.1/DTD/svg11.dtd">
<!-- Generated by graphviz version 2.47.0 (20210316.0004)
 -->
<!-- Title: dependencies Pages: 1 -->
<svg width="504pt" height="284pt"
 viewBox="0.00 0.00 504.00 284.00" xmlns="http://www.w3.org/2000/svg" xmlns:xlink="http://www.w3.org/1999/xlink">
<g id="graph0" class="graph" transform="scale(1 1) rotate(0) translate(4 280)">
<title>dependencies</title>
<polygon fill="white" stroke="transparent" points="-4,4 -4,-280 500,-280 500,4 -4,4"/>
<text text-anchor="start" x="227.01" y="-42.4" font-family="Times-12" font-weight="bold" font-size="14.00">Legend</text>
<polygon fill="#ffffb3" stroke="transparent" points="14,-10 14,-30 34,-30 34,-10 14,-10"/>
<text text-anchor="start" x="37.63" y="-15.4" font-family="Times-12" font-size="14.00"> &#160;Declarations</text>
<polygon fill="#8dd3c7" stroke="transparent" points="127,-10 127,-30 147,-30 147,-10 127,-10"/>
<text text-anchor="start" x="150.73" y="-15.4" font-family="Times-12" font-size="14.00"> &#160;Module</text>
<polygon fill="#80b1d3" stroke="transparent" points="213,-10 213,-30 233,-30 233,-10 213,-10"/>
<text text-anchor="start" x="236.78" y="-15.4" font-family="Times-12" font-size="14.00"> &#160;Bootstrap</text>
<polygon fill="#fdb462" stroke="transparent" points="310,-10 310,-30 330,-30 330,-10 310,-10"/>
<text text-anchor="start" x="333.67" y="-15.4" font-family="Times-12" font-size="14.00"> &#160;Providers</text>
<polygon fill="#fb8072" stroke="transparent" points="406,-10 406,-30 426,-30 426,-10 406,-10"/>
<text text-anchor="start" x="429.73" y="-15.4" font-family="Times-12" font-size="14.00"> &#160;Exports</text>
<g id="clust1" class="cluster">
<title>cluster_RiskFactorsModule</title>
<polygon fill="none" stroke="black" stroke-dasharray="1,5" points="78,-70 78,-268 418,-268 418,-70 78,-70"/>
</g>
<g id="clust3" class="cluster">
<title>cluster_RiskFactorsModule_imports</title>
<polygon fill="none" stroke="black" points="282,-78 282,-130 410,-130 410,-78 282,-78"/>
</g>
<g id="clust4" class="cluster">
<title>cluster_RiskFactorsModule_exports</title>
<polygon fill="none" stroke="black" points="187,-208 187,-260 331,-260 331,-208 187,-208"/>
</g>
<g id="clust6" class="cluster">
<title>cluster_RiskFactorsModule_providers</title>
<polygon fill="none" stroke="black" points="86,-78 86,-130 274,-130 274,-78 86,-78"/>
</g>
<!-- CommonModule -->
<g id="node1" class="node">
<title>CommonModule</title>
<polygon fill="#8dd3c7" stroke="black" points="401.67,-122 398.67,-126 377.67,-126 374.67,-122 290.33,-122 290.33,-86 401.67,-86 401.67,-122"/>
<text text-anchor="middle" x="346" y="-99.8" font-family="Times,serif" font-size="14.00">CommonModule</text>
</g>
<!-- RiskFactorsModule -->
<g id="node2" class="node">
<title>RiskFactorsModule</title>
<polygon fill="#8dd3c7" stroke="black" points="322.43,-187 319.43,-191 298.43,-191 295.43,-187 195.57,-187 195.57,-151 322.43,-151 322.43,-187"/>
<text text-anchor="middle" x="259" y="-164.8" font-family="Times,serif" font-size="14.00">RiskFactorsModule</text>
</g>
<!-- CommonModule&#45;&gt;RiskFactorsModule -->
<g id="edge1" class="edge">
<title>CommonModule&#45;&gt;RiskFactorsModule</title>
<path fill="none" stroke="black" d="M306.19,-122.11C306.19,-122.11 306.19,-140.99 306.19,-140.99"/>
<polygon fill="black" stroke="black" points="302.69,-140.99 306.19,-150.99 309.69,-140.99 302.69,-140.99"/>
</g>
<!-- RiskFactorsService  -->
<g id="node3" class="node">
<title>RiskFactorsService </title>
<polygon fill="#fb8072" stroke="black" points="323.36,-252 194.64,-252 194.64,-216 323.36,-216 323.36,-252"/>
<text text-anchor="middle" x="259" y="-229.8" font-family="Times,serif" font-size="14.00">RiskFactorsService </text>
</g>
<!-- RiskFactorsModule&#45;&gt;RiskFactorsService  -->
<g id="edge2" class="edge">
<title>RiskFactorsModule&#45;&gt;RiskFactorsService </title>
<path fill="none" stroke="black" stroke-dasharray="5,2" d="M259,-187.11C259,-187.11 259,-205.99 259,-205.99"/>
<polygon fill="black" stroke="black" points="255.5,-205.99 259,-215.99 262.5,-205.99 255.5,-205.99"/>
</g>
<!-- RiskFactorsService -->
<g id="node4" class="node">
<title>RiskFactorsService</title>
<ellipse fill="#fdb462" stroke="black" cx="180" cy="-104" rx="86.25" ry="18"/>
<text text-anchor="middle" x="180" y="-99.8" font-family="Times,serif" font-size="14.00">RiskFactorsService</text>
</g>
<!-- RiskFactorsService&#45;&gt;RiskFactorsModule -->
<g id="edge3" class="edge">
<title>RiskFactorsService&#45;&gt;RiskFactorsModule</title>
<path fill="none" stroke="black" d="M230.95,-118.75C230.95,-118.75 230.95,-140.59 230.95,-140.59"/>
<polygon fill="black" stroke="black" points="227.45,-140.59 230.95,-150.59 234.45,-140.59 227.45,-140.59"/>
</g>
</g>
</svg>
