<?xml version="1.0" encoding="UTF-8" standalone="no"?>
<!DOCTYPE svg PUBLIC "-//W3C//DTD SVG 1.1//EN"
 "http://www.w3.org/Graphics/SVG/1.1/DTD/svg11.dtd">
<!-- Generated by graphviz version 2.47.0 (20210316.0004)
 -->
<!-- Title: dependencies Pages: 1 -->
<svg width="667pt" height="284pt"
 viewBox="0.00 0.00 667.00 284.00" xmlns="http://www.w3.org/2000/svg" xmlns:xlink="http://www.w3.org/1999/xlink">
<g id="graph0" class="graph" transform="scale(1 1) rotate(0) translate(4 280)">
<title>dependencies</title>
<polygon fill="white" stroke="transparent" points="-4,4 -4,-280 663,-280 663,4 -4,4"/>
<text text-anchor="start" x="308.51" y="-42.4" font-family="Times-12" font-weight="bold" font-size="14.00">Legend</text>
<polygon fill="#ffffb3" stroke="transparent" points="95.5,-10 95.5,-30 115.5,-30 115.5,-10 95.5,-10"/>
<text text-anchor="start" x="119.13" y="-15.4" font-family="Times-12" font-size="14.00"> &#160;Declarations</text>
<polygon fill="#8dd3c7" stroke="transparent" points="208.5,-10 208.5,-30 228.5,-30 228.5,-10 208.5,-10"/>
<text text-anchor="start" x="232.23" y="-15.4" font-family="Times-12" font-size="14.00"> &#160;Module</text>
<polygon fill="#80b1d3" stroke="transparent" points="294.5,-10 294.5,-30 314.5,-30 314.5,-10 294.5,-10"/>
<text text-anchor="start" x="318.28" y="-15.4" font-family="Times-12" font-size="14.00"> &#160;Bootstrap</text>
<polygon fill="#fdb462" stroke="transparent" points="391.5,-10 391.5,-30 411.5,-30 411.5,-10 391.5,-10"/>
<text text-anchor="start" x="415.17" y="-15.4" font-family="Times-12" font-size="14.00"> &#160;Providers</text>
<polygon fill="#fb8072" stroke="transparent" points="487.5,-10 487.5,-30 507.5,-30 507.5,-10 487.5,-10"/>
<text text-anchor="start" x="511.23" y="-15.4" font-family="Times-12" font-size="14.00"> &#160;Exports</text>
<g id="clust1" class="cluster">
<title>cluster_HealthSpecialistModule</title>
<polygon fill="none" stroke="black" stroke-dasharray="1,5" points="8,-70 8,-268 651,-268 651,-70 8,-70"/>
</g>
<g id="clust3" class="cluster">
<title>cluster_HealthSpecialistModule_imports</title>
<polygon fill="none" stroke="black" points="398,-78 398,-130 643,-130 643,-78 398,-78"/>
</g>
<g id="clust6" class="cluster">
<title>cluster_HealthSpecialistModule_providers</title>
<polygon fill="none" stroke="black" points="16,-78 16,-130 390,-130 390,-78 16,-78"/>
</g>
<g id="clust4" class="cluster">
<title>cluster_HealthSpecialistModule_exports</title>
<polygon fill="none" stroke="black" points="282,-208 282,-260 452,-260 452,-208 282,-208"/>
</g>
<!-- CommonModule -->
<g id="node1" class="node">
<title>CommonModule</title>
<polygon fill="#8dd3c7" stroke="black" points="634.67,-122 631.67,-126 610.67,-126 607.67,-122 523.33,-122 523.33,-86 634.67,-86 634.67,-122"/>
<text text-anchor="middle" x="579" y="-99.8" font-family="Times,serif" font-size="14.00">CommonModule</text>
</g>
<!-- HealthSpecialistModule -->
<g id="node3" class="node">
<title>HealthSpecialistModule</title>
<polygon fill="#8dd3c7" stroke="black" points="442.8,-187 439.8,-191 418.8,-191 415.8,-187 291.2,-187 291.2,-151 442.8,-151 442.8,-187"/>
<text text-anchor="middle" x="367" y="-164.8" font-family="Times,serif" font-size="14.00">HealthSpecialistModule</text>
</g>
<!-- CommonModule&#45;&gt;HealthSpecialistModule -->
<g id="edge1" class="edge">
<title>CommonModule&#45;&gt;HealthSpecialistModule</title>
<path fill="none" stroke="black" d="M579,-122.11C579,-141.34 579,-169 579,-169 579,-169 452.94,-169 452.94,-169"/>
<polygon fill="black" stroke="black" points="452.94,-165.5 442.94,-169 452.94,-172.5 452.94,-165.5"/>
</g>
<!-- SettingModule -->
<g id="node2" class="node">
<title>SettingModule</title>
<polygon fill="#8dd3c7" stroke="black" points="505.72,-122 502.72,-126 481.72,-126 478.72,-122 406.28,-122 406.28,-86 505.72,-86 505.72,-122"/>
<text text-anchor="middle" x="456" y="-99.8" font-family="Times,serif" font-size="14.00">SettingModule</text>
</g>
<!-- SettingModule&#45;&gt;HealthSpecialistModule -->
<g id="edge2" class="edge">
<title>SettingModule&#45;&gt;HealthSpecialistModule</title>
<path fill="none" stroke="black" d="M424.52,-122.11C424.52,-122.11 424.52,-140.99 424.52,-140.99"/>
<polygon fill="black" stroke="black" points="421.02,-140.99 424.52,-150.99 428.02,-140.99 421.02,-140.99"/>
</g>
<!-- HealthSpecialistService  -->
<g id="node4" class="node">
<title>HealthSpecialistService </title>
<polygon fill="#fb8072" stroke="black" points="443.73,-252 290.27,-252 290.27,-216 443.73,-216 443.73,-252"/>
<text text-anchor="middle" x="367" y="-229.8" font-family="Times,serif" font-size="14.00">HealthSpecialistService </text>
</g>
<!-- HealthSpecialistModule&#45;&gt;HealthSpecialistService  -->
<g id="edge3" class="edge">
<title>HealthSpecialistModule&#45;&gt;HealthSpecialistService </title>
<path fill="none" stroke="black" stroke-dasharray="5,2" d="M367,-187.11C367,-187.11 367,-205.99 367,-205.99"/>
<polygon fill="black" stroke="black" points="363.5,-205.99 367,-215.99 370.5,-205.99 363.5,-205.99"/>
</g>
<!-- HealthSpecialistService -->
<g id="node5" class="node">
<title>HealthSpecialistService</title>
<ellipse fill="#fdb462" stroke="black" cx="279" cy="-104" rx="103.06" ry="18"/>
<text text-anchor="middle" x="279" y="-99.8" font-family="Times,serif" font-size="14.00">HealthSpecialistService</text>
</g>
<!-- HealthSpecialistService&#45;&gt;HealthSpecialistModule -->
<g id="edge4" class="edge">
<title>HealthSpecialistService&#45;&gt;HealthSpecialistModule</title>
<path fill="none" stroke="black" d="M336.81,-119.08C336.81,-119.08 336.81,-140.76 336.81,-140.76"/>
<polygon fill="black" stroke="black" points="333.31,-140.76 336.81,-150.76 340.31,-140.76 333.31,-140.76"/>
</g>
<!-- PrismaService -->
<g id="node6" class="node">
<title>PrismaService</title>
<ellipse fill="#fdb462" stroke="black" cx="91" cy="-104" rx="66.63" ry="18"/>
<text text-anchor="middle" x="91" y="-99.8" font-family="Times,serif" font-size="14.00">PrismaService</text>
</g>
<!-- PrismaService&#45;&gt;HealthSpecialistModule -->
<g id="edge5" class="edge">
<title>PrismaService&#45;&gt;HealthSpecialistModule</title>
<path fill="none" stroke="black" d="M91,-122.11C91,-141.34 91,-169 91,-169 91,-169 281.22,-169 281.22,-169"/>
<polygon fill="black" stroke="black" points="281.22,-172.5 291.22,-169 281.22,-165.5 281.22,-172.5"/>
</g>
</g>
</svg>
