<?xml version="1.0" encoding="UTF-8" standalone="no"?>
<!DOCTYPE svg PUBLIC "-//W3C//DTD SVG 1.1//EN"
 "http://www.w3.org/Graphics/SVG/1.1/DTD/svg11.dtd">
<!-- Generated by graphviz version 2.47.0 (20210316.0004)
 -->
<!-- Title: dependencies Pages: 1 -->
<svg width="504pt" height="284pt"
 viewBox="0.00 0.00 504.00 284.00" xmlns="http://www.w3.org/2000/svg" xmlns:xlink="http://www.w3.org/1999/xlink">
<g id="graph0" class="graph" transform="scale(1 1) rotate(0) translate(4 280)">
<title>dependencies</title>
<polygon fill="white" stroke="transparent" points="-4,4 -4,-280 500,-280 500,4 -4,4"/>
<text text-anchor="start" x="227.01" y="-42.4" font-family="Times-12" font-weight="bold" font-size="14.00">Legend</text>
<polygon fill="#ffffb3" stroke="transparent" points="14,-10 14,-30 34,-30 34,-10 14,-10"/>
<text text-anchor="start" x="37.63" y="-15.4" font-family="Times-12" font-size="14.00"> &#160;Declarations</text>
<polygon fill="#8dd3c7" stroke="transparent" points="127,-10 127,-30 147,-30 147,-10 127,-10"/>
<text text-anchor="start" x="150.73" y="-15.4" font-family="Times-12" font-size="14.00"> &#160;Module</text>
<polygon fill="#80b1d3" stroke="transparent" points="213,-10 213,-30 233,-30 233,-10 213,-10"/>
<text text-anchor="start" x="236.78" y="-15.4" font-family="Times-12" font-size="14.00"> &#160;Bootstrap</text>
<polygon fill="#fdb462" stroke="transparent" points="310,-10 310,-30 330,-30 330,-10 310,-10"/>
<text text-anchor="start" x="333.67" y="-15.4" font-family="Times-12" font-size="14.00"> &#160;Providers</text>
<polygon fill="#fb8072" stroke="transparent" points="406,-10 406,-30 426,-30 426,-10 406,-10"/>
<text text-anchor="start" x="429.73" y="-15.4" font-family="Times-12" font-size="14.00"> &#160;Exports</text>
<g id="clust1" class="cluster">
<title>cluster_AchievementsModule</title>
<polygon fill="none" stroke="black" stroke-dasharray="1,5" points="69,-70 69,-268 427,-268 427,-70 69,-70"/>
</g>
<g id="clust3" class="cluster">
<title>cluster_AchievementsModule_imports</title>
<polygon fill="none" stroke="black" points="291,-78 291,-130 419,-130 419,-78 291,-78"/>
</g>
<g id="clust4" class="cluster">
<title>cluster_AchievementsModule_exports</title>
<polygon fill="none" stroke="black" points="181,-208 181,-260 339,-260 339,-208 181,-208"/>
</g>
<g id="clust6" class="cluster">
<title>cluster_AchievementsModule_providers</title>
<polygon fill="none" stroke="black" points="77,-78 77,-130 283,-130 283,-78 77,-78"/>
</g>
<!-- CommonModule -->
<g id="node1" class="node">
<title>CommonModule</title>
<polygon fill="#8dd3c7" stroke="black" points="410.67,-122 407.67,-126 386.67,-126 383.67,-122 299.33,-122 299.33,-86 410.67,-86 410.67,-122"/>
<text text-anchor="middle" x="355" y="-99.8" font-family="Times,serif" font-size="14.00">CommonModule</text>
</g>
<!-- AchievementsModule -->
<g id="node2" class="node">
<title>AchievementsModule</title>
<polygon fill="#8dd3c7" stroke="black" points="329.63,-187 326.63,-191 305.63,-191 302.63,-187 190.37,-187 190.37,-151 329.63,-151 329.63,-187"/>
<text text-anchor="middle" x="260" y="-164.8" font-family="Times,serif" font-size="14.00">AchievementsModule</text>
</g>
<!-- CommonModule&#45;&gt;AchievementsModule -->
<g id="edge1" class="edge">
<title>CommonModule&#45;&gt;AchievementsModule</title>
<path fill="none" stroke="black" d="M314.49,-122.11C314.49,-122.11 314.49,-140.99 314.49,-140.99"/>
<polygon fill="black" stroke="black" points="310.99,-140.99 314.49,-150.99 317.99,-140.99 310.99,-140.99"/>
</g>
<!-- AchievementsService  -->
<g id="node3" class="node">
<title>AchievementsService </title>
<polygon fill="#fb8072" stroke="black" points="330.56,-252 189.44,-252 189.44,-216 330.56,-216 330.56,-252"/>
<text text-anchor="middle" x="260" y="-229.8" font-family="Times,serif" font-size="14.00">AchievementsService </text>
</g>
<!-- AchievementsModule&#45;&gt;AchievementsService  -->
<g id="edge2" class="edge">
<title>AchievementsModule&#45;&gt;AchievementsService </title>
<path fill="none" stroke="black" stroke-dasharray="5,2" d="M260,-187.11C260,-187.11 260,-205.99 260,-205.99"/>
<polygon fill="black" stroke="black" points="256.5,-205.99 260,-215.99 263.5,-205.99 256.5,-205.99"/>
</g>
<!-- AchievementsService -->
<g id="node4" class="node">
<title>AchievementsService</title>
<ellipse fill="#fdb462" stroke="black" cx="180" cy="-104" rx="95.46" ry="18"/>
<text text-anchor="middle" x="180" y="-99.8" font-family="Times,serif" font-size="14.00">AchievementsService</text>
</g>
<!-- AchievementsService&#45;&gt;AchievementsModule -->
<g id="edge3" class="edge">
<title>AchievementsService&#45;&gt;AchievementsModule</title>
<path fill="none" stroke="black" d="M232.71,-119.08C232.71,-119.08 232.71,-140.76 232.71,-140.76"/>
<polygon fill="black" stroke="black" points="229.21,-140.76 232.71,-150.76 236.21,-140.76 229.21,-140.76"/>
</g>
</g>
</svg>
