<?xml version="1.0" encoding="UTF-8" standalone="no"?>
<!DOCTYPE svg PUBLIC "-//W3C//DTD SVG 1.1//EN"
 "http://www.w3.org/Graphics/SVG/1.1/DTD/svg11.dtd">
<!-- Generated by graphviz version 2.47.0 (20210316.0004)
 -->
<!-- Title: dependencies Pages: 1 -->
<svg width="1130pt" height="284pt"
 viewBox="0.00 0.00 1130.00 284.00" xmlns="http://www.w3.org/2000/svg" xmlns:xlink="http://www.w3.org/1999/xlink">
<g id="graph0" class="graph" transform="scale(1 1) rotate(0) translate(4 280)">
<title>dependencies</title>
<polygon fill="white" stroke="transparent" points="-4,4 -4,-280 1126,-280 1126,4 -4,4"/>
<text text-anchor="start" x="540.01" y="-42.4" font-family="Times-12" font-weight="bold" font-size="14.00">Legend</text>
<polygon fill="#ffffb3" stroke="transparent" points="327,-10 327,-30 347,-30 347,-10 327,-10"/>
<text text-anchor="start" x="350.63" y="-15.4" font-family="Times-12" font-size="14.00"> &#160;Declarations</text>
<polygon fill="#8dd3c7" stroke="transparent" points="440,-10 440,-30 460,-30 460,-10 440,-10"/>
<text text-anchor="start" x="463.73" y="-15.4" font-family="Times-12" font-size="14.00"> &#160;Module</text>
<polygon fill="#80b1d3" stroke="transparent" points="526,-10 526,-30 546,-30 546,-10 526,-10"/>
<text text-anchor="start" x="549.78" y="-15.4" font-family="Times-12" font-size="14.00"> &#160;Bootstrap</text>
<polygon fill="#fdb462" stroke="transparent" points="623,-10 623,-30 643,-30 643,-10 623,-10"/>
<text text-anchor="start" x="646.67" y="-15.4" font-family="Times-12" font-size="14.00"> &#160;Providers</text>
<polygon fill="#fb8072" stroke="transparent" points="719,-10 719,-30 739,-30 739,-10 719,-10"/>
<text text-anchor="start" x="742.73" y="-15.4" font-family="Times-12" font-size="14.00"> &#160;Exports</text>
<g id="clust1" class="cluster">
<title>cluster_SocketModule</title>
<polygon fill="none" stroke="black" stroke-dasharray="1,5" points="8,-70 8,-268 1114,-268 1114,-70 8,-70"/>
</g>
<g id="clust3" class="cluster">
<title>cluster_SocketModule_imports</title>
<polygon fill="none" stroke="black" points="172,-78 172,-130 1106,-130 1106,-78 172,-78"/>
</g>
<g id="clust4" class="cluster">
<title>cluster_SocketModule_exports</title>
<polygon fill="none" stroke="black" points="527,-208 527,-260 643,-260 643,-208 527,-208"/>
</g>
<g id="clust6" class="cluster">
<title>cluster_SocketModule_providers</title>
<polygon fill="none" stroke="black" points="16,-78 16,-130 164,-130 164,-78 16,-78"/>
</g>
<!-- CommonModule -->
<g id="node1" class="node">
<title>CommonModule</title>
<polygon fill="#8dd3c7" stroke="black" points="1097.67,-122 1094.67,-126 1073.67,-126 1070.67,-122 986.33,-122 986.33,-86 1097.67,-86 1097.67,-122"/>
<text text-anchor="middle" x="1042" y="-99.8" font-family="Times,serif" font-size="14.00">CommonModule</text>
</g>
<!-- SocketModule -->
<g id="node7" class="node">
<title>SocketModule</title>
<polygon fill="#8dd3c7" stroke="black" points="633.65,-187 630.65,-191 609.65,-191 606.65,-187 536.35,-187 536.35,-151 633.65,-151 633.65,-187"/>
<text text-anchor="middle" x="585" y="-164.8" font-family="Times,serif" font-size="14.00">SocketModule</text>
</g>
<!-- CommonModule&#45;&gt;SocketModule -->
<g id="edge1" class="edge">
<title>CommonModule&#45;&gt;SocketModule</title>
<path fill="none" stroke="black" d="M1042,-122.29C1042,-144.21 1042,-178 1042,-178 1042,-178 643.91,-178 643.91,-178"/>
<polygon fill="black" stroke="black" points="643.91,-174.5 633.91,-178 643.91,-181.5 643.91,-174.5"/>
</g>
<!-- CommunityMessagesModule -->
<g id="node2" class="node">
<title>CommunityMessagesModule</title>
<polygon fill="#8dd3c7" stroke="black" points="968.37,-122 965.37,-126 944.37,-126 941.37,-122 787.63,-122 787.63,-86 968.37,-86 968.37,-122"/>
<text text-anchor="middle" x="878" y="-99.8" font-family="Times,serif" font-size="14.00">CommunityMessagesModule</text>
</g>
<!-- CommunityMessagesModule&#45;&gt;SocketModule -->
<g id="edge2" class="edge">
<title>CommunityMessagesModule&#45;&gt;SocketModule</title>
<path fill="none" stroke="black" d="M878,-122.11C878,-141.34 878,-169 878,-169 878,-169 643.71,-169 643.71,-169"/>
<polygon fill="black" stroke="black" points="643.71,-165.5 633.71,-169 643.71,-172.5 643.71,-165.5"/>
</g>
<!-- CravingsModule -->
<g id="node3" class="node">
<title>CravingsModule</title>
<polygon fill="#8dd3c7" stroke="black" points="770.1,-122 767.1,-126 746.1,-126 743.1,-122 659.9,-122 659.9,-86 770.1,-86 770.1,-122"/>
<text text-anchor="middle" x="715" y="-99.8" font-family="Times,serif" font-size="14.00">CravingsModule</text>
</g>
<!-- CravingsModule&#45;&gt;SocketModule -->
<g id="edge3" class="edge">
<title>CravingsModule&#45;&gt;SocketModule</title>
<path fill="none" stroke="black" d="M715,-122.03C715,-138.4 715,-160 715,-160 715,-160 643.78,-160 643.78,-160"/>
<polygon fill="black" stroke="black" points="643.78,-156.5 633.78,-160 643.78,-163.5 643.78,-156.5"/>
</g>
<!-- MessagesModule -->
<g id="node4" class="node">
<title>MessagesModule</title>
<polygon fill="#8dd3c7" stroke="black" points="641.97,-122 638.97,-126 617.97,-126 614.97,-122 528.03,-122 528.03,-86 641.97,-86 641.97,-122"/>
<text text-anchor="middle" x="585" y="-99.8" font-family="Times,serif" font-size="14.00">MessagesModule</text>
</g>
<!-- MessagesModule&#45;&gt;SocketModule -->
<g id="edge4" class="edge">
<title>MessagesModule&#45;&gt;SocketModule</title>
<path fill="none" stroke="black" d="M585,-122.11C585,-122.11 585,-140.99 585,-140.99"/>
<polygon fill="black" stroke="black" points="581.5,-140.99 585,-150.99 588.5,-140.99 581.5,-140.99"/>
</g>
<!-- PrivateChatMessagesModule -->
<g id="node5" class="node">
<title>PrivateChatMessagesModule</title>
<polygon fill="#8dd3c7" stroke="black" points="510.07,-122 507.07,-126 486.07,-126 483.07,-122 329.93,-122 329.93,-86 510.07,-86 510.07,-122"/>
<text text-anchor="middle" x="420" y="-99.8" font-family="Times,serif" font-size="14.00">PrivateChatMessagesModule</text>
</g>
<!-- PrivateChatMessagesModule&#45;&gt;SocketModule -->
<g id="edge5" class="edge">
<title>PrivateChatMessagesModule&#45;&gt;SocketModule</title>
<path fill="none" stroke="black" d="M420,-122.03C420,-138.4 420,-160 420,-160 420,-160 525.94,-160 525.94,-160"/>
<polygon fill="black" stroke="black" points="525.94,-163.5 535.94,-160 525.94,-156.5 525.94,-163.5"/>
</g>
<!-- PrivateChatsModule -->
<g id="node6" class="node">
<title>PrivateChatsModule</title>
<polygon fill="#8dd3c7" stroke="black" points="311.59,-122 308.59,-126 287.59,-126 284.59,-122 180.41,-122 180.41,-86 311.59,-86 311.59,-122"/>
<text text-anchor="middle" x="246" y="-99.8" font-family="Times,serif" font-size="14.00">PrivateChatsModule</text>
</g>
<!-- PrivateChatsModule&#45;&gt;SocketModule -->
<g id="edge6" class="edge">
<title>PrivateChatsModule&#45;&gt;SocketModule</title>
<path fill="none" stroke="black" d="M246,-122.11C246,-141.34 246,-169 246,-169 246,-169 526.07,-169 526.07,-169"/>
<polygon fill="black" stroke="black" points="526.07,-172.5 536.07,-169 526.07,-165.5 526.07,-172.5"/>
</g>
<!-- SocketService  -->
<g id="node8" class="node">
<title>SocketService </title>
<polygon fill="#fb8072" stroke="black" points="634.58,-252 535.42,-252 535.42,-216 634.58,-216 634.58,-252"/>
<text text-anchor="middle" x="585" y="-229.8" font-family="Times,serif" font-size="14.00">SocketService </text>
</g>
<!-- SocketModule&#45;&gt;SocketService  -->
<g id="edge7" class="edge">
<title>SocketModule&#45;&gt;SocketService </title>
<path fill="none" stroke="black" stroke-dasharray="5,2" d="M585,-187.11C585,-187.11 585,-205.99 585,-205.99"/>
<polygon fill="black" stroke="black" points="581.5,-205.99 585,-215.99 588.5,-205.99 581.5,-205.99"/>
</g>
<!-- SocketService -->
<g id="node9" class="node">
<title>SocketService</title>
<ellipse fill="#fdb462" stroke="black" cx="90" cy="-104" rx="66.05" ry="18"/>
<text text-anchor="middle" x="90" y="-99.8" font-family="Times,serif" font-size="14.00">SocketService</text>
</g>
<!-- SocketService&#45;&gt;SocketModule -->
<g id="edge8" class="edge">
<title>SocketService&#45;&gt;SocketModule</title>
<path fill="none" stroke="black" d="M90,-122.29C90,-144.21 90,-178 90,-178 90,-178 526.18,-178 526.18,-178"/>
<polygon fill="black" stroke="black" points="526.18,-181.5 536.18,-178 526.18,-174.5 526.18,-181.5"/>
</g>
</g>
</svg>
