<?xml version="1.0" encoding="UTF-8" standalone="no"?>
<!DOCTYPE svg PUBLIC "-//W3C//DTD SVG 1.1//EN"
 "http://www.w3.org/Graphics/SVG/1.1/DTD/svg11.dtd">
<!-- Generated by graphviz version 2.47.0 (20210316.0004)
 -->
<!-- Title: dependencies Pages: 1 -->
<svg width="1343pt" height="284pt"
 viewBox="0.00 0.00 1343.00 284.00" xmlns="http://www.w3.org/2000/svg" xmlns:xlink="http://www.w3.org/1999/xlink">
<g id="graph0" class="graph" transform="scale(1 1) rotate(0) translate(4 280)">
<title>dependencies</title>
<polygon fill="white" stroke="transparent" points="-4,4 -4,-280 1339,-280 1339,4 -4,4"/>
<text text-anchor="start" x="646.51" y="-42.4" font-family="Times-12" font-weight="bold" font-size="14.00">Legend</text>
<polygon fill="#ffffb3" stroke="transparent" points="433.5,-10 433.5,-30 453.5,-30 453.5,-10 433.5,-10"/>
<text text-anchor="start" x="457.13" y="-15.4" font-family="Times-12" font-size="14.00"> &#160;Declarations</text>
<polygon fill="#8dd3c7" stroke="transparent" points="546.5,-10 546.5,-30 566.5,-30 566.5,-10 546.5,-10"/>
<text text-anchor="start" x="570.23" y="-15.4" font-family="Times-12" font-size="14.00"> &#160;Module</text>
<polygon fill="#80b1d3" stroke="transparent" points="632.5,-10 632.5,-30 652.5,-30 652.5,-10 632.5,-10"/>
<text text-anchor="start" x="656.28" y="-15.4" font-family="Times-12" font-size="14.00"> &#160;Bootstrap</text>
<polygon fill="#fdb462" stroke="transparent" points="729.5,-10 729.5,-30 749.5,-30 749.5,-10 729.5,-10"/>
<text text-anchor="start" x="753.17" y="-15.4" font-family="Times-12" font-size="14.00"> &#160;Providers</text>
<polygon fill="#fb8072" stroke="transparent" points="825.5,-10 825.5,-30 845.5,-30 845.5,-10 825.5,-10"/>
<text text-anchor="start" x="849.23" y="-15.4" font-family="Times-12" font-size="14.00"> &#160;Exports</text>
<g id="clust1" class="cluster">
<title>cluster_AssessmentsModule</title>
<polygon fill="none" stroke="black" stroke-dasharray="1,5" points="8,-70 8,-268 1327,-268 1327,-70 8,-70"/>
</g>
<g id="clust3" class="cluster">
<title>cluster_AssessmentsModule_imports</title>
<polygon fill="none" stroke="black" points="218,-78 218,-130 1319,-130 1319,-78 218,-78"/>
</g>
<g id="clust6" class="cluster">
<title>cluster_AssessmentsModule_providers</title>
<polygon fill="none" stroke="black" points="16,-78 16,-130 210,-130 210,-78 16,-78"/>
</g>
<g id="clust4" class="cluster">
<title>cluster_AssessmentsModule_exports</title>
<polygon fill="none" stroke="black" points="658,-208 658,-260 808,-260 808,-208 658,-208"/>
</g>
<!-- AllergiesModule -->
<g id="node1" class="node">
<title>AllergiesModule</title>
<polygon fill="#8dd3c7" stroke="black" points="1311.36,-122 1308.36,-126 1287.36,-126 1284.36,-122 1200.64,-122 1200.64,-86 1311.36,-86 1311.36,-122"/>
<text text-anchor="middle" x="1256" y="-99.8" font-family="Times,serif" font-size="14.00">AllergiesModule</text>
</g>
<!-- AssessmentsModule -->
<g id="node9" class="node">
<title>AssessmentsModule</title>
<polygon fill="#8dd3c7" stroke="black" points="798.59,-187 795.59,-191 774.59,-191 771.59,-187 667.41,-187 667.41,-151 798.59,-151 798.59,-187"/>
<text text-anchor="middle" x="733" y="-164.8" font-family="Times,serif" font-size="14.00">AssessmentsModule</text>
</g>
<!-- AllergiesModule&#45;&gt;AssessmentsModule -->
<g id="edge1" class="edge">
<title>AllergiesModule&#45;&gt;AssessmentsModule</title>
<path fill="none" stroke="black" d="M1256,-122.01C1256,-144.49 1256,-180 1256,-180 1256,-180 808.71,-180 808.71,-180"/>
<polygon fill="black" stroke="black" points="808.71,-176.5 798.71,-180 808.71,-183.5 808.71,-176.5"/>
</g>
<!-- CommonModule -->
<g id="node2" class="node">
<title>CommonModule</title>
<polygon fill="#8dd3c7" stroke="black" points="1182.67,-122 1179.67,-126 1158.67,-126 1155.67,-122 1071.33,-122 1071.33,-86 1182.67,-86 1182.67,-122"/>
<text text-anchor="middle" x="1127" y="-99.8" font-family="Times,serif" font-size="14.00">CommonModule</text>
</g>
<!-- CommonModule&#45;&gt;AssessmentsModule -->
<g id="edge2" class="edge">
<title>CommonModule&#45;&gt;AssessmentsModule</title>
<path fill="none" stroke="black" d="M1127,-122.13C1127,-142.57 1127,-173 1127,-173 1127,-173 808.95,-173 808.95,-173"/>
<polygon fill="black" stroke="black" points="808.95,-169.5 798.95,-173 808.95,-176.5 808.95,-169.5"/>
</g>
<!-- FagerstromModule -->
<g id="node3" class="node">
<title>FagerstromModule</title>
<polygon fill="#8dd3c7" stroke="black" points="1053.81,-122 1050.81,-126 1029.81,-126 1026.81,-122 930.19,-122 930.19,-86 1053.81,-86 1053.81,-122"/>
<text text-anchor="middle" x="992" y="-99.8" font-family="Times,serif" font-size="14.00">FagerstromModule</text>
</g>
<!-- FagerstromModule&#45;&gt;AssessmentsModule -->
<g id="edge3" class="edge">
<title>FagerstromModule&#45;&gt;AssessmentsModule</title>
<path fill="none" stroke="black" d="M992,-122.27C992,-140.56 992,-166 992,-166 992,-166 808.69,-166 808.69,-166"/>
<polygon fill="black" stroke="black" points="808.69,-162.5 798.69,-166 808.69,-169.5 808.69,-162.5"/>
</g>
<!-- GroupsModule -->
<g id="node4" class="node">
<title>GroupsModule</title>
<polygon fill="#8dd3c7" stroke="black" points="912.26,-122 909.26,-126 888.26,-126 885.26,-122 811.74,-122 811.74,-86 912.26,-86 912.26,-122"/>
<text text-anchor="middle" x="862" y="-99.8" font-family="Times,serif" font-size="14.00">GroupsModule</text>
</g>
<!-- GroupsModule&#45;&gt;AssessmentsModule -->
<g id="edge4" class="edge">
<title>GroupsModule&#45;&gt;AssessmentsModule</title>
<path fill="none" stroke="black" d="M862,-122.01C862,-138.05 862,-159 862,-159 862,-159 808.63,-159 808.63,-159"/>
<polygon fill="black" stroke="black" points="808.63,-155.5 798.63,-159 808.63,-162.5 808.63,-155.5"/>
</g>
<!-- MotivationModule -->
<g id="node5" class="node">
<title>MotivationModule</title>
<polygon fill="#8dd3c7" stroke="black" points="793.77,-122 790.77,-126 769.77,-126 766.77,-122 672.23,-122 672.23,-86 793.77,-86 793.77,-122"/>
<text text-anchor="middle" x="733" y="-99.8" font-family="Times,serif" font-size="14.00">MotivationModule</text>
</g>
<!-- MotivationModule&#45;&gt;AssessmentsModule -->
<g id="edge5" class="edge">
<title>MotivationModule&#45;&gt;AssessmentsModule</title>
<path fill="none" stroke="black" d="M733,-122.11C733,-122.11 733,-140.99 733,-140.99"/>
<polygon fill="black" stroke="black" points="729.5,-140.99 733,-150.99 736.5,-140.99 729.5,-140.99"/>
</g>
<!-- RiskFactorsModule -->
<g id="node6" class="node">
<title>RiskFactorsModule</title>
<polygon fill="#8dd3c7" stroke="black" points="654.43,-122 651.43,-126 630.43,-126 627.43,-122 527.57,-122 527.57,-86 654.43,-86 654.43,-122"/>
<text text-anchor="middle" x="591" y="-99.8" font-family="Times,serif" font-size="14.00">RiskFactorsModule</text>
</g>
<!-- RiskFactorsModule&#45;&gt;AssessmentsModule -->
<g id="edge6" class="edge">
<title>RiskFactorsModule&#45;&gt;AssessmentsModule</title>
<path fill="none" stroke="black" d="M591,-122.01C591,-138.05 591,-159 591,-159 591,-159 657.4,-159 657.4,-159"/>
<polygon fill="black" stroke="black" points="657.4,-162.5 667.4,-159 657.4,-155.5 657.4,-162.5"/>
</g>
<!-- SmokingTriggersModule -->
<g id="node7" class="node">
<title>SmokingTriggersModule</title>
<polygon fill="#8dd3c7" stroke="black" points="509.54,-122 506.54,-126 485.54,-126 482.54,-122 352.46,-122 352.46,-86 509.54,-86 509.54,-122"/>
<text text-anchor="middle" x="431" y="-99.8" font-family="Times,serif" font-size="14.00">SmokingTriggersModule</text>
</g>
<!-- SmokingTriggersModule&#45;&gt;AssessmentsModule -->
<g id="edge7" class="edge">
<title>SmokingTriggersModule&#45;&gt;AssessmentsModule</title>
<path fill="none" stroke="black" d="M431,-122.27C431,-140.56 431,-166 431,-166 431,-166 657.1,-166 657.1,-166"/>
<polygon fill="black" stroke="black" points="657.1,-169.5 667.1,-166 657.1,-162.5 657.1,-169.5"/>
</g>
<!-- TobaccoModule -->
<g id="node8" class="node">
<title>TobaccoModule</title>
<polygon fill="#8dd3c7" stroke="black" points="333.75,-122 330.75,-126 309.75,-126 306.75,-122 226.25,-122 226.25,-86 333.75,-86 333.75,-122"/>
<text text-anchor="middle" x="280" y="-99.8" font-family="Times,serif" font-size="14.00">TobaccoModule</text>
</g>
<!-- TobaccoModule&#45;&gt;AssessmentsModule -->
<g id="edge8" class="edge">
<title>TobaccoModule&#45;&gt;AssessmentsModule</title>
<path fill="none" stroke="black" d="M280,-122.13C280,-142.57 280,-173 280,-173 280,-173 657.13,-173 657.13,-173"/>
<polygon fill="black" stroke="black" points="657.13,-176.5 667.13,-173 657.13,-169.5 657.13,-176.5"/>
</g>
<!-- AssessmentsService  -->
<g id="node10" class="node">
<title>AssessmentsService </title>
<polygon fill="#fb8072" stroke="black" points="799.52,-252 666.48,-252 666.48,-216 799.52,-216 799.52,-252"/>
<text text-anchor="middle" x="733" y="-229.8" font-family="Times,serif" font-size="14.00">AssessmentsService </text>
</g>
<!-- AssessmentsModule&#45;&gt;AssessmentsService  -->
<g id="edge9" class="edge">
<title>AssessmentsModule&#45;&gt;AssessmentsService </title>
<path fill="none" stroke="black" stroke-dasharray="5,2" d="M733,-187.11C733,-187.11 733,-205.99 733,-205.99"/>
<polygon fill="black" stroke="black" points="729.5,-205.99 733,-215.99 736.5,-205.99 729.5,-205.99"/>
</g>
<!-- AssessmentsService -->
<g id="node11" class="node">
<title>AssessmentsService</title>
<ellipse fill="#fdb462" stroke="black" cx="113" cy="-104" rx="89.18" ry="18"/>
<text text-anchor="middle" x="113" y="-99.8" font-family="Times,serif" font-size="14.00">AssessmentsService</text>
</g>
<!-- AssessmentsService&#45;&gt;AssessmentsModule -->
<g id="edge10" class="edge">
<title>AssessmentsService&#45;&gt;AssessmentsModule</title>
<path fill="none" stroke="black" d="M113,-122.01C113,-144.49 113,-180 113,-180 113,-180 657.24,-180 657.24,-180"/>
<polygon fill="black" stroke="black" points="657.24,-183.5 667.24,-180 657.24,-176.5 657.24,-183.5"/>
</g>
</g>
</svg>
