<?xml version="1.0" encoding="UTF-8" standalone="no"?>
<!DOCTYPE svg PUBLIC "-//W3C//DTD SVG 1.1//EN"
 "http://www.w3.org/Graphics/SVG/1.1/DTD/svg11.dtd">
<!-- Generated by graphviz version 2.47.0 (20210316.0004)
 -->
<!-- Title: dependencies Pages: 1 -->
<svg width="1399pt" height="284pt"
 viewBox="0.00 0.00 1399.00 284.00" xmlns="http://www.w3.org/2000/svg" xmlns:xlink="http://www.w3.org/1999/xlink">
<g id="graph0" class="graph" transform="scale(1 1) rotate(0) translate(4 280)">
<title>dependencies</title>
<polygon fill="white" stroke="transparent" points="-4,4 -4,-280 1395,-280 1395,4 -4,4"/>
<text text-anchor="start" x="674.51" y="-42.4" font-family="Times-12" font-weight="bold" font-size="14.00">Legend</text>
<polygon fill="#ffffb3" stroke="transparent" points="461.5,-10 461.5,-30 481.5,-30 481.5,-10 461.5,-10"/>
<text text-anchor="start" x="485.13" y="-15.4" font-family="Times-12" font-size="14.00"> &#160;Declarations</text>
<polygon fill="#8dd3c7" stroke="transparent" points="574.5,-10 574.5,-30 594.5,-30 594.5,-10 574.5,-10"/>
<text text-anchor="start" x="598.23" y="-15.4" font-family="Times-12" font-size="14.00"> &#160;Module</text>
<polygon fill="#80b1d3" stroke="transparent" points="660.5,-10 660.5,-30 680.5,-30 680.5,-10 660.5,-10"/>
<text text-anchor="start" x="684.28" y="-15.4" font-family="Times-12" font-size="14.00"> &#160;Bootstrap</text>
<polygon fill="#fdb462" stroke="transparent" points="757.5,-10 757.5,-30 777.5,-30 777.5,-10 757.5,-10"/>
<text text-anchor="start" x="781.17" y="-15.4" font-family="Times-12" font-size="14.00"> &#160;Providers</text>
<polygon fill="#fb8072" stroke="transparent" points="853.5,-10 853.5,-30 873.5,-30 873.5,-10 853.5,-10"/>
<text text-anchor="start" x="877.23" y="-15.4" font-family="Times-12" font-size="14.00"> &#160;Exports</text>
<g id="clust1" class="cluster">
<title>cluster_DiariesModule</title>
<polygon fill="none" stroke="black" stroke-dasharray="1,5" points="8,-70 8,-268 1383,-268 1383,-70 8,-70"/>
</g>
<g id="clust3" class="cluster">
<title>cluster_DiariesModule_imports</title>
<polygon fill="none" stroke="black" points="176,-78 176,-130 1375,-130 1375,-78 176,-78"/>
</g>
<g id="clust6" class="cluster">
<title>cluster_DiariesModule_providers</title>
<polygon fill="none" stroke="black" points="16,-78 16,-130 168,-130 168,-78 16,-78"/>
</g>
<g id="clust4" class="cluster">
<title>cluster_DiariesModule_exports</title>
<polygon fill="none" stroke="black" points="620,-208 620,-260 738,-260 738,-208 620,-208"/>
</g>
<!-- AchievementsModule -->
<g id="node1" class="node">
<title>AchievementsModule</title>
<polygon fill="#8dd3c7" stroke="black" points="1366.63,-122 1363.63,-126 1342.63,-126 1339.63,-122 1227.37,-122 1227.37,-86 1366.63,-86 1366.63,-122"/>
<text text-anchor="middle" x="1297" y="-99.8" font-family="Times,serif" font-size="14.00">AchievementsModule</text>
</g>
<!-- DiariesModule -->
<g id="node10" class="node">
<title>DiariesModule</title>
<polygon fill="#8dd3c7" stroke="black" points="728.97,-187 725.97,-191 704.97,-191 701.97,-187 629.03,-187 629.03,-151 728.97,-151 728.97,-187"/>
<text text-anchor="middle" x="679" y="-164.8" font-family="Times,serif" font-size="14.00">DiariesModule</text>
</g>
<!-- AchievementsModule&#45;&gt;DiariesModule -->
<g id="edge1" class="edge">
<title>AchievementsModule&#45;&gt;DiariesModule</title>
<path fill="none" stroke="black" d="M1297,-122.01C1297,-144.49 1297,-180 1297,-180 1297,-180 739.05,-180 739.05,-180"/>
<polygon fill="black" stroke="black" points="739.05,-176.5 729.05,-180 739.05,-183.5 739.05,-176.5"/>
</g>
<!-- ArticlesModule -->
<g id="node2" class="node">
<title>ArticlesModule</title>
<polygon fill="#8dd3c7" stroke="black" points="1208.86,-122 1205.86,-126 1184.86,-126 1181.86,-122 1105.14,-122 1105.14,-86 1208.86,-86 1208.86,-122"/>
<text text-anchor="middle" x="1157" y="-99.8" font-family="Times,serif" font-size="14.00">ArticlesModule</text>
</g>
<!-- ArticlesModule&#45;&gt;DiariesModule -->
<g id="edge2" class="edge">
<title>ArticlesModule&#45;&gt;DiariesModule</title>
<path fill="none" stroke="black" d="M1157,-122.13C1157,-142.57 1157,-173 1157,-173 1157,-173 739.25,-173 739.25,-173"/>
<polygon fill="black" stroke="black" points="739.25,-169.5 729.25,-173 739.25,-176.5 739.25,-169.5"/>
</g>
<!-- ChewingGumsModule -->
<g id="node3" class="node">
<title>ChewingGumsModule</title>
<polygon fill="#8dd3c7" stroke="black" points="1086.54,-122 1083.54,-126 1062.54,-126 1059.54,-122 943.46,-122 943.46,-86 1086.54,-86 1086.54,-122"/>
<text text-anchor="middle" x="1015" y="-99.8" font-family="Times,serif" font-size="14.00">ChewingGumsModule</text>
</g>
<!-- ChewingGumsModule&#45;&gt;DiariesModule -->
<g id="edge3" class="edge">
<title>ChewingGumsModule&#45;&gt;DiariesModule</title>
<path fill="none" stroke="black" d="M1015,-122.27C1015,-140.56 1015,-166 1015,-166 1015,-166 739.3,-166 739.3,-166"/>
<polygon fill="black" stroke="black" points="739.3,-162.5 729.3,-166 739.3,-169.5 739.3,-162.5"/>
</g>
<!-- CommonModule -->
<g id="node4" class="node">
<title>CommonModule</title>
<polygon fill="#8dd3c7" stroke="black" points="924.67,-122 921.67,-126 900.67,-126 897.67,-122 813.33,-122 813.33,-86 924.67,-86 924.67,-122"/>
<text text-anchor="middle" x="869" y="-99.8" font-family="Times,serif" font-size="14.00">CommonModule</text>
</g>
<!-- CommonModule&#45;&gt;DiariesModule -->
<g id="edge4" class="edge">
<title>CommonModule&#45;&gt;DiariesModule</title>
<path fill="none" stroke="black" d="M869,-122.01C869,-138.05 869,-159 869,-159 869,-159 739.42,-159 739.42,-159"/>
<polygon fill="black" stroke="black" points="739.42,-155.5 729.42,-159 739.42,-162.5 739.42,-155.5"/>
</g>
<!-- CravingsModule -->
<g id="node5" class="node">
<title>CravingsModule</title>
<polygon fill="#8dd3c7" stroke="black" points="795.1,-122 792.1,-126 771.1,-126 768.1,-122 684.9,-122 684.9,-86 795.1,-86 795.1,-122"/>
<text text-anchor="middle" x="740" y="-99.8" font-family="Times,serif" font-size="14.00">CravingsModule</text>
</g>
<!-- CravingsModule&#45;&gt;DiariesModule -->
<g id="edge5" class="edge">
<title>CravingsModule&#45;&gt;DiariesModule</title>
<path fill="none" stroke="black" d="M706.97,-122.11C706.97,-122.11 706.97,-140.99 706.97,-140.99"/>
<polygon fill="black" stroke="black" points="703.47,-140.99 706.97,-150.99 710.47,-140.99 703.47,-140.99"/>
</g>
<!-- MoodsModule -->
<g id="node6" class="node">
<title>MoodsModule</title>
<polygon fill="#8dd3c7" stroke="black" points="667.44,-122 664.44,-126 643.44,-126 640.44,-122 568.56,-122 568.56,-86 667.44,-86 667.44,-122"/>
<text text-anchor="middle" x="618" y="-99.8" font-family="Times,serif" font-size="14.00">MoodsModule</text>
</g>
<!-- MoodsModule&#45;&gt;DiariesModule -->
<g id="edge6" class="edge">
<title>MoodsModule&#45;&gt;DiariesModule</title>
<path fill="none" stroke="black" d="M648.12,-122.11C648.12,-122.11 648.12,-140.99 648.12,-140.99"/>
<polygon fill="black" stroke="black" points="644.62,-140.99 648.12,-150.99 651.62,-140.99 644.62,-140.99"/>
</g>
<!-- PatchesModule -->
<g id="node7" class="node">
<title>PatchesModule</title>
<polygon fill="#8dd3c7" stroke="black" points="551.31,-122 548.31,-126 527.31,-126 524.31,-122 448.69,-122 448.69,-86 551.31,-86 551.31,-122"/>
<text text-anchor="middle" x="500" y="-99.8" font-family="Times,serif" font-size="14.00">PatchesModule</text>
</g>
<!-- PatchesModule&#45;&gt;DiariesModule -->
<g id="edge7" class="edge">
<title>PatchesModule&#45;&gt;DiariesModule</title>
<path fill="none" stroke="black" d="M500,-122.01C500,-138.05 500,-159 500,-159 500,-159 618.66,-159 618.66,-159"/>
<polygon fill="black" stroke="black" points="618.66,-162.5 628.66,-159 618.66,-155.5 618.66,-162.5"/>
</g>
<!-- RelapsesModule -->
<g id="node8" class="node">
<title>RelapsesModule</title>
<polygon fill="#8dd3c7" stroke="black" points="430.81,-122 427.81,-126 406.81,-126 403.81,-122 321.19,-122 321.19,-86 430.81,-86 430.81,-122"/>
<text text-anchor="middle" x="376" y="-99.8" font-family="Times,serif" font-size="14.00">RelapsesModule</text>
</g>
<!-- RelapsesModule&#45;&gt;DiariesModule -->
<g id="edge8" class="edge">
<title>RelapsesModule&#45;&gt;DiariesModule</title>
<path fill="none" stroke="black" d="M376,-122.27C376,-140.56 376,-166 376,-166 376,-166 618.97,-166 618.97,-166"/>
<polygon fill="black" stroke="black" points="618.97,-169.5 628.97,-166 618.97,-162.5 618.97,-169.5"/>
</g>
<!-- SymptomsModule -->
<g id="node9" class="node">
<title>SymptomsModule</title>
<polygon fill="#8dd3c7" stroke="black" points="303.95,-122 300.95,-126 279.95,-126 276.95,-122 184.05,-122 184.05,-86 303.95,-86 303.95,-122"/>
<text text-anchor="middle" x="244" y="-99.8" font-family="Times,serif" font-size="14.00">SymptomsModule</text>
</g>
<!-- SymptomsModule&#45;&gt;DiariesModule -->
<g id="edge9" class="edge">
<title>SymptomsModule&#45;&gt;DiariesModule</title>
<path fill="none" stroke="black" d="M244,-122.13C244,-142.57 244,-173 244,-173 244,-173 618.68,-173 618.68,-173"/>
<polygon fill="black" stroke="black" points="618.68,-176.5 628.68,-173 618.67,-169.5 618.68,-176.5"/>
</g>
<!-- DiariesService  -->
<g id="node11" class="node">
<title>DiariesService </title>
<polygon fill="#fb8072" stroke="black" points="729.9,-252 628.1,-252 628.1,-216 729.9,-216 729.9,-252"/>
<text text-anchor="middle" x="679" y="-229.8" font-family="Times,serif" font-size="14.00">DiariesService </text>
</g>
<!-- DiariesModule&#45;&gt;DiariesService  -->
<g id="edge10" class="edge">
<title>DiariesModule&#45;&gt;DiariesService </title>
<path fill="none" stroke="black" stroke-dasharray="5,2" d="M679,-187.11C679,-187.11 679,-205.99 679,-205.99"/>
<polygon fill="black" stroke="black" points="675.5,-205.99 679,-215.99 682.5,-205.99 675.5,-205.99"/>
</g>
<!-- DiariesService -->
<g id="node12" class="node">
<title>DiariesService</title>
<ellipse fill="#fdb462" stroke="black" cx="92" cy="-104" rx="67.75" ry="18"/>
<text text-anchor="middle" x="92" y="-99.8" font-family="Times,serif" font-size="14.00">DiariesService</text>
</g>
<!-- DiariesService&#45;&gt;DiariesModule -->
<g id="edge11" class="edge">
<title>DiariesService&#45;&gt;DiariesModule</title>
<path fill="none" stroke="black" d="M92,-122.01C92,-144.49 92,-180 92,-180 92,-180 618.95,-180 618.95,-180"/>
<polygon fill="black" stroke="black" points="618.95,-183.5 628.95,-180 618.95,-176.5 618.95,-183.5"/>
</g>
</g>
</svg>
