<?xml version="1.0" encoding="UTF-8" standalone="no"?>
<!DOCTYPE svg PUBLIC "-//W3C//DTD SVG 1.1//EN"
 "http://www.w3.org/Graphics/SVG/1.1/DTD/svg11.dtd">
<!-- Generated by graphviz version 2.47.0 (20210316.0004)
 -->
<!-- Title: dependencies Pages: 1 -->
<svg width="515pt" height="284pt"
 viewBox="0.00 0.00 515.00 284.00" xmlns="http://www.w3.org/2000/svg" xmlns:xlink="http://www.w3.org/1999/xlink">
<g id="graph0" class="graph" transform="scale(1 1) rotate(0) translate(4 280)">
<title>dependencies</title>
<polygon fill="white" stroke="transparent" points="-4,4 -4,-280 511,-280 511,4 -4,4"/>
<text text-anchor="start" x="232.51" y="-42.4" font-family="Times-12" font-weight="bold" font-size="14.00">Legend</text>
<polygon fill="#ffffb3" stroke="transparent" points="19.5,-10 19.5,-30 39.5,-30 39.5,-10 19.5,-10"/>
<text text-anchor="start" x="43.13" y="-15.4" font-family="Times-12" font-size="14.00"> &#160;Declarations</text>
<polygon fill="#8dd3c7" stroke="transparent" points="132.5,-10 132.5,-30 152.5,-30 152.5,-10 132.5,-10"/>
<text text-anchor="start" x="156.23" y="-15.4" font-family="Times-12" font-size="14.00"> &#160;Module</text>
<polygon fill="#80b1d3" stroke="transparent" points="218.5,-10 218.5,-30 238.5,-30 238.5,-10 218.5,-10"/>
<text text-anchor="start" x="242.28" y="-15.4" font-family="Times-12" font-size="14.00"> &#160;Bootstrap</text>
<polygon fill="#fdb462" stroke="transparent" points="315.5,-10 315.5,-30 335.5,-30 335.5,-10 315.5,-10"/>
<text text-anchor="start" x="339.17" y="-15.4" font-family="Times-12" font-size="14.00"> &#160;Providers</text>
<polygon fill="#fb8072" stroke="transparent" points="411.5,-10 411.5,-30 431.5,-30 431.5,-10 411.5,-10"/>
<text text-anchor="start" x="435.23" y="-15.4" font-family="Times-12" font-size="14.00"> &#160;Exports</text>
<g id="clust1" class="cluster">
<title>cluster_CravingsModule</title>
<polygon fill="none" stroke="black" stroke-dasharray="1,5" points="8,-70 8,-268 499,-268 499,-70 8,-70"/>
</g>
<g id="clust3" class="cluster">
<title>cluster_CravingsModule_imports</title>
<polygon fill="none" stroke="black" points="363,-78 363,-130 491,-130 491,-78 363,-78"/>
</g>
<g id="clust6" class="cluster">
<title>cluster_CravingsModule_providers</title>
<polygon fill="none" stroke="black" points="16,-78 16,-130 355,-130 355,-78 16,-78"/>
</g>
<g id="clust4" class="cluster">
<title>cluster_CravingsModule_exports</title>
<polygon fill="none" stroke="black" points="139,-208 139,-260 401,-260 401,-208 139,-208"/>
</g>
<!-- CommonModule -->
<g id="node1" class="node">
<title>CommonModule</title>
<polygon fill="#8dd3c7" stroke="black" points="482.67,-122 479.67,-126 458.67,-126 455.67,-122 371.33,-122 371.33,-86 482.67,-86 482.67,-122"/>
<text text-anchor="middle" x="427" y="-99.8" font-family="Times,serif" font-size="14.00">CommonModule</text>
</g>
<!-- CravingsModule -->
<g id="node2" class="node">
<title>CravingsModule</title>
<polygon fill="#8dd3c7" stroke="black" points="324.1,-187 321.1,-191 300.1,-191 297.1,-187 213.9,-187 213.9,-151 324.1,-151 324.1,-187"/>
<text text-anchor="middle" x="269" y="-164.8" font-family="Times,serif" font-size="14.00">CravingsModule</text>
</g>
<!-- CommonModule&#45;&gt;CravingsModule -->
<g id="edge1" class="edge">
<title>CommonModule&#45;&gt;CravingsModule</title>
<path fill="none" stroke="black" d="M382.06,-122.11C382.06,-141.34 382.06,-169 382.06,-169 382.06,-169 334.21,-169 334.21,-169"/>
<polygon fill="black" stroke="black" points="334.21,-165.5 324.21,-169 334.21,-172.5 334.21,-165.5"/>
</g>
<!-- CravingsListener  -->
<g id="node3" class="node">
<title>CravingsListener </title>
<polygon fill="#fb8072" stroke="black" points="392.92,-252 277.08,-252 277.08,-216 392.92,-216 392.92,-252"/>
<text text-anchor="middle" x="335" y="-229.8" font-family="Times,serif" font-size="14.00">CravingsListener </text>
</g>
<!-- CravingsModule&#45;&gt;CravingsListener  -->
<g id="edge2" class="edge">
<title>CravingsModule&#45;&gt;CravingsListener </title>
<path fill="none" stroke="black" stroke-dasharray="5,2" d="M300.55,-187.11C300.55,-187.11 300.55,-205.99 300.55,-205.99"/>
<polygon fill="black" stroke="black" points="297.05,-205.99 300.55,-215.99 304.05,-205.99 297.05,-205.99"/>
</g>
<!-- CravingsService  -->
<g id="node4" class="node">
<title>CravingsService </title>
<polygon fill="#fb8072" stroke="black" points="259.02,-252 146.98,-252 146.98,-216 259.02,-216 259.02,-252"/>
<text text-anchor="middle" x="203" y="-229.8" font-family="Times,serif" font-size="14.00">CravingsService </text>
</g>
<!-- CravingsModule&#45;&gt;CravingsService  -->
<g id="edge3" class="edge">
<title>CravingsModule&#45;&gt;CravingsService </title>
<path fill="none" stroke="black" stroke-dasharray="5,2" d="M236.48,-187.11C236.48,-187.11 236.48,-205.99 236.48,-205.99"/>
<polygon fill="black" stroke="black" points="232.98,-205.99 236.48,-215.99 239.98,-205.99 232.98,-205.99"/>
</g>
<!-- CravingsListener -->
<g id="node5" class="node">
<title>CravingsListener</title>
<ellipse fill="#fdb462" stroke="black" cx="269" cy="-104" rx="77.58" ry="18"/>
<text text-anchor="middle" x="269" y="-99.8" font-family="Times,serif" font-size="14.00">CravingsListener</text>
</g>
<!-- CravingsListener&#45;&gt;CravingsModule -->
<g id="edge4" class="edge">
<title>CravingsListener&#45;&gt;CravingsModule</title>
<path fill="none" stroke="black" d="M269,-122.11C269,-122.11 269,-140.99 269,-140.99"/>
<polygon fill="black" stroke="black" points="265.5,-140.99 269,-150.99 272.5,-140.99 265.5,-140.99"/>
</g>
<!-- CravingsService -->
<g id="node6" class="node">
<title>CravingsService</title>
<ellipse fill="#fdb462" stroke="black" cx="99" cy="-104" rx="74.72" ry="18"/>
<text text-anchor="middle" x="99" y="-99.8" font-family="Times,serif" font-size="14.00">CravingsService</text>
</g>
<!-- CravingsService&#45;&gt;CravingsModule -->
<g id="edge5" class="edge">
<title>CravingsService&#45;&gt;CravingsModule</title>
<path fill="none" stroke="black" d="M160.42,-114.44C160.42,-132.82 160.42,-169 160.42,-169 160.42,-169 203.76,-169 203.76,-169"/>
<polygon fill="black" stroke="black" points="203.76,-172.5 213.76,-169 203.76,-165.5 203.76,-172.5"/>
</g>
</g>
</svg>
