<?xml version="1.0" encoding="UTF-8" standalone="no"?>
<!DOCTYPE svg PUBLIC "-//W3C//DTD SVG 1.1//EN"
 "http://www.w3.org/Graphics/SVG/1.1/DTD/svg11.dtd">
<!-- Generated by graphviz version 2.47.0 (20210316.0004)
 -->
<!-- Title: dependencies Pages: 1 -->
<svg width="504pt" height="284pt"
 viewBox="0.00 0.00 504.00 284.00" xmlns="http://www.w3.org/2000/svg" xmlns:xlink="http://www.w3.org/1999/xlink">
<g id="graph0" class="graph" transform="scale(1 1) rotate(0) translate(4 280)">
<title>dependencies</title>
<polygon fill="white" stroke="transparent" points="-4,4 -4,-280 500,-280 500,4 -4,4"/>
<text text-anchor="start" x="227.01" y="-42.4" font-family="Times-12" font-weight="bold" font-size="14.00">Legend</text>
<polygon fill="#ffffb3" stroke="transparent" points="14,-10 14,-30 34,-30 34,-10 14,-10"/>
<text text-anchor="start" x="37.63" y="-15.4" font-family="Times-12" font-size="14.00"> &#160;Declarations</text>
<polygon fill="#8dd3c7" stroke="transparent" points="127,-10 127,-30 147,-30 147,-10 127,-10"/>
<text text-anchor="start" x="150.73" y="-15.4" font-family="Times-12" font-size="14.00"> &#160;Module</text>
<polygon fill="#80b1d3" stroke="transparent" points="213,-10 213,-30 233,-30 233,-10 213,-10"/>
<text text-anchor="start" x="236.78" y="-15.4" font-family="Times-12" font-size="14.00"> &#160;Bootstrap</text>
<polygon fill="#fdb462" stroke="transparent" points="310,-10 310,-30 330,-30 330,-10 310,-10"/>
<text text-anchor="start" x="333.67" y="-15.4" font-family="Times-12" font-size="14.00"> &#160;Providers</text>
<polygon fill="#fb8072" stroke="transparent" points="406,-10 406,-30 426,-30 426,-10 406,-10"/>
<text text-anchor="start" x="429.73" y="-15.4" font-family="Times-12" font-size="14.00"> &#160;Exports</text>
<g id="clust1" class="cluster">
<title>cluster_RelapsesModule</title>
<polygon fill="none" stroke="black" stroke-dasharray="1,5" points="90,-70 90,-268 406,-268 406,-70 90,-70"/>
</g>
<g id="clust3" class="cluster">
<title>cluster_RelapsesModule_imports</title>
<polygon fill="none" stroke="black" points="270,-78 270,-130 398,-130 398,-78 270,-78"/>
</g>
<g id="clust4" class="cluster">
<title>cluster_RelapsesModule_exports</title>
<polygon fill="none" stroke="black" points="193,-208 193,-260 321,-260 321,-208 193,-208"/>
</g>
<g id="clust6" class="cluster">
<title>cluster_RelapsesModule_providers</title>
<polygon fill="none" stroke="black" points="98,-78 98,-130 262,-130 262,-78 98,-78"/>
</g>
<!-- CommonModule -->
<g id="node1" class="node">
<title>CommonModule</title>
<polygon fill="#8dd3c7" stroke="black" points="389.67,-122 386.67,-126 365.67,-126 362.67,-122 278.33,-122 278.33,-86 389.67,-86 389.67,-122"/>
<text text-anchor="middle" x="334" y="-99.8" font-family="Times,serif" font-size="14.00">CommonModule</text>
</g>
<!-- RelapsesModule -->
<g id="node2" class="node">
<title>RelapsesModule</title>
<polygon fill="#8dd3c7" stroke="black" points="311.81,-187 308.81,-191 287.81,-191 284.81,-187 202.19,-187 202.19,-151 311.81,-151 311.81,-187"/>
<text text-anchor="middle" x="257" y="-164.8" font-family="Times,serif" font-size="14.00">RelapsesModule</text>
</g>
<!-- CommonModule&#45;&gt;RelapsesModule -->
<g id="edge1" class="edge">
<title>CommonModule&#45;&gt;RelapsesModule</title>
<path fill="none" stroke="black" d="M294.91,-122.11C294.91,-122.11 294.91,-140.99 294.91,-140.99"/>
<polygon fill="black" stroke="black" points="291.41,-140.99 294.91,-150.99 298.41,-140.99 291.41,-140.99"/>
</g>
<!-- RelapsesService  -->
<g id="node3" class="node">
<title>RelapsesService </title>
<polygon fill="#fb8072" stroke="black" points="312.74,-252 201.26,-252 201.26,-216 312.74,-216 312.74,-252"/>
<text text-anchor="middle" x="257" y="-229.8" font-family="Times,serif" font-size="14.00">RelapsesService </text>
</g>
<!-- RelapsesModule&#45;&gt;RelapsesService  -->
<g id="edge2" class="edge">
<title>RelapsesModule&#45;&gt;RelapsesService </title>
<path fill="none" stroke="black" stroke-dasharray="5,2" d="M257,-187.11C257,-187.11 257,-205.99 257,-205.99"/>
<polygon fill="black" stroke="black" points="253.5,-205.99 257,-215.99 260.5,-205.99 253.5,-205.99"/>
</g>
<!-- RelapsesService -->
<g id="node4" class="node">
<title>RelapsesService</title>
<ellipse fill="#fdb462" stroke="black" cx="180" cy="-104" rx="74.13" ry="18"/>
<text text-anchor="middle" x="180" y="-99.8" font-family="Times,serif" font-size="14.00">RelapsesService</text>
</g>
<!-- RelapsesService&#45;&gt;RelapsesModule -->
<g id="edge3" class="edge">
<title>RelapsesService&#45;&gt;RelapsesModule</title>
<path fill="none" stroke="black" d="M228.33,-117.78C228.33,-117.78 228.33,-140.55 228.33,-140.55"/>
<polygon fill="black" stroke="black" points="224.83,-140.55 228.33,-150.55 231.83,-140.55 224.83,-140.55"/>
</g>
</g>
</svg>
