<?xml version="1.0" encoding="UTF-8" standalone="no"?>
<!DOCTYPE svg PUBLIC "-//W3C//DTD SVG 1.1//EN"
 "http://www.w3.org/Graphics/SVG/1.1/DTD/svg11.dtd">
<!-- Generated by graphviz version 2.47.0 (20210316.0004)
 -->
<!-- Title: dependencies Pages: 1 -->
<svg width="707pt" height="284pt"
 viewBox="0.00 0.00 707.00 284.00" xmlns="http://www.w3.org/2000/svg" xmlns:xlink="http://www.w3.org/1999/xlink">
<g id="graph0" class="graph" transform="scale(1 1) rotate(0) translate(4 280)">
<title>dependencies</title>
<polygon fill="white" stroke="transparent" points="-4,4 -4,-280 703,-280 703,4 -4,4"/>
<text text-anchor="start" x="328.51" y="-42.4" font-family="Times-12" font-weight="bold" font-size="14.00">Legend</text>
<polygon fill="#ffffb3" stroke="transparent" points="115.5,-10 115.5,-30 135.5,-30 135.5,-10 115.5,-10"/>
<text text-anchor="start" x="139.13" y="-15.4" font-family="Times-12" font-size="14.00"> &#160;Declarations</text>
<polygon fill="#8dd3c7" stroke="transparent" points="228.5,-10 228.5,-30 248.5,-30 248.5,-10 228.5,-10"/>
<text text-anchor="start" x="252.23" y="-15.4" font-family="Times-12" font-size="14.00"> &#160;Module</text>
<polygon fill="#80b1d3" stroke="transparent" points="314.5,-10 314.5,-30 334.5,-30 334.5,-10 314.5,-10"/>
<text text-anchor="start" x="338.28" y="-15.4" font-family="Times-12" font-size="14.00"> &#160;Bootstrap</text>
<polygon fill="#fdb462" stroke="transparent" points="411.5,-10 411.5,-30 431.5,-30 431.5,-10 411.5,-10"/>
<text text-anchor="start" x="435.17" y="-15.4" font-family="Times-12" font-size="14.00"> &#160;Providers</text>
<polygon fill="#fb8072" stroke="transparent" points="507.5,-10 507.5,-30 527.5,-30 527.5,-10 507.5,-10"/>
<text text-anchor="start" x="531.23" y="-15.4" font-family="Times-12" font-size="14.00"> &#160;Exports</text>
<g id="clust1" class="cluster">
<title>cluster_NotificationModule</title>
<polygon fill="none" stroke="black" stroke-dasharray="1,5" points="8,-70 8,-268 691,-268 691,-70 8,-70"/>
</g>
<g id="clust3" class="cluster">
<title>cluster_NotificationModule_imports</title>
<polygon fill="none" stroke="black" points="438,-78 438,-130 683,-130 683,-78 438,-78"/>
</g>
<g id="clust4" class="cluster">
<title>cluster_NotificationModule_exports</title>
<polygon fill="none" stroke="black" points="227,-208 227,-260 544,-260 544,-208 227,-208"/>
</g>
<g id="clust6" class="cluster">
<title>cluster_NotificationModule_providers</title>
<polygon fill="none" stroke="black" points="16,-78 16,-130 430,-130 430,-78 16,-78"/>
</g>
<!-- CommonModule -->
<g id="node1" class="node">
<title>CommonModule</title>
<polygon fill="#8dd3c7" stroke="black" points="674.67,-122 671.67,-126 650.67,-126 647.67,-122 563.33,-122 563.33,-86 674.67,-86 674.67,-122"/>
<text text-anchor="middle" x="619" y="-99.8" font-family="Times,serif" font-size="14.00">CommonModule</text>
</g>
<!-- NotificationModule -->
<g id="node3" class="node">
<title>NotificationModule</title>
<polygon fill="#8dd3c7" stroke="black" points="442.7,-187 439.7,-191 418.7,-191 415.7,-187 315.3,-187 315.3,-151 442.7,-151 442.7,-187"/>
<text text-anchor="middle" x="379" y="-164.8" font-family="Times,serif" font-size="14.00">NotificationModule</text>
</g>
<!-- CommonModule&#45;&gt;NotificationModule -->
<g id="edge1" class="edge">
<title>CommonModule&#45;&gt;NotificationModule</title>
<path fill="none" stroke="black" d="M619,-122.11C619,-141.34 619,-169 619,-169 619,-169 452.69,-169 452.69,-169"/>
<polygon fill="black" stroke="black" points="452.69,-165.5 442.69,-169 452.69,-172.5 452.69,-165.5"/>
</g>
<!-- SettingModule -->
<g id="node2" class="node">
<title>SettingModule</title>
<polygon fill="#8dd3c7" stroke="black" points="545.72,-122 542.72,-126 521.72,-126 518.72,-122 446.28,-122 446.28,-86 545.72,-86 545.72,-122"/>
<text text-anchor="middle" x="496" y="-99.8" font-family="Times,serif" font-size="14.00">SettingModule</text>
</g>
<!-- SettingModule&#45;&gt;NotificationModule -->
<g id="edge2" class="edge">
<title>SettingModule&#45;&gt;NotificationModule</title>
<path fill="none" stroke="black" d="M446.23,-104C438.19,-104 432.44,-104 432.44,-104 432.44,-104 432.44,-140.89 432.44,-140.89"/>
<polygon fill="black" stroke="black" points="428.94,-140.89 432.44,-150.89 435.94,-140.89 428.94,-140.89"/>
</g>
<!-- NotificationHubService  -->
<g id="node4" class="node">
<title>NotificationHubService </title>
<polygon fill="#fb8072" stroke="black" points="535.73,-252 382.27,-252 382.27,-216 535.73,-216 535.73,-252"/>
<text text-anchor="middle" x="459" y="-229.8" font-family="Times,serif" font-size="14.00">NotificationHubService </text>
</g>
<!-- NotificationModule&#45;&gt;NotificationHubService  -->
<g id="edge3" class="edge">
<title>NotificationModule&#45;&gt;NotificationHubService </title>
<path fill="none" stroke="black" stroke-dasharray="5,2" d="M412.49,-187.11C412.49,-187.11 412.49,-205.99 412.49,-205.99"/>
<polygon fill="black" stroke="black" points="408.99,-205.99 412.49,-215.99 415.99,-205.99 408.99,-205.99"/>
</g>
<!-- NotificationService  -->
<g id="node5" class="node">
<title>NotificationService </title>
<polygon fill="#fb8072" stroke="black" points="364.63,-252 235.37,-252 235.37,-216 364.63,-216 364.63,-252"/>
<text text-anchor="middle" x="300" y="-229.8" font-family="Times,serif" font-size="14.00">NotificationService </text>
</g>
<!-- NotificationModule&#45;&gt;NotificationService  -->
<g id="edge4" class="edge">
<title>NotificationModule&#45;&gt;NotificationService </title>
<path fill="none" stroke="black" stroke-dasharray="5,2" d="M339.98,-187.11C339.98,-187.11 339.98,-205.99 339.98,-205.99"/>
<polygon fill="black" stroke="black" points="336.48,-205.99 339.98,-215.99 343.48,-205.99 336.48,-205.99"/>
</g>
<!-- NotificationHubService -->
<g id="node6" class="node">
<title>NotificationHubService</title>
<ellipse fill="#fdb462" stroke="black" cx="319" cy="-104" rx="103.07" ry="18"/>
<text text-anchor="middle" x="319" y="-99.8" font-family="Times,serif" font-size="14.00">NotificationHubService</text>
</g>
<!-- NotificationHubService&#45;&gt;NotificationModule -->
<g id="edge5" class="edge">
<title>NotificationHubService&#45;&gt;NotificationModule</title>
<path fill="none" stroke="black" d="M368.84,-120.07C368.84,-120.07 368.84,-140.82 368.84,-140.82"/>
<polygon fill="black" stroke="black" points="365.34,-140.82 368.84,-150.82 372.34,-140.82 365.34,-140.82"/>
</g>
<!-- NotificationService -->
<g id="node7" class="node">
<title>NotificationService</title>
<ellipse fill="#fdb462" stroke="black" cx="111" cy="-104" rx="86.81" ry="18"/>
<text text-anchor="middle" x="111" y="-99.8" font-family="Times,serif" font-size="14.00">NotificationService</text>
</g>
<!-- NotificationService&#45;&gt;NotificationModule -->
<g id="edge6" class="edge">
<title>NotificationService&#45;&gt;NotificationModule</title>
<path fill="none" stroke="black" d="M111,-122.11C111,-141.34 111,-169 111,-169 111,-169 305.15,-169 305.15,-169"/>
<polygon fill="black" stroke="black" points="305.15,-172.5 315.15,-169 305.15,-165.5 305.15,-172.5"/>
</g>
</g>
</svg>
