<?xml version="1.0" encoding="UTF-8" standalone="no"?>
<!DOCTYPE svg PUBLIC "-//W3C//DTD SVG 1.1//EN"
 "http://www.w3.org/Graphics/SVG/1.1/DTD/svg11.dtd">
<!-- Generated by graphviz version 2.47.0 (20210316.0004)
 -->
<!-- Title: dependencies Pages: 1 -->
<svg width="618pt" height="211pt"
 viewBox="0.00 0.00 618.00 211.00" xmlns="http://www.w3.org/2000/svg" xmlns:xlink="http://www.w3.org/1999/xlink">
<g id="graph0" class="graph" transform="scale(1 1) rotate(0) translate(4 207)">
<title>dependencies</title>
<polygon fill="white" stroke="transparent" points="-4,4 -4,-207 614,-207 614,4 -4,4"/>
<text text-anchor="start" x="284.01" y="-42.4" font-family="Times-12" font-weight="bold" font-size="14.00">Legend</text>
<polygon fill="#ffffb3" stroke="transparent" points="71,-10 71,-30 91,-30 91,-10 71,-10"/>
<text text-anchor="start" x="94.63" y="-15.4" font-family="Times-12" font-size="14.00"> &#160;Declarations</text>
<polygon fill="#8dd3c7" stroke="transparent" points="184,-10 184,-30 204,-30 204,-10 184,-10"/>
<text text-anchor="start" x="207.73" y="-15.4" font-family="Times-12" font-size="14.00"> &#160;Module</text>
<polygon fill="#80b1d3" stroke="transparent" points="270,-10 270,-30 290,-30 290,-10 270,-10"/>
<text text-anchor="start" x="293.78" y="-15.4" font-family="Times-12" font-size="14.00"> &#160;Bootstrap</text>
<polygon fill="#fdb462" stroke="transparent" points="367,-10 367,-30 387,-30 387,-10 367,-10"/>
<text text-anchor="start" x="390.67" y="-15.4" font-family="Times-12" font-size="14.00"> &#160;Providers</text>
<polygon fill="#fb8072" stroke="transparent" points="463,-10 463,-30 483,-30 483,-10 463,-10"/>
<text text-anchor="start" x="486.73" y="-15.4" font-family="Times-12" font-size="14.00"> &#160;Exports</text>
<g id="clust1" class="cluster">
<title>cluster_FaqsModule</title>
<polygon fill="none" stroke="black" stroke-dasharray="1,5" points="8,-70 8,-195 602,-195 602,-70 8,-70"/>
</g>
<g id="clust6" class="cluster">
<title>cluster_FaqsModule_providers</title>
<polygon fill="none" stroke="black" points="310,-78 310,-130 594,-130 594,-78 310,-78"/>
</g>
<g id="clust3" class="cluster">
<title>cluster_FaqsModule_imports</title>
<polygon fill="none" stroke="black" points="16,-78 16,-130 302,-130 302,-78 16,-78"/>
</g>
<!-- CommonModule -->
<g id="node1" class="node">
<title>CommonModule</title>
<polygon fill="#8dd3c7" stroke="black" points="293.67,-122 290.67,-126 269.67,-126 266.67,-122 182.33,-122 182.33,-86 293.67,-86 293.67,-122"/>
<text text-anchor="middle" x="238" y="-99.8" font-family="Times,serif" font-size="14.00">CommonModule</text>
</g>
<!-- FaqsModule -->
<g id="node3" class="node">
<title>FaqsModule</title>
<polygon fill="#8dd3c7" stroke="black" points="353.99,-187 350.99,-191 329.99,-191 326.99,-187 268.01,-187 268.01,-151 353.99,-151 353.99,-187"/>
<text text-anchor="middle" x="311" y="-164.8" font-family="Times,serif" font-size="14.00">FaqsModule</text>
</g>
<!-- CommonModule&#45;&gt;FaqsModule -->
<g id="edge1" class="edge">
<title>CommonModule&#45;&gt;FaqsModule</title>
<path fill="none" stroke="black" d="M280.92,-122.11C280.92,-122.11 280.92,-140.99 280.92,-140.99"/>
<polygon fill="black" stroke="black" points="277.42,-140.99 280.92,-150.99 284.42,-140.99 277.42,-140.99"/>
</g>
<!-- FaqCategoriesModule -->
<g id="node2" class="node">
<title>FaqCategoriesModule</title>
<polygon fill="#8dd3c7" stroke="black" points="164.41,-122 161.41,-126 140.41,-126 137.41,-122 23.59,-122 23.59,-86 164.41,-86 164.41,-122"/>
<text text-anchor="middle" x="94" y="-99.8" font-family="Times,serif" font-size="14.00">FaqCategoriesModule</text>
</g>
<!-- FaqCategoriesModule&#45;&gt;FaqsModule -->
<g id="edge2" class="edge">
<title>FaqCategoriesModule&#45;&gt;FaqsModule</title>
<path fill="none" stroke="black" d="M94,-122.11C94,-141.34 94,-169 94,-169 94,-169 257.87,-169 257.87,-169"/>
<polygon fill="black" stroke="black" points="257.87,-172.5 267.87,-169 257.87,-165.5 257.87,-172.5"/>
</g>
<!-- FaqsService -->
<g id="node4" class="node">
<title>FaqsService</title>
<ellipse fill="#fdb462" stroke="black" cx="528" cy="-104" rx="58.46" ry="18"/>
<text text-anchor="middle" x="528" y="-99.8" font-family="Times,serif" font-size="14.00">FaqsService</text>
</g>
<!-- FaqsService&#45;&gt;FaqsModule -->
<g id="edge3" class="edge">
<title>FaqsService&#45;&gt;FaqsModule</title>
<path fill="none" stroke="black" d="M528,-122.11C528,-141.34 528,-169 528,-169 528,-169 364.13,-169 364.13,-169"/>
<polygon fill="black" stroke="black" points="364.13,-165.5 354.13,-169 364.13,-172.5 364.13,-165.5"/>
</g>
<!-- PrismaService -->
<g id="node5" class="node">
<title>PrismaService</title>
<ellipse fill="#fdb462" stroke="black" cx="385" cy="-104" rx="66.63" ry="18"/>
<text text-anchor="middle" x="385" y="-99.8" font-family="Times,serif" font-size="14.00">PrismaService</text>
</g>
<!-- PrismaService&#45;&gt;FaqsModule -->
<g id="edge4" class="edge">
<title>PrismaService&#45;&gt;FaqsModule</title>
<path fill="none" stroke="black" d="M336.09,-116.53C336.09,-116.53 336.09,-140.85 336.09,-140.85"/>
<polygon fill="black" stroke="black" points="332.59,-140.85 336.09,-150.85 339.59,-140.85 332.59,-140.85"/>
</g>
</g>
</svg>
