<?xml version="1.0" encoding="UTF-8" standalone="no"?>
<!DOCTYPE svg PUBLIC "-//W3C//DTD SVG 1.1//EN"
 "http://www.w3.org/Graphics/SVG/1.1/DTD/svg11.dtd">
<!-- Generated by graphviz version 2.47.0 (20210316.0004)
 -->
<!-- Title: dependencies Pages: 1 -->
<svg width="638pt" height="284pt"
 viewBox="0.00 0.00 638.00 284.00" xmlns="http://www.w3.org/2000/svg" xmlns:xlink="http://www.w3.org/1999/xlink">
<g id="graph0" class="graph" transform="scale(1 1) rotate(0) translate(4 280)">
<title>dependencies</title>
<polygon fill="white" stroke="transparent" points="-4,4 -4,-280 634,-280 634,4 -4,4"/>
<text text-anchor="start" x="294.01" y="-42.4" font-family="Times-12" font-weight="bold" font-size="14.00">Legend</text>
<polygon fill="#ffffb3" stroke="transparent" points="81,-10 81,-30 101,-30 101,-10 81,-10"/>
<text text-anchor="start" x="104.63" y="-15.4" font-family="Times-12" font-size="14.00"> &#160;Declarations</text>
<polygon fill="#8dd3c7" stroke="transparent" points="194,-10 194,-30 214,-30 214,-10 194,-10"/>
<text text-anchor="start" x="217.73" y="-15.4" font-family="Times-12" font-size="14.00"> &#160;Module</text>
<polygon fill="#80b1d3" stroke="transparent" points="280,-10 280,-30 300,-30 300,-10 280,-10"/>
<text text-anchor="start" x="303.78" y="-15.4" font-family="Times-12" font-size="14.00"> &#160;Bootstrap</text>
<polygon fill="#fdb462" stroke="transparent" points="377,-10 377,-30 397,-30 397,-10 377,-10"/>
<text text-anchor="start" x="400.67" y="-15.4" font-family="Times-12" font-size="14.00"> &#160;Providers</text>
<polygon fill="#fb8072" stroke="transparent" points="473,-10 473,-30 493,-30 493,-10 473,-10"/>
<text text-anchor="start" x="496.73" y="-15.4" font-family="Times-12" font-size="14.00"> &#160;Exports</text>
<g id="clust1" class="cluster">
<title>cluster_ArticlePackagesModule</title>
<polygon fill="none" stroke="black" stroke-dasharray="1,5" points="8,-70 8,-268 622,-268 622,-70 8,-70"/>
</g>
<g id="clust6" class="cluster">
<title>cluster_ArticlePackagesModule_providers</title>
<polygon fill="none" stroke="black" points="392,-78 392,-130 614,-130 614,-78 392,-78"/>
</g>
<g id="clust4" class="cluster">
<title>cluster_ArticlePackagesModule_exports</title>
<polygon fill="none" stroke="black" points="177,-208 177,-260 345,-260 345,-208 177,-208"/>
</g>
<g id="clust3" class="cluster">
<title>cluster_ArticlePackagesModule_imports</title>
<polygon fill="none" stroke="black" points="16,-78 16,-130 384,-130 384,-78 16,-78"/>
</g>
<!-- ArticlesModule -->
<g id="node1" class="node">
<title>ArticlesModule</title>
<polygon fill="#8dd3c7" stroke="black" points="375.86,-122 372.86,-126 351.86,-126 348.86,-122 272.14,-122 272.14,-86 375.86,-86 375.86,-122"/>
<text text-anchor="middle" x="324" y="-99.8" font-family="Times,serif" font-size="14.00">ArticlesModule</text>
</g>
<!-- ArticlePackagesModule -->
<g id="node4" class="node">
<title>ArticlePackagesModule</title>
<polygon fill="#8dd3c7" stroke="black" points="336,-187 333,-191 312,-191 309,-187 186,-187 186,-151 336,-151 336,-187"/>
<text text-anchor="middle" x="261" y="-164.8" font-family="Times,serif" font-size="14.00">ArticlePackagesModule</text>
</g>
<!-- ArticlesModule&#45;&gt;ArticlePackagesModule -->
<g id="edge1" class="edge">
<title>ArticlesModule&#45;&gt;ArticlePackagesModule</title>
<path fill="none" stroke="black" d="M304.16,-122.11C304.16,-122.11 304.16,-140.99 304.16,-140.99"/>
<polygon fill="black" stroke="black" points="300.66,-140.99 304.16,-150.99 307.66,-140.99 300.66,-140.99"/>
</g>
<!-- CommonModule -->
<g id="node2" class="node">
<title>CommonModule</title>
<polygon fill="#8dd3c7" stroke="black" points="253.67,-122 250.67,-126 229.67,-126 226.67,-122 142.33,-122 142.33,-86 253.67,-86 253.67,-122"/>
<text text-anchor="middle" x="198" y="-99.8" font-family="Times,serif" font-size="14.00">CommonModule</text>
</g>
<!-- CommonModule&#45;&gt;ArticlePackagesModule -->
<g id="edge2" class="edge">
<title>CommonModule&#45;&gt;ArticlePackagesModule</title>
<path fill="none" stroke="black" d="M219.79,-122.11C219.79,-122.11 219.79,-140.99 219.79,-140.99"/>
<polygon fill="black" stroke="black" points="216.29,-140.99 219.79,-150.99 223.29,-140.99 216.29,-140.99"/>
</g>
<!-- GroupsModule -->
<g id="node3" class="node">
<title>GroupsModule</title>
<polygon fill="#8dd3c7" stroke="black" points="124.26,-122 121.26,-126 100.26,-126 97.26,-122 23.74,-122 23.74,-86 124.26,-86 124.26,-122"/>
<text text-anchor="middle" x="74" y="-99.8" font-family="Times,serif" font-size="14.00">GroupsModule</text>
</g>
<!-- GroupsModule&#45;&gt;ArticlePackagesModule -->
<g id="edge3" class="edge">
<title>GroupsModule&#45;&gt;ArticlePackagesModule</title>
<path fill="none" stroke="black" d="M74,-122.11C74,-141.34 74,-169 74,-169 74,-169 175.75,-169 175.75,-169"/>
<polygon fill="black" stroke="black" points="175.75,-172.5 185.75,-169 175.75,-165.5 175.75,-172.5"/>
</g>
<!-- ArticlePackagesService  -->
<g id="node5" class="node">
<title>ArticlePackagesService </title>
<polygon fill="#fb8072" stroke="black" points="337.43,-252 184.57,-252 184.57,-216 337.43,-216 337.43,-252"/>
<text text-anchor="middle" x="261" y="-229.8" font-family="Times,serif" font-size="14.00">ArticlePackagesService </text>
</g>
<!-- ArticlePackagesModule&#45;&gt;ArticlePackagesService  -->
<g id="edge4" class="edge">
<title>ArticlePackagesModule&#45;&gt;ArticlePackagesService </title>
<path fill="none" stroke="black" stroke-dasharray="5,2" d="M261,-187.11C261,-187.11 261,-205.99 261,-205.99"/>
<polygon fill="black" stroke="black" points="257.5,-205.99 261,-215.99 264.5,-205.99 257.5,-205.99"/>
</g>
<!-- ArticlePackagesService -->
<g id="node6" class="node">
<title>ArticlePackagesService</title>
<ellipse fill="#fdb462" stroke="black" cx="503" cy="-104" rx="102.96" ry="18"/>
<text text-anchor="middle" x="503" y="-99.8" font-family="Times,serif" font-size="14.00">ArticlePackagesService</text>
</g>
<!-- ArticlePackagesService&#45;&gt;ArticlePackagesModule -->
<g id="edge5" class="edge">
<title>ArticlePackagesService&#45;&gt;ArticlePackagesModule</title>
<path fill="none" stroke="black" d="M503,-122.11C503,-141.34 503,-169 503,-169 503,-169 346.24,-169 346.24,-169"/>
<polygon fill="black" stroke="black" points="346.24,-165.5 336.24,-169 346.24,-172.5 346.24,-165.5"/>
</g>
</g>
</svg>
