<?xml version="1.0" encoding="UTF-8" standalone="no"?>
<!DOCTYPE svg PUBLIC "-//W3C//DTD SVG 1.1//EN"
 "http://www.w3.org/Graphics/SVG/1.1/DTD/svg11.dtd">
<!-- Generated by graphviz version 2.47.0 (20210316.0004)
 -->
<!-- Title: dependencies Pages: 1 -->
<svg width="962pt" height="284pt"
 viewBox="0.00 0.00 962.00 284.00" xmlns="http://www.w3.org/2000/svg" xmlns:xlink="http://www.w3.org/1999/xlink">
<g id="graph0" class="graph" transform="scale(1 1) rotate(0) translate(4 280)">
<title>dependencies</title>
<polygon fill="white" stroke="transparent" points="-4,4 -4,-280 958,-280 958,4 -4,4"/>
<text text-anchor="start" x="456.01" y="-42.4" font-family="Times-12" font-weight="bold" font-size="14.00">Legend</text>
<polygon fill="#ffffb3" stroke="transparent" points="243,-10 243,-30 263,-30 263,-10 243,-10"/>
<text text-anchor="start" x="266.63" y="-15.4" font-family="Times-12" font-size="14.00"> &#160;Declarations</text>
<polygon fill="#8dd3c7" stroke="transparent" points="356,-10 356,-30 376,-30 376,-10 356,-10"/>
<text text-anchor="start" x="379.73" y="-15.4" font-family="Times-12" font-size="14.00"> &#160;Module</text>
<polygon fill="#80b1d3" stroke="transparent" points="442,-10 442,-30 462,-30 462,-10 442,-10"/>
<text text-anchor="start" x="465.78" y="-15.4" font-family="Times-12" font-size="14.00"> &#160;Bootstrap</text>
<polygon fill="#fdb462" stroke="transparent" points="539,-10 539,-30 559,-30 559,-10 539,-10"/>
<text text-anchor="start" x="562.67" y="-15.4" font-family="Times-12" font-size="14.00"> &#160;Providers</text>
<polygon fill="#fb8072" stroke="transparent" points="635,-10 635,-30 655,-30 655,-10 635,-10"/>
<text text-anchor="start" x="658.73" y="-15.4" font-family="Times-12" font-size="14.00"> &#160;Exports</text>
<g id="clust1" class="cluster">
<title>cluster_CommonModule</title>
<polygon fill="none" stroke="black" stroke-dasharray="1,5" points="8,-70 8,-268 946,-268 946,-70 8,-70"/>
</g>
<g id="clust4" class="cluster">
<title>cluster_CommonModule_exports</title>
<polygon fill="none" stroke="black" points="104,-208 104,-260 824,-260 824,-208 104,-208"/>
</g>
<g id="clust6" class="cluster">
<title>cluster_CommonModule_providers</title>
<polygon fill="none" stroke="black" points="16,-78 16,-130 938,-130 938,-78 16,-78"/>
</g>
<!-- CommonService  -->
<g id="node1" class="node">
<title>CommonService </title>
<polygon fill="#fb8072" stroke="black" points="815.6,-252 702.4,-252 702.4,-216 815.6,-216 815.6,-252"/>
<text text-anchor="middle" x="759" y="-229.8" font-family="Times,serif" font-size="14.00">CommonService </text>
</g>
<!-- EnvironmentService  -->
<g id="node2" class="node">
<title>EnvironmentService </title>
<polygon fill="#fb8072" stroke="black" points="684.08,-252 549.92,-252 549.92,-216 684.08,-216 684.08,-252"/>
<text text-anchor="middle" x="617" y="-229.8" font-family="Times,serif" font-size="14.00">EnvironmentService </text>
</g>
<!-- FileService  -->
<g id="node3" class="node">
<title>FileService </title>
<polygon fill="#fb8072" stroke="black" points="531.76,-252 448.24,-252 448.24,-216 531.76,-216 531.76,-252"/>
<text text-anchor="middle" x="490" y="-229.8" font-family="Times,serif" font-size="14.00">FileService </text>
</g>
<!-- MailService  -->
<g id="node4" class="node">
<title>MailService </title>
<polygon fill="#fb8072" stroke="black" points="429.92,-252 342.08,-252 342.08,-216 429.92,-216 429.92,-252"/>
<text text-anchor="middle" x="386" y="-229.8" font-family="Times,serif" font-size="14.00">MailService </text>
</g>
<!-- PrismaService  -->
<g id="node5" class="node">
<title>PrismaService </title>
<polygon fill="#fb8072" stroke="black" points="324.36,-252 223.64,-252 223.64,-216 324.36,-216 324.36,-252"/>
<text text-anchor="middle" x="274" y="-229.8" font-family="Times,serif" font-size="14.00">PrismaService </text>
</g>
<!-- RedisService  -->
<g id="node6" class="node">
<title>RedisService </title>
<polygon fill="#fb8072" stroke="black" points="205.86,-252 112.14,-252 112.14,-216 205.86,-216 205.86,-252"/>
<text text-anchor="middle" x="159" y="-229.8" font-family="Times,serif" font-size="14.00">RedisService </text>
</g>
<!-- CommonModule -->
<g id="node7" class="node">
<title>CommonModule</title>
<polygon fill="#8dd3c7" stroke="black" points="493.67,-187 490.67,-191 469.67,-191 466.67,-187 382.33,-187 382.33,-151 493.67,-151 493.67,-187"/>
<text text-anchor="middle" x="438" y="-164.8" font-family="Times,serif" font-size="14.00">CommonModule</text>
</g>
<!-- CommonModule&#45;&gt;CommonService  -->
<g id="edge1" class="edge">
<title>CommonModule&#45;&gt;CommonService </title>
<path fill="none" stroke="black" stroke-dasharray="5,2" d="M493.86,-173C578.96,-173 731.31,-173 731.31,-173 731.31,-173 731.31,-205.7 731.31,-205.7"/>
<polygon fill="black" stroke="black" points="727.81,-205.7 731.31,-215.7 734.81,-205.7 727.81,-205.7"/>
</g>
<!-- CommonModule&#45;&gt;EnvironmentService  -->
<g id="edge2" class="edge">
<title>CommonModule&#45;&gt;EnvironmentService </title>
<path fill="none" stroke="black" stroke-dasharray="5,2" d="M493.82,-180C524.29,-180 555.86,-180 555.86,-180 555.86,-180 555.86,-205.72 555.86,-205.72"/>
<polygon fill="black" stroke="black" points="552.36,-205.72 555.86,-215.72 559.36,-205.72 552.36,-205.72"/>
</g>
<!-- CommonModule&#45;&gt;FileService  -->
<g id="edge3" class="edge">
<title>CommonModule&#45;&gt;FileService </title>
<path fill="none" stroke="black" stroke-dasharray="5,2" d="M471.1,-187.11C471.1,-187.11 471.1,-205.99 471.1,-205.99"/>
<polygon fill="black" stroke="black" points="467.6,-205.99 471.1,-215.99 474.6,-205.99 467.6,-205.99"/>
</g>
<!-- CommonModule&#45;&gt;MailService  -->
<g id="edge4" class="edge">
<title>CommonModule&#45;&gt;MailService </title>
<path fill="none" stroke="black" stroke-dasharray="5,2" d="M406.06,-187.11C406.06,-187.11 406.06,-205.99 406.06,-205.99"/>
<polygon fill="black" stroke="black" points="402.56,-205.99 406.06,-215.99 409.56,-205.99 402.56,-205.99"/>
</g>
<!-- CommonModule&#45;&gt;PrismaService  -->
<g id="edge5" class="edge">
<title>CommonModule&#45;&gt;PrismaService </title>
<path fill="none" stroke="black" stroke-dasharray="5,2" d="M382.08,-180C347.16,-180 308.79,-180 308.79,-180 308.79,-180 308.79,-205.72 308.79,-205.72"/>
<polygon fill="black" stroke="black" points="305.29,-205.72 308.79,-215.72 312.29,-205.72 305.29,-205.72"/>
</g>
<!-- CommonModule&#45;&gt;RedisService  -->
<g id="edge6" class="edge">
<title>CommonModule&#45;&gt;RedisService </title>
<path fill="none" stroke="black" stroke-dasharray="5,2" d="M382.06,-173C307.8,-173 185.93,-173 185.93,-173 185.93,-173 185.93,-205.7 185.93,-205.7"/>
<polygon fill="black" stroke="black" points="182.43,-205.7 185.93,-215.7 189.43,-205.7 182.43,-205.7"/>
</g>
<!-- CommonService -->
<g id="node8" class="node">
<title>CommonService</title>
<ellipse fill="#fdb462" stroke="black" cx="854" cy="-104" rx="75.88" ry="18"/>
<text text-anchor="middle" x="854" y="-99.8" font-family="Times,serif" font-size="14.00">CommonService</text>
</g>
<!-- CommonService&#45;&gt;CommonModule -->
<g id="edge7" class="edge">
<title>CommonService&#45;&gt;CommonModule</title>
<path fill="none" stroke="black" d="M796.93,-115.95C796.93,-133.97 796.93,-166 796.93,-166 796.93,-166 503.69,-166 503.69,-166"/>
<polygon fill="black" stroke="black" points="503.69,-162.5 493.69,-166 503.69,-169.5 503.69,-162.5"/>
</g>
<!-- EnvironmentService -->
<g id="node9" class="node">
<title>EnvironmentService</title>
<ellipse fill="#fdb462" stroke="black" cx="670" cy="-104" rx="90.33" ry="18"/>
<text text-anchor="middle" x="670" y="-99.8" font-family="Times,serif" font-size="14.00">EnvironmentService</text>
</g>
<!-- EnvironmentService&#45;&gt;CommonModule -->
<g id="edge8" class="edge">
<title>EnvironmentService&#45;&gt;CommonModule</title>
<path fill="none" stroke="black" d="M631.94,-120.5C631.94,-136.7 631.94,-159 631.94,-159 631.94,-159 503.83,-159 503.83,-159"/>
<polygon fill="black" stroke="black" points="503.83,-155.5 493.83,-159 503.83,-162.5 503.83,-155.5"/>
</g>
<!-- FileService -->
<g id="node10" class="node">
<title>FileService</title>
<ellipse fill="#fdb462" stroke="black" cx="507" cy="-104" rx="55.03" ry="18"/>
<text text-anchor="middle" x="507" y="-99.8" font-family="Times,serif" font-size="14.00">FileService</text>
</g>
<!-- FileService&#45;&gt;CommonModule -->
<g id="edge9" class="edge">
<title>FileService&#45;&gt;CommonModule</title>
<path fill="none" stroke="black" d="M472.91,-118.43C472.91,-118.43 472.91,-140.89 472.91,-140.89"/>
<polygon fill="black" stroke="black" points="469.41,-140.89 472.91,-150.89 476.41,-140.89 469.41,-140.89"/>
</g>
<!-- MailService -->
<g id="node11" class="node">
<title>MailService</title>
<ellipse fill="#fdb462" stroke="black" cx="376" cy="-104" rx="58.46" ry="18"/>
<text text-anchor="middle" x="376" y="-99.8" font-family="Times,serif" font-size="14.00">MailService</text>
</g>
<!-- MailService&#45;&gt;CommonModule -->
<g id="edge10" class="edge">
<title>MailService&#45;&gt;CommonModule</title>
<path fill="none" stroke="black" d="M408.2,-119.08C408.2,-119.08 408.2,-140.76 408.2,-140.76"/>
<polygon fill="black" stroke="black" points="404.7,-140.76 408.2,-150.76 411.7,-140.76 404.7,-140.76"/>
</g>
<!-- PrismaService -->
<g id="node12" class="node">
<title>PrismaService</title>
<ellipse fill="#fdb462" stroke="black" cx="233" cy="-104" rx="66.63" ry="18"/>
<text text-anchor="middle" x="233" y="-99.8" font-family="Times,serif" font-size="14.00">PrismaService</text>
</g>
<!-- PrismaService&#45;&gt;CommonModule -->
<g id="edge11" class="edge">
<title>PrismaService&#45;&gt;CommonModule</title>
<path fill="none" stroke="black" d="M261.82,-120.5C261.82,-136.7 261.82,-159 261.82,-159 261.82,-159 372.25,-159 372.25,-159"/>
<polygon fill="black" stroke="black" points="372.25,-162.5 382.25,-159 372.25,-155.5 372.25,-162.5"/>
</g>
<!-- RedisService -->
<g id="node13" class="node">
<title>RedisService</title>
<ellipse fill="#fdb462" stroke="black" cx="86" cy="-104" rx="61.97" ry="18"/>
<text text-anchor="middle" x="86" y="-99.8" font-family="Times,serif" font-size="14.00">RedisService</text>
</g>
<!-- RedisService&#45;&gt;CommonModule -->
<g id="edge12" class="edge">
<title>RedisService&#45;&gt;CommonModule</title>
<path fill="none" stroke="black" d="M130.15,-116.85C130.15,-135.01 130.15,-166 130.15,-166 130.15,-166 372.25,-166 372.25,-166"/>
<polygon fill="black" stroke="black" points="372.25,-169.5 382.25,-166 372.25,-162.5 372.25,-169.5"/>
</g>
</g>
</svg>
