<?xml version="1.0" encoding="UTF-8" standalone="no"?>
<!DOCTYPE svg PUBLIC "-//W3C//DTD SVG 1.1//EN"
 "http://www.w3.org/Graphics/SVG/1.1/DTD/svg11.dtd">
<!-- Generated by graphviz version 2.47.0 (20210316.0004)
 -->
<!-- Title: dependencies Pages: 1 -->
<svg width="611pt" height="284pt"
 viewBox="0.00 0.00 611.00 284.00" xmlns="http://www.w3.org/2000/svg" xmlns:xlink="http://www.w3.org/1999/xlink">
<g id="graph0" class="graph" transform="scale(1 1) rotate(0) translate(4 280)">
<title>dependencies</title>
<polygon fill="white" stroke="transparent" points="-4,4 -4,-280 607,-280 607,4 -4,4"/>
<text text-anchor="start" x="280.51" y="-42.4" font-family="Times-12" font-weight="bold" font-size="14.00">Legend</text>
<polygon fill="#ffffb3" stroke="transparent" points="67.5,-10 67.5,-30 87.5,-30 87.5,-10 67.5,-10"/>
<text text-anchor="start" x="91.13" y="-15.4" font-family="Times-12" font-size="14.00"> &#160;Declarations</text>
<polygon fill="#8dd3c7" stroke="transparent" points="180.5,-10 180.5,-30 200.5,-30 200.5,-10 180.5,-10"/>
<text text-anchor="start" x="204.23" y="-15.4" font-family="Times-12" font-size="14.00"> &#160;Module</text>
<polygon fill="#80b1d3" stroke="transparent" points="266.5,-10 266.5,-30 286.5,-30 286.5,-10 266.5,-10"/>
<text text-anchor="start" x="290.28" y="-15.4" font-family="Times-12" font-size="14.00"> &#160;Bootstrap</text>
<polygon fill="#fdb462" stroke="transparent" points="363.5,-10 363.5,-30 383.5,-30 383.5,-10 363.5,-10"/>
<text text-anchor="start" x="387.17" y="-15.4" font-family="Times-12" font-size="14.00"> &#160;Providers</text>
<polygon fill="#fb8072" stroke="transparent" points="459.5,-10 459.5,-30 479.5,-30 479.5,-10 459.5,-10"/>
<text text-anchor="start" x="483.23" y="-15.4" font-family="Times-12" font-size="14.00"> &#160;Exports</text>
<g id="clust1" class="cluster">
<title>cluster_ArticlesModule</title>
<polygon fill="none" stroke="black" stroke-dasharray="1,5" points="8,-70 8,-268 595,-268 595,-70 8,-70"/>
</g>
<g id="clust3" class="cluster">
<title>cluster_ArticlesModule_imports</title>
<polygon fill="none" stroke="black" points="182,-78 182,-130 587,-130 587,-78 182,-78"/>
</g>
<g id="clust6" class="cluster">
<title>cluster_ArticlesModule_providers</title>
<polygon fill="none" stroke="black" points="16,-78 16,-130 174,-130 174,-78 16,-78"/>
</g>
<g id="clust4" class="cluster">
<title>cluster_ArticlesModule_exports</title>
<polygon fill="none" stroke="black" points="241,-208 241,-260 363,-260 363,-208 241,-208"/>
</g>
<!-- ArticlesLabelsModule -->
<g id="node1" class="node">
<title>ArticlesLabelsModule</title>
<polygon fill="#8dd3c7" stroke="black" points="578.68,-122 575.68,-126 554.68,-126 551.68,-122 437.32,-122 437.32,-86 578.68,-86 578.68,-122"/>
<text text-anchor="middle" x="508" y="-99.8" font-family="Times,serif" font-size="14.00">ArticlesLabelsModule</text>
</g>
<!-- ArticlesModule -->
<g id="node4" class="node">
<title>ArticlesModule</title>
<polygon fill="#8dd3c7" stroke="black" points="353.86,-187 350.86,-191 329.86,-191 326.86,-187 250.14,-187 250.14,-151 353.86,-151 353.86,-187"/>
<text text-anchor="middle" x="302" y="-164.8" font-family="Times,serif" font-size="14.00">ArticlesModule</text>
</g>
<!-- ArticlesLabelsModule&#45;&gt;ArticlesModule -->
<g id="edge1" class="edge">
<title>ArticlesLabelsModule&#45;&gt;ArticlesModule</title>
<path fill="none" stroke="black" d="M508,-122.11C508,-141.34 508,-169 508,-169 508,-169 363.98,-169 363.98,-169"/>
<polygon fill="black" stroke="black" points="363.98,-165.5 353.98,-169 363.98,-172.5 363.98,-165.5"/>
</g>
<!-- CommonModule -->
<g id="node2" class="node">
<title>CommonModule</title>
<polygon fill="#8dd3c7" stroke="black" points="419.67,-122 416.67,-126 395.67,-126 392.67,-122 308.33,-122 308.33,-86 419.67,-86 419.67,-122"/>
<text text-anchor="middle" x="364" y="-99.8" font-family="Times,serif" font-size="14.00">CommonModule</text>
</g>
<!-- CommonModule&#45;&gt;ArticlesModule -->
<g id="edge2" class="edge">
<title>CommonModule&#45;&gt;ArticlesModule</title>
<path fill="none" stroke="black" d="M331.05,-122.11C331.05,-122.11 331.05,-140.99 331.05,-140.99"/>
<polygon fill="black" stroke="black" points="327.55,-140.99 331.05,-150.99 334.55,-140.99 327.55,-140.99"/>
</g>
<!-- GroupsModule -->
<g id="node3" class="node">
<title>GroupsModule</title>
<polygon fill="#8dd3c7" stroke="black" points="290.26,-122 287.26,-126 266.26,-126 263.26,-122 189.74,-122 189.74,-86 290.26,-86 290.26,-122"/>
<text text-anchor="middle" x="240" y="-99.8" font-family="Times,serif" font-size="14.00">GroupsModule</text>
</g>
<!-- GroupsModule&#45;&gt;ArticlesModule -->
<g id="edge3" class="edge">
<title>GroupsModule&#45;&gt;ArticlesModule</title>
<path fill="none" stroke="black" d="M270.22,-122.11C270.22,-122.11 270.22,-140.99 270.22,-140.99"/>
<polygon fill="black" stroke="black" points="266.72,-140.99 270.22,-150.99 273.72,-140.99 266.72,-140.99"/>
</g>
<!-- ArticlesService  -->
<g id="node5" class="node">
<title>ArticlesService </title>
<polygon fill="#fb8072" stroke="black" points="354.79,-252 249.21,-252 249.21,-216 354.79,-216 354.79,-252"/>
<text text-anchor="middle" x="302" y="-229.8" font-family="Times,serif" font-size="14.00">ArticlesService </text>
</g>
<!-- ArticlesModule&#45;&gt;ArticlesService  -->
<g id="edge4" class="edge">
<title>ArticlesModule&#45;&gt;ArticlesService </title>
<path fill="none" stroke="black" stroke-dasharray="5,2" d="M302,-187.11C302,-187.11 302,-205.99 302,-205.99"/>
<polygon fill="black" stroke="black" points="298.5,-205.99 302,-215.99 305.5,-205.99 298.5,-205.99"/>
</g>
<!-- ArticlesService -->
<g id="node6" class="node">
<title>ArticlesService</title>
<ellipse fill="#fdb462" stroke="black" cx="95" cy="-104" rx="70.62" ry="18"/>
<text text-anchor="middle" x="95" y="-99.8" font-family="Times,serif" font-size="14.00">ArticlesService</text>
</g>
<!-- ArticlesService&#45;&gt;ArticlesModule -->
<g id="edge5" class="edge">
<title>ArticlesService&#45;&gt;ArticlesModule</title>
<path fill="none" stroke="black" d="M95,-122.11C95,-141.34 95,-169 95,-169 95,-169 240.03,-169 240.03,-169"/>
<polygon fill="black" stroke="black" points="240.03,-172.5 250.03,-169 240.03,-165.5 240.03,-172.5"/>
</g>
</g>
</svg>
