<?xml version="1.0" encoding="UTF-8" standalone="no"?>
<!DOCTYPE svg PUBLIC "-//W3C//DTD SVG 1.1//EN"
 "http://www.w3.org/Graphics/SVG/1.1/DTD/svg11.dtd">
<!-- Generated by graphviz version 2.47.0 (20210316.0004)
 -->
<!-- Title: dependencies Pages: 1 -->
<svg width="576pt" height="284pt"
 viewBox="0.00 0.00 576.00 284.00" xmlns="http://www.w3.org/2000/svg" xmlns:xlink="http://www.w3.org/1999/xlink">
<g id="graph0" class="graph" transform="scale(1 1) rotate(0) translate(4 280)">
<title>dependencies</title>
<polygon fill="white" stroke="transparent" points="-4,4 -4,-280 572,-280 572,4 -4,4"/>
<text text-anchor="start" x="263.01" y="-42.4" font-family="Times-12" font-weight="bold" font-size="14.00">Legend</text>
<polygon fill="#ffffb3" stroke="transparent" points="50,-10 50,-30 70,-30 70,-10 50,-10"/>
<text text-anchor="start" x="73.63" y="-15.4" font-family="Times-12" font-size="14.00"> &#160;Declarations</text>
<polygon fill="#8dd3c7" stroke="transparent" points="163,-10 163,-30 183,-30 183,-10 163,-10"/>
<text text-anchor="start" x="186.73" y="-15.4" font-family="Times-12" font-size="14.00"> &#160;Module</text>
<polygon fill="#80b1d3" stroke="transparent" points="249,-10 249,-30 269,-30 269,-10 249,-10"/>
<text text-anchor="start" x="272.78" y="-15.4" font-family="Times-12" font-size="14.00"> &#160;Bootstrap</text>
<polygon fill="#fdb462" stroke="transparent" points="346,-10 346,-30 366,-30 366,-10 346,-10"/>
<text text-anchor="start" x="369.67" y="-15.4" font-family="Times-12" font-size="14.00"> &#160;Providers</text>
<polygon fill="#fb8072" stroke="transparent" points="442,-10 442,-30 462,-30 462,-10 442,-10"/>
<text text-anchor="start" x="465.73" y="-15.4" font-family="Times-12" font-size="14.00"> &#160;Exports</text>
<g id="clust1" class="cluster">
<title>cluster_FacilityAvailabilityModule</title>
<polygon fill="none" stroke="black" stroke-dasharray="1,5" points="8,-70 8,-268 560,-268 560,-70 8,-70"/>
</g>
<g id="clust6" class="cluster">
<title>cluster_FacilityAvailabilityModule_providers</title>
<polygon fill="none" stroke="black" points="304,-78 304,-130 552,-130 552,-78 304,-78"/>
</g>
<g id="clust3" class="cluster">
<title>cluster_FacilityAvailabilityModule_imports</title>
<polygon fill="none" stroke="black" points="16,-78 16,-130 296,-130 296,-78 16,-78"/>
</g>
<g id="clust4" class="cluster">
<title>cluster_FacilityAvailabilityModule_exports</title>
<polygon fill="none" stroke="black" points="127,-208 127,-260 315,-260 315,-208 127,-208"/>
</g>
<!-- AvailabilitiesModule -->
<g id="node1" class="node">
<title>AvailabilitiesModule</title>
<polygon fill="#8dd3c7" stroke="black" points="288.48,-122 285.48,-126 264.48,-126 261.48,-122 153.52,-122 153.52,-86 288.48,-86 288.48,-122"/>
<text text-anchor="middle" x="221" y="-99.8" font-family="Times,serif" font-size="14.00">AvailabilitiesModule</text>
</g>
<!-- FacilityAvailabilityModule -->
<g id="node3" class="node">
<title>FacilityAvailabilityModule</title>
<polygon fill="#8dd3c7" stroke="black" points="305.7,-187 302.7,-191 281.7,-191 278.7,-187 136.3,-187 136.3,-151 305.7,-151 305.7,-187"/>
<text text-anchor="middle" x="221" y="-164.8" font-family="Times,serif" font-size="14.00">FacilityAvailabilityModule</text>
</g>
<!-- AvailabilitiesModule&#45;&gt;FacilityAvailabilityModule -->
<g id="edge1" class="edge">
<title>AvailabilitiesModule&#45;&gt;FacilityAvailabilityModule</title>
<path fill="none" stroke="black" d="M221,-122.11C221,-122.11 221,-140.99 221,-140.99"/>
<polygon fill="black" stroke="black" points="217.5,-140.99 221,-150.99 224.5,-140.99 217.5,-140.99"/>
</g>
<!-- CommonModule -->
<g id="node2" class="node">
<title>CommonModule</title>
<polygon fill="#8dd3c7" stroke="black" points="135.67,-122 132.67,-126 111.67,-126 108.67,-122 24.33,-122 24.33,-86 135.67,-86 135.67,-122"/>
<text text-anchor="middle" x="80" y="-99.8" font-family="Times,serif" font-size="14.00">CommonModule</text>
</g>
<!-- CommonModule&#45;&gt;FacilityAvailabilityModule -->
<g id="edge2" class="edge">
<title>CommonModule&#45;&gt;FacilityAvailabilityModule</title>
<path fill="none" stroke="black" d="M135.92,-104C141.39,-104 144.95,-104 144.95,-104 144.95,-104 144.95,-140.89 144.95,-140.89"/>
<polygon fill="black" stroke="black" points="141.45,-140.89 144.95,-150.89 148.45,-140.89 141.45,-140.89"/>
</g>
<!-- FacilityAvailabilityService  -->
<g id="node4" class="node">
<title>FacilityAvailabilityService </title>
<polygon fill="#fb8072" stroke="black" points="306.63,-252 135.37,-252 135.37,-216 306.63,-216 306.63,-252"/>
<text text-anchor="middle" x="221" y="-229.8" font-family="Times,serif" font-size="14.00">FacilityAvailabilityService </text>
</g>
<!-- FacilityAvailabilityModule&#45;&gt;FacilityAvailabilityService  -->
<g id="edge3" class="edge">
<title>FacilityAvailabilityModule&#45;&gt;FacilityAvailabilityService </title>
<path fill="none" stroke="black" stroke-dasharray="5,2" d="M221,-187.11C221,-187.11 221,-205.99 221,-205.99"/>
<polygon fill="black" stroke="black" points="217.5,-205.99 221,-215.99 224.5,-205.99 217.5,-205.99"/>
</g>
<!-- FacilityAvailabilityService -->
<g id="node5" class="node">
<title>FacilityAvailabilityService</title>
<ellipse fill="#fdb462" stroke="black" cx="428" cy="-104" rx="115.76" ry="18"/>
<text text-anchor="middle" x="428" y="-99.8" font-family="Times,serif" font-size="14.00">FacilityAvailabilityService</text>
</g>
<!-- FacilityAvailabilityService&#45;&gt;FacilityAvailabilityModule -->
<g id="edge4" class="edge">
<title>FacilityAvailabilityService&#45;&gt;FacilityAvailabilityModule</title>
<path fill="none" stroke="black" d="M312.32,-104C302.98,-104 297.05,-104 297.05,-104 297.05,-104 297.05,-140.89 297.05,-140.89"/>
<polygon fill="black" stroke="black" points="293.55,-140.89 297.05,-150.89 300.55,-140.89 293.55,-140.89"/>
</g>
</g>
</svg>
