<?xml version="1.0" encoding="UTF-8" standalone="no"?>
<!DOCTYPE svg PUBLIC "-//W3C//DTD SVG 1.1//EN"
 "http://www.w3.org/Graphics/SVG/1.1/DTD/svg11.dtd">
<!-- Generated by graphviz version 2.47.0 (20210316.0004)
 -->
<!-- Title: dependencies Pages: 1 -->
<svg width="526pt" height="284pt"
 viewBox="0.00 0.00 526.00 284.00" xmlns="http://www.w3.org/2000/svg" xmlns:xlink="http://www.w3.org/1999/xlink">
<g id="graph0" class="graph" transform="scale(1 1) rotate(0) translate(4 280)">
<title>dependencies</title>
<polygon fill="white" stroke="transparent" points="-4,4 -4,-280 522,-280 522,4 -4,4"/>
<text text-anchor="start" x="238.01" y="-42.4" font-family="Times-12" font-weight="bold" font-size="14.00">Legend</text>
<polygon fill="#ffffb3" stroke="transparent" points="25,-10 25,-30 45,-30 45,-10 25,-10"/>
<text text-anchor="start" x="48.63" y="-15.4" font-family="Times-12" font-size="14.00"> &#160;Declarations</text>
<polygon fill="#8dd3c7" stroke="transparent" points="138,-10 138,-30 158,-30 158,-10 138,-10"/>
<text text-anchor="start" x="161.73" y="-15.4" font-family="Times-12" font-size="14.00"> &#160;Module</text>
<polygon fill="#80b1d3" stroke="transparent" points="224,-10 224,-30 244,-30 244,-10 224,-10"/>
<text text-anchor="start" x="247.78" y="-15.4" font-family="Times-12" font-size="14.00"> &#160;Bootstrap</text>
<polygon fill="#fdb462" stroke="transparent" points="321,-10 321,-30 341,-30 341,-10 321,-10"/>
<text text-anchor="start" x="344.67" y="-15.4" font-family="Times-12" font-size="14.00"> &#160;Providers</text>
<polygon fill="#fb8072" stroke="transparent" points="417,-10 417,-30 437,-30 437,-10 417,-10"/>
<text text-anchor="start" x="440.73" y="-15.4" font-family="Times-12" font-size="14.00"> &#160;Exports</text>
<g id="clust1" class="cluster">
<title>cluster_TodayProgressesModule</title>
<polygon fill="none" stroke="black" stroke-dasharray="1,5" points="8,-70 8,-268 510,-268 510,-70 8,-70"/>
</g>
<g id="clust3" class="cluster">
<title>cluster_TodayProgressesModule_imports</title>
<polygon fill="none" stroke="black" points="252,-78 252,-130 502,-130 502,-78 252,-78"/>
</g>
<g id="clust4" class="cluster">
<title>cluster_TodayProgressesModule_exports</title>
<polygon fill="none" stroke="black" points="229,-208 229,-260 403,-260 403,-208 229,-208"/>
</g>
<g id="clust6" class="cluster">
<title>cluster_TodayProgressesModule_providers</title>
<polygon fill="none" stroke="black" points="16,-78 16,-130 244,-130 244,-78 16,-78"/>
</g>
<!-- ArticlesModule -->
<g id="node1" class="node">
<title>ArticlesModule</title>
<polygon fill="#8dd3c7" stroke="black" points="493.86,-122 490.86,-126 469.86,-126 466.86,-122 390.14,-122 390.14,-86 493.86,-86 493.86,-122"/>
<text text-anchor="middle" x="442" y="-99.8" font-family="Times,serif" font-size="14.00">ArticlesModule</text>
</g>
<!-- TodayProgressesModule -->
<g id="node3" class="node">
<title>TodayProgressesModule</title>
<polygon fill="#8dd3c7" stroke="black" points="393.68,-187 390.68,-191 369.68,-191 366.68,-187 238.32,-187 238.32,-151 393.68,-151 393.68,-187"/>
<text text-anchor="middle" x="316" y="-164.8" font-family="Times,serif" font-size="14.00">TodayProgressesModule</text>
</g>
<!-- ArticlesModule&#45;&gt;TodayProgressesModule -->
<g id="edge1" class="edge">
<title>ArticlesModule&#45;&gt;TodayProgressesModule</title>
<path fill="none" stroke="black" d="M389.96,-104C384.53,-104 380.95,-104 380.95,-104 380.95,-104 380.95,-140.89 380.95,-140.89"/>
<polygon fill="black" stroke="black" points="377.45,-140.89 380.95,-150.89 384.45,-140.89 377.45,-140.89"/>
</g>
<!-- CommonModule -->
<g id="node2" class="node">
<title>CommonModule</title>
<polygon fill="#8dd3c7" stroke="black" points="371.67,-122 368.67,-126 347.67,-126 344.67,-122 260.33,-122 260.33,-86 371.67,-86 371.67,-122"/>
<text text-anchor="middle" x="316" y="-99.8" font-family="Times,serif" font-size="14.00">CommonModule</text>
</g>
<!-- CommonModule&#45;&gt;TodayProgressesModule -->
<g id="edge2" class="edge">
<title>CommonModule&#45;&gt;TodayProgressesModule</title>
<path fill="none" stroke="black" d="M316,-122.11C316,-122.11 316,-140.99 316,-140.99"/>
<polygon fill="black" stroke="black" points="312.5,-140.99 316,-150.99 319.5,-140.99 312.5,-140.99"/>
</g>
<!-- TodayProgressesService  -->
<g id="node4" class="node">
<title>TodayProgressesService </title>
<polygon fill="#fb8072" stroke="black" points="394.61,-252 237.39,-252 237.39,-216 394.61,-216 394.61,-252"/>
<text text-anchor="middle" x="316" y="-229.8" font-family="Times,serif" font-size="14.00">TodayProgressesService </text>
</g>
<!-- TodayProgressesModule&#45;&gt;TodayProgressesService  -->
<g id="edge3" class="edge">
<title>TodayProgressesModule&#45;&gt;TodayProgressesService </title>
<path fill="none" stroke="black" stroke-dasharray="5,2" d="M316,-187.11C316,-187.11 316,-205.99 316,-205.99"/>
<polygon fill="black" stroke="black" points="312.5,-205.99 316,-215.99 319.5,-205.99 312.5,-205.99"/>
</g>
<!-- TodayProgressesService -->
<g id="node5" class="node">
<title>TodayProgressesService</title>
<ellipse fill="#fdb462" stroke="black" cx="130" cy="-104" rx="105.92" ry="18"/>
<text text-anchor="middle" x="130" y="-99.8" font-family="Times,serif" font-size="14.00">TodayProgressesService</text>
</g>
<!-- TodayProgressesService&#45;&gt;TodayProgressesModule -->
<g id="edge4" class="edge">
<title>TodayProgressesService&#45;&gt;TodayProgressesModule</title>
<path fill="none" stroke="black" d="M236.07,-104C244.17,-104 249.29,-104 249.29,-104 249.29,-104 249.29,-140.89 249.29,-140.89"/>
<polygon fill="black" stroke="black" points="245.79,-140.89 249.29,-150.89 252.79,-140.89 245.79,-140.89"/>
</g>
</g>
</svg>
