<?xml version="1.0" encoding="UTF-8" standalone="no"?>
<!DOCTYPE svg PUBLIC "-//W3C//DTD SVG 1.1//EN"
 "http://www.w3.org/Graphics/SVG/1.1/DTD/svg11.dtd">
<!-- Generated by graphviz version 2.47.0 (20210316.0004)
 -->
<!-- Title: dependencies Pages: 1 -->
<svg width="504pt" height="284pt"
 viewBox="0.00 0.00 504.00 284.00" xmlns="http://www.w3.org/2000/svg" xmlns:xlink="http://www.w3.org/1999/xlink">
<g id="graph0" class="graph" transform="scale(1 1) rotate(0) translate(4 280)">
<title>dependencies</title>
<polygon fill="white" stroke="transparent" points="-4,4 -4,-280 500,-280 500,4 -4,4"/>
<text text-anchor="start" x="227.01" y="-42.4" font-family="Times-12" font-weight="bold" font-size="14.00">Legend</text>
<polygon fill="#ffffb3" stroke="transparent" points="14,-10 14,-30 34,-30 34,-10 14,-10"/>
<text text-anchor="start" x="37.63" y="-15.4" font-family="Times-12" font-size="14.00"> &#160;Declarations</text>
<polygon fill="#8dd3c7" stroke="transparent" points="127,-10 127,-30 147,-30 147,-10 127,-10"/>
<text text-anchor="start" x="150.73" y="-15.4" font-family="Times-12" font-size="14.00"> &#160;Module</text>
<polygon fill="#80b1d3" stroke="transparent" points="213,-10 213,-30 233,-30 233,-10 213,-10"/>
<text text-anchor="start" x="236.78" y="-15.4" font-family="Times-12" font-size="14.00"> &#160;Bootstrap</text>
<polygon fill="#fdb462" stroke="transparent" points="310,-10 310,-30 330,-30 330,-10 310,-10"/>
<text text-anchor="start" x="333.67" y="-15.4" font-family="Times-12" font-size="14.00"> &#160;Providers</text>
<polygon fill="#fb8072" stroke="transparent" points="406,-10 406,-30 426,-30 426,-10 406,-10"/>
<text text-anchor="start" x="429.73" y="-15.4" font-family="Times-12" font-size="14.00"> &#160;Exports</text>
<g id="clust1" class="cluster">
<title>cluster_SmokingTriggersModule</title>
<polygon fill="none" stroke="black" stroke-dasharray="1,5" points="56,-70 56,-268 440,-268 440,-70 56,-70"/>
</g>
<g id="clust4" class="cluster">
<title>cluster_SmokingTriggersModule_exports</title>
<polygon fill="none" stroke="black" points="174,-208 174,-260 350,-260 350,-208 174,-208"/>
</g>
<g id="clust3" class="cluster">
<title>cluster_SmokingTriggersModule_imports</title>
<polygon fill="none" stroke="black" points="304,-78 304,-130 432,-130 432,-78 304,-78"/>
</g>
<g id="clust6" class="cluster">
<title>cluster_SmokingTriggersModule_providers</title>
<polygon fill="none" stroke="black" points="64,-78 64,-130 296,-130 296,-78 64,-78"/>
</g>
<!-- CommonModule -->
<g id="node1" class="node">
<title>CommonModule</title>
<polygon fill="#8dd3c7" stroke="black" points="423.67,-122 420.67,-126 399.67,-126 396.67,-122 312.33,-122 312.33,-86 423.67,-86 423.67,-122"/>
<text text-anchor="middle" x="368" y="-99.8" font-family="Times,serif" font-size="14.00">CommonModule</text>
</g>
<!-- SmokingTriggersModule -->
<g id="node2" class="node">
<title>SmokingTriggersModule</title>
<polygon fill="#8dd3c7" stroke="black" points="340.54,-187 337.54,-191 316.54,-191 313.54,-187 183.46,-187 183.46,-151 340.54,-151 340.54,-187"/>
<text text-anchor="middle" x="262" y="-164.8" font-family="Times,serif" font-size="14.00">SmokingTriggersModule</text>
</g>
<!-- CommonModule&#45;&gt;SmokingTriggersModule -->
<g id="edge1" class="edge">
<title>CommonModule&#45;&gt;SmokingTriggersModule</title>
<path fill="none" stroke="black" d="M326.47,-122.11C326.47,-122.11 326.47,-140.99 326.47,-140.99"/>
<polygon fill="black" stroke="black" points="322.97,-140.99 326.47,-150.99 329.97,-140.99 322.97,-140.99"/>
</g>
<!-- SmokingTriggersService  -->
<g id="node3" class="node">
<title>SmokingTriggersService </title>
<polygon fill="#fb8072" stroke="black" points="341.97,-252 182.03,-252 182.03,-216 341.97,-216 341.97,-252"/>
<text text-anchor="middle" x="262" y="-229.8" font-family="Times,serif" font-size="14.00">SmokingTriggersService </text>
</g>
<!-- SmokingTriggersModule&#45;&gt;SmokingTriggersService  -->
<g id="edge2" class="edge">
<title>SmokingTriggersModule&#45;&gt;SmokingTriggersService </title>
<path fill="none" stroke="black" stroke-dasharray="5,2" d="M262,-187.11C262,-187.11 262,-205.99 262,-205.99"/>
<polygon fill="black" stroke="black" points="258.5,-205.99 262,-215.99 265.5,-205.99 258.5,-205.99"/>
</g>
<!-- SmokingTriggersService -->
<g id="node4" class="node">
<title>SmokingTriggersService</title>
<ellipse fill="#fdb462" stroke="black" cx="180" cy="-104" rx="107.66" ry="18"/>
<text text-anchor="middle" x="180" y="-99.8" font-family="Times,serif" font-size="14.00">SmokingTriggersService</text>
</g>
<!-- SmokingTriggersService&#45;&gt;SmokingTriggersModule -->
<g id="edge3" class="edge">
<title>SmokingTriggersService&#45;&gt;SmokingTriggersModule</title>
<path fill="none" stroke="black" d="M235.41,-119.73C235.41,-119.73 235.41,-140.65 235.41,-140.65"/>
<polygon fill="black" stroke="black" points="231.91,-140.65 235.41,-150.65 238.91,-140.65 231.91,-140.65"/>
</g>
</g>
</svg>
