<?xml version="1.0" encoding="UTF-8" standalone="no"?>
<!DOCTYPE svg PUBLIC "-//W3C//DTD SVG 1.1//EN"
 "http://www.w3.org/Graphics/SVG/1.1/DTD/svg11.dtd">
<!-- Generated by graphviz version 2.47.0 (20210316.0004)
 -->
<!-- Title: dependencies Pages: 1 -->
<svg width="504pt" height="284pt"
 viewBox="0.00 0.00 504.00 284.00" xmlns="http://www.w3.org/2000/svg" xmlns:xlink="http://www.w3.org/1999/xlink">
<g id="graph0" class="graph" transform="scale(1 1) rotate(0) translate(4 280)">
<title>dependencies</title>
<polygon fill="white" stroke="transparent" points="-4,4 -4,-280 500,-280 500,4 -4,4"/>
<text text-anchor="start" x="227.01" y="-42.4" font-family="Times-12" font-weight="bold" font-size="14.00">Legend</text>
<polygon fill="#ffffb3" stroke="transparent" points="14,-10 14,-30 34,-30 34,-10 14,-10"/>
<text text-anchor="start" x="37.63" y="-15.4" font-family="Times-12" font-size="14.00"> &#160;Declarations</text>
<polygon fill="#8dd3c7" stroke="transparent" points="127,-10 127,-30 147,-30 147,-10 127,-10"/>
<text text-anchor="start" x="150.73" y="-15.4" font-family="Times-12" font-size="14.00"> &#160;Module</text>
<polygon fill="#80b1d3" stroke="transparent" points="213,-10 213,-30 233,-30 233,-10 213,-10"/>
<text text-anchor="start" x="236.78" y="-15.4" font-family="Times-12" font-size="14.00"> &#160;Bootstrap</text>
<polygon fill="#fdb462" stroke="transparent" points="310,-10 310,-30 330,-30 330,-10 310,-10"/>
<text text-anchor="start" x="333.67" y="-15.4" font-family="Times-12" font-size="14.00"> &#160;Providers</text>
<polygon fill="#fb8072" stroke="transparent" points="406,-10 406,-30 426,-30 426,-10 406,-10"/>
<text text-anchor="start" x="429.73" y="-15.4" font-family="Times-12" font-size="14.00"> &#160;Exports</text>
<g id="clust1" class="cluster">
<title>cluster_ReportsModule</title>
<polygon fill="none" stroke="black" stroke-dasharray="1,5" points="94,-70 94,-268 402,-268 402,-70 94,-70"/>
</g>
<g id="clust4" class="cluster">
<title>cluster_ReportsModule_exports</title>
<polygon fill="none" stroke="black" points="194,-208 194,-260 316,-260 316,-208 194,-208"/>
</g>
<g id="clust3" class="cluster">
<title>cluster_ReportsModule_imports</title>
<polygon fill="none" stroke="black" points="266,-78 266,-130 394,-130 394,-78 266,-78"/>
</g>
<g id="clust6" class="cluster">
<title>cluster_ReportsModule_providers</title>
<polygon fill="none" stroke="black" points="102,-78 102,-130 258,-130 258,-78 102,-78"/>
</g>
<!-- CommonModule -->
<g id="node1" class="node">
<title>CommonModule</title>
<polygon fill="#8dd3c7" stroke="black" points="385.67,-122 382.67,-126 361.67,-126 358.67,-122 274.33,-122 274.33,-86 385.67,-86 385.67,-122"/>
<text text-anchor="middle" x="330" y="-99.8" font-family="Times,serif" font-size="14.00">CommonModule</text>
</g>
<!-- ReportsModule -->
<g id="node2" class="node">
<title>ReportsModule</title>
<polygon fill="#8dd3c7" stroke="black" points="306.6,-187 303.6,-191 282.6,-191 279.6,-187 203.4,-187 203.4,-151 306.6,-151 306.6,-187"/>
<text text-anchor="middle" x="255" y="-164.8" font-family="Times,serif" font-size="14.00">ReportsModule</text>
</g>
<!-- CommonModule&#45;&gt;ReportsModule -->
<g id="edge1" class="edge">
<title>CommonModule&#45;&gt;ReportsModule</title>
<path fill="none" stroke="black" d="M290.36,-122.11C290.36,-122.11 290.36,-140.99 290.36,-140.99"/>
<polygon fill="black" stroke="black" points="286.86,-140.99 290.36,-150.99 293.86,-140.99 286.86,-140.99"/>
</g>
<!-- ReportsService  -->
<g id="node3" class="node">
<title>ReportsService </title>
<polygon fill="#fb8072" stroke="black" points="307.52,-252 202.48,-252 202.48,-216 307.52,-216 307.52,-252"/>
<text text-anchor="middle" x="255" y="-229.8" font-family="Times,serif" font-size="14.00">ReportsService </text>
</g>
<!-- ReportsModule&#45;&gt;ReportsService  -->
<g id="edge2" class="edge">
<title>ReportsModule&#45;&gt;ReportsService </title>
<path fill="none" stroke="black" stroke-dasharray="5,2" d="M255,-187.11C255,-187.11 255,-205.99 255,-205.99"/>
<polygon fill="black" stroke="black" points="251.5,-205.99 255,-215.99 258.5,-205.99 251.5,-205.99"/>
</g>
<!-- ReportsService -->
<g id="node4" class="node">
<title>ReportsService</title>
<ellipse fill="#fdb462" stroke="black" cx="180" cy="-104" rx="70.06" ry="18"/>
<text text-anchor="middle" x="180" y="-99.8" font-family="Times,serif" font-size="14.00">ReportsService</text>
</g>
<!-- ReportsService&#45;&gt;ReportsModule -->
<g id="edge3" class="edge">
<title>ReportsService&#45;&gt;ReportsModule</title>
<path fill="none" stroke="black" d="M226.74,-117.47C226.74,-117.47 226.74,-140.86 226.74,-140.86"/>
<polygon fill="black" stroke="black" points="223.24,-140.86 226.74,-150.86 230.24,-140.86 223.24,-140.86"/>
</g>
</g>
</svg>
