<?xml version="1.0" encoding="UTF-8" standalone="no"?>
<!DOCTYPE svg PUBLIC "-//W3C//DTD SVG 1.1//EN"
 "http://www.w3.org/Graphics/SVG/1.1/DTD/svg11.dtd">
<!-- Generated by graphviz version 2.47.0 (20210316.0004)
 -->
<!-- Title: dependencies Pages: 1 -->
<svg width="504pt" height="284pt"
 viewBox="0.00 0.00 504.00 284.00" xmlns="http://www.w3.org/2000/svg" xmlns:xlink="http://www.w3.org/1999/xlink">
<g id="graph0" class="graph" transform="scale(1 1) rotate(0) translate(4 280)">
<title>dependencies</title>
<polygon fill="white" stroke="transparent" points="-4,4 -4,-280 500,-280 500,4 -4,4"/>
<text text-anchor="start" x="227.01" y="-42.4" font-family="Times-12" font-weight="bold" font-size="14.00">Legend</text>
<polygon fill="#ffffb3" stroke="transparent" points="14,-10 14,-30 34,-30 34,-10 14,-10"/>
<text text-anchor="start" x="37.63" y="-15.4" font-family="Times-12" font-size="14.00"> &#160;Declarations</text>
<polygon fill="#8dd3c7" stroke="transparent" points="127,-10 127,-30 147,-30 147,-10 127,-10"/>
<text text-anchor="start" x="150.73" y="-15.4" font-family="Times-12" font-size="14.00"> &#160;Module</text>
<polygon fill="#80b1d3" stroke="transparent" points="213,-10 213,-30 233,-30 233,-10 213,-10"/>
<text text-anchor="start" x="236.78" y="-15.4" font-family="Times-12" font-size="14.00"> &#160;Bootstrap</text>
<polygon fill="#fdb462" stroke="transparent" points="310,-10 310,-30 330,-30 330,-10 310,-10"/>
<text text-anchor="start" x="333.67" y="-15.4" font-family="Times-12" font-size="14.00"> &#160;Providers</text>
<polygon fill="#fb8072" stroke="transparent" points="406,-10 406,-30 426,-30 426,-10 406,-10"/>
<text text-anchor="start" x="429.73" y="-15.4" font-family="Times-12" font-size="14.00"> &#160;Exports</text>
<g id="clust1" class="cluster">
<title>cluster_ArticlesLabelsModule</title>
<polygon fill="none" stroke="black" stroke-dasharray="1,5" points="68,-70 68,-268 428,-268 428,-70 68,-70"/>
</g>
<g id="clust4" class="cluster">
<title>cluster_ArticlesLabelsModule_exports</title>
<polygon fill="none" stroke="black" points="180,-208 180,-260 340,-260 340,-208 180,-208"/>
</g>
<g id="clust3" class="cluster">
<title>cluster_ArticlesLabelsModule_imports</title>
<polygon fill="none" stroke="black" points="292,-78 292,-130 420,-130 420,-78 292,-78"/>
</g>
<g id="clust6" class="cluster">
<title>cluster_ArticlesLabelsModule_providers</title>
<polygon fill="none" stroke="black" points="76,-78 76,-130 284,-130 284,-78 76,-78"/>
</g>
<!-- CommonModule -->
<g id="node1" class="node">
<title>CommonModule</title>
<polygon fill="#8dd3c7" stroke="black" points="411.67,-122 408.67,-126 387.67,-126 384.67,-122 300.33,-122 300.33,-86 411.67,-86 411.67,-122"/>
<text text-anchor="middle" x="356" y="-99.8" font-family="Times,serif" font-size="14.00">CommonModule</text>
</g>
<!-- ArticlesLabelsModule -->
<g id="node2" class="node">
<title>ArticlesLabelsModule</title>
<polygon fill="#8dd3c7" stroke="black" points="330.68,-187 327.68,-191 306.68,-191 303.68,-187 189.32,-187 189.32,-151 330.68,-151 330.68,-187"/>
<text text-anchor="middle" x="260" y="-164.8" font-family="Times,serif" font-size="14.00">ArticlesLabelsModule</text>
</g>
<!-- CommonModule&#45;&gt;ArticlesLabelsModule -->
<g id="edge1" class="edge">
<title>CommonModule&#45;&gt;ArticlesLabelsModule</title>
<path fill="none" stroke="black" d="M315.38,-122.11C315.38,-122.11 315.38,-140.99 315.38,-140.99"/>
<polygon fill="black" stroke="black" points="311.88,-140.99 315.38,-150.99 318.88,-140.99 311.88,-140.99"/>
</g>
<!-- ArticlesLabelsService  -->
<g id="node3" class="node">
<title>ArticlesLabelsService </title>
<polygon fill="#fb8072" stroke="black" points="331.61,-252 188.39,-252 188.39,-216 331.61,-216 331.61,-252"/>
<text text-anchor="middle" x="260" y="-229.8" font-family="Times,serif" font-size="14.00">ArticlesLabelsService </text>
</g>
<!-- ArticlesLabelsModule&#45;&gt;ArticlesLabelsService  -->
<g id="edge2" class="edge">
<title>ArticlesLabelsModule&#45;&gt;ArticlesLabelsService </title>
<path fill="none" stroke="black" stroke-dasharray="5,2" d="M260,-187.11C260,-187.11 260,-205.99 260,-205.99"/>
<polygon fill="black" stroke="black" points="256.5,-205.99 260,-215.99 263.5,-205.99 256.5,-205.99"/>
</g>
<!-- ArticlesLabelsService -->
<g id="node4" class="node">
<title>ArticlesLabelsService</title>
<ellipse fill="#fdb462" stroke="black" cx="180" cy="-104" rx="96.1" ry="18"/>
<text text-anchor="middle" x="180" y="-99.8" font-family="Times,serif" font-size="14.00">ArticlesLabelsService</text>
</g>
<!-- ArticlesLabelsService&#45;&gt;ArticlesLabelsModule -->
<g id="edge3" class="edge">
<title>ArticlesLabelsService&#45;&gt;ArticlesLabelsModule</title>
<path fill="none" stroke="black" d="M232.85,-119.08C232.85,-119.08 232.85,-140.76 232.85,-140.76"/>
<polygon fill="black" stroke="black" points="229.35,-140.76 232.85,-150.76 236.35,-140.76 229.35,-140.76"/>
</g>
</g>
</svg>
