<?xml version="1.0" encoding="UTF-8" standalone="no"?>
<!DOCTYPE svg PUBLIC "-//W3C//DTD SVG 1.1//EN"
 "http://www.w3.org/Graphics/SVG/1.1/DTD/svg11.dtd">
<!-- Generated by graphviz version 2.47.0 (20210316.0004)
 -->
<!-- Title: dependencies Pages: 1 -->
<svg width="504pt" height="284pt"
 viewBox="0.00 0.00 504.00 284.00" xmlns="http://www.w3.org/2000/svg" xmlns:xlink="http://www.w3.org/1999/xlink">
<g id="graph0" class="graph" transform="scale(1 1) rotate(0) translate(4 280)">
<title>dependencies</title>
<polygon fill="white" stroke="transparent" points="-4,4 -4,-280 500,-280 500,4 -4,4"/>
<text text-anchor="start" x="227.01" y="-42.4" font-family="Times-12" font-weight="bold" font-size="14.00">Legend</text>
<polygon fill="#ffffb3" stroke="transparent" points="14,-10 14,-30 34,-30 34,-10 14,-10"/>
<text text-anchor="start" x="37.63" y="-15.4" font-family="Times-12" font-size="14.00"> &#160;Declarations</text>
<polygon fill="#8dd3c7" stroke="transparent" points="127,-10 127,-30 147,-30 147,-10 127,-10"/>
<text text-anchor="start" x="150.73" y="-15.4" font-family="Times-12" font-size="14.00"> &#160;Module</text>
<polygon fill="#80b1d3" stroke="transparent" points="213,-10 213,-30 233,-30 233,-10 213,-10"/>
<text text-anchor="start" x="236.78" y="-15.4" font-family="Times-12" font-size="14.00"> &#160;Bootstrap</text>
<polygon fill="#fdb462" stroke="transparent" points="310,-10 310,-30 330,-30 330,-10 310,-10"/>
<text text-anchor="start" x="333.67" y="-15.4" font-family="Times-12" font-size="14.00"> &#160;Providers</text>
<polygon fill="#fb8072" stroke="transparent" points="406,-10 406,-30 426,-30 426,-10 406,-10"/>
<text text-anchor="start" x="429.73" y="-15.4" font-family="Times-12" font-size="14.00"> &#160;Exports</text>
<g id="clust1" class="cluster">
<title>cluster_PermissionsModule</title>
<polygon fill="none" stroke="black" stroke-dasharray="1,5" points="77,-70 77,-268 419,-268 419,-70 77,-70"/>
</g>
<g id="clust3" class="cluster">
<title>cluster_PermissionsModule_imports</title>
<polygon fill="none" stroke="black" points="283,-78 283,-130 411,-130 411,-78 283,-78"/>
</g>
<g id="clust6" class="cluster">
<title>cluster_PermissionsModule_providers</title>
<polygon fill="none" stroke="black" points="85,-78 85,-130 275,-130 275,-78 85,-78"/>
</g>
<g id="clust4" class="cluster">
<title>cluster_PermissionsModule_exports</title>
<polygon fill="none" stroke="black" points="186,-208 186,-260 332,-260 332,-208 186,-208"/>
</g>
<!-- CommonModule -->
<g id="node1" class="node">
<title>CommonModule</title>
<polygon fill="#8dd3c7" stroke="black" points="402.67,-122 399.67,-126 378.67,-126 375.67,-122 291.33,-122 291.33,-86 402.67,-86 402.67,-122"/>
<text text-anchor="middle" x="347" y="-99.8" font-family="Times,serif" font-size="14.00">CommonModule</text>
</g>
<!-- PermissionsModule -->
<g id="node2" class="node">
<title>PermissionsModule</title>
<polygon fill="#8dd3c7" stroke="black" points="322.71,-187 319.71,-191 298.71,-191 295.71,-187 195.29,-187 195.29,-151 322.71,-151 322.71,-187"/>
<text text-anchor="middle" x="259" y="-164.8" font-family="Times,serif" font-size="14.00">PermissionsModule</text>
</g>
<!-- CommonModule&#45;&gt;PermissionsModule -->
<g id="edge1" class="edge">
<title>CommonModule&#45;&gt;PermissionsModule</title>
<path fill="none" stroke="black" d="M306.89,-122.11C306.89,-122.11 306.89,-140.99 306.89,-140.99"/>
<polygon fill="black" stroke="black" points="303.39,-140.99 306.89,-150.99 310.39,-140.99 303.39,-140.99"/>
</g>
<!-- PermissionsService  -->
<g id="node3" class="node">
<title>PermissionsService </title>
<polygon fill="#fb8072" stroke="black" points="323.64,-252 194.36,-252 194.36,-216 323.64,-216 323.64,-252"/>
<text text-anchor="middle" x="259" y="-229.8" font-family="Times,serif" font-size="14.00">PermissionsService </text>
</g>
<!-- PermissionsModule&#45;&gt;PermissionsService  -->
<g id="edge2" class="edge">
<title>PermissionsModule&#45;&gt;PermissionsService </title>
<path fill="none" stroke="black" stroke-dasharray="5,2" d="M259,-187.11C259,-187.11 259,-205.99 259,-205.99"/>
<polygon fill="black" stroke="black" points="255.5,-205.99 259,-215.99 262.5,-205.99 255.5,-205.99"/>
</g>
<!-- PermissionsService -->
<g id="node4" class="node">
<title>PermissionsService</title>
<ellipse fill="#fdb462" stroke="black" cx="180" cy="-104" rx="86.83" ry="18"/>
<text text-anchor="middle" x="180" y="-99.8" font-family="Times,serif" font-size="14.00">PermissionsService</text>
</g>
<!-- PermissionsService&#45;&gt;PermissionsModule -->
<g id="edge3" class="edge">
<title>PermissionsService&#45;&gt;PermissionsModule</title>
<path fill="none" stroke="black" d="M231.03,-118.75C231.03,-118.75 231.03,-140.59 231.03,-140.59"/>
<polygon fill="black" stroke="black" points="227.53,-140.59 231.03,-150.59 234.53,-140.59 227.53,-140.59"/>
</g>
</g>
</svg>
