<?xml version="1.0" encoding="UTF-8" standalone="no"?>
<!DOCTYPE svg PUBLIC "-//W3C//DTD SVG 1.1//EN"
 "http://www.w3.org/Graphics/SVG/1.1/DTD/svg11.dtd">
<!-- Generated by graphviz version 2.47.0 (20210316.0004)
 -->
<!-- Title: dependencies Pages: 1 -->
<svg width="1667pt" height="284pt"
 viewBox="0.00 0.00 1667.00 284.00" xmlns="http://www.w3.org/2000/svg" xmlns:xlink="http://www.w3.org/1999/xlink">
<g id="graph0" class="graph" transform="scale(1 1) rotate(0) translate(4 280)">
<title>dependencies</title>
<polygon fill="white" stroke="transparent" points="-4,4 -4,-280 1663,-280 1663,4 -4,4"/>
<text text-anchor="start" x="808.51" y="-42.4" font-family="Times-12" font-weight="bold" font-size="14.00">Legend</text>
<polygon fill="#ffffb3" stroke="transparent" points="595.5,-10 595.5,-30 615.5,-30 615.5,-10 595.5,-10"/>
<text text-anchor="start" x="619.13" y="-15.4" font-family="Times-12" font-size="14.00"> &#160;Declarations</text>
<polygon fill="#8dd3c7" stroke="transparent" points="708.5,-10 708.5,-30 728.5,-30 728.5,-10 708.5,-10"/>
<text text-anchor="start" x="732.23" y="-15.4" font-family="Times-12" font-size="14.00"> &#160;Module</text>
<polygon fill="#80b1d3" stroke="transparent" points="794.5,-10 794.5,-30 814.5,-30 814.5,-10 794.5,-10"/>
<text text-anchor="start" x="818.28" y="-15.4" font-family="Times-12" font-size="14.00"> &#160;Bootstrap</text>
<polygon fill="#fdb462" stroke="transparent" points="891.5,-10 891.5,-30 911.5,-30 911.5,-10 891.5,-10"/>
<text text-anchor="start" x="915.17" y="-15.4" font-family="Times-12" font-size="14.00"> &#160;Providers</text>
<polygon fill="#fb8072" stroke="transparent" points="987.5,-10 987.5,-30 1007.5,-30 1007.5,-10 987.5,-10"/>
<text text-anchor="start" x="1011.23" y="-15.4" font-family="Times-12" font-size="14.00"> &#160;Exports</text>
<g id="clust1" class="cluster">
<title>cluster_AuthModule</title>
<polygon fill="none" stroke="black" stroke-dasharray="1,5" points="8,-70 8,-268 1651,-268 1651,-70 8,-70"/>
</g>
<g id="clust3" class="cluster">
<title>cluster_AuthModule_imports</title>
<polygon fill="none" stroke="black" points="1112,-78 1112,-130 1643,-130 1643,-78 1112,-78"/>
</g>
<g id="clust4" class="cluster">
<title>cluster_AuthModule_exports</title>
<polygon fill="none" stroke="black" points="779,-208 779,-260 1003,-260 1003,-208 779,-208"/>
</g>
<g id="clust6" class="cluster">
<title>cluster_AuthModule_providers</title>
<polygon fill="none" stroke="black" points="16,-78 16,-130 1104,-130 1104,-78 16,-78"/>
</g>
<!-- AssessmentsModule -->
<g id="node1" class="node">
<title>AssessmentsModule</title>
<polygon fill="#8dd3c7" stroke="black" points="1634.59,-122 1631.59,-126 1610.59,-126 1607.59,-122 1503.41,-122 1503.41,-86 1634.59,-86 1634.59,-122"/>
<text text-anchor="middle" x="1569" y="-99.8" font-family="Times,serif" font-size="14.00">AssessmentsModule</text>
</g>
<!-- AuthModule -->
<g id="node5" class="node">
<title>AuthModule</title>
<polygon fill="#8dd3c7" stroke="black" points="936.55,-187 933.55,-191 912.55,-191 909.55,-187 849.45,-187 849.45,-151 936.55,-151 936.55,-187"/>
<text text-anchor="middle" x="893" y="-164.8" font-family="Times,serif" font-size="14.00">AuthModule</text>
</g>
<!-- AssessmentsModule&#45;&gt;AuthModule -->
<g id="edge1" class="edge">
<title>AssessmentsModule&#45;&gt;AuthModule</title>
<path fill="none" stroke="black" d="M1569,-122.25C1569,-145.02 1569,-181 1569,-181 1569,-181 946.57,-181 946.57,-181"/>
<polygon fill="black" stroke="black" points="946.57,-177.5 936.57,-181 946.57,-184.5 946.57,-177.5"/>
</g>
<!-- CommonModule -->
<g id="node2" class="node">
<title>CommonModule</title>
<polygon fill="#8dd3c7" stroke="black" points="1485.67,-122 1482.67,-126 1461.67,-126 1458.67,-122 1374.33,-122 1374.33,-86 1485.67,-86 1485.67,-122"/>
<text text-anchor="middle" x="1430" y="-99.8" font-family="Times,serif" font-size="14.00">CommonModule</text>
</g>
<!-- CommonModule&#45;&gt;AuthModule -->
<g id="edge2" class="edge">
<title>CommonModule&#45;&gt;AuthModule</title>
<path fill="none" stroke="black" d="M1430,-122.28C1430,-143.32 1430,-175 1430,-175 1430,-175 946.94,-175 946.94,-175"/>
<polygon fill="black" stroke="black" points="946.94,-171.5 936.94,-175 946.94,-178.5 946.94,-171.5"/>
</g>
<!-- NotificationModule -->
<g id="node3" class="node">
<title>NotificationModule</title>
<polygon fill="#8dd3c7" stroke="black" points="1356.7,-122 1353.7,-126 1332.7,-126 1329.7,-122 1229.3,-122 1229.3,-86 1356.7,-86 1356.7,-122"/>
<text text-anchor="middle" x="1293" y="-99.8" font-family="Times,serif" font-size="14.00">NotificationModule</text>
</g>
<!-- NotificationModule&#45;&gt;AuthModule -->
<g id="edge3" class="edge">
<title>NotificationModule&#45;&gt;AuthModule</title>
<path fill="none" stroke="black" d="M1293,-122.11C1293,-141.34 1293,-169 1293,-169 1293,-169 946.57,-169 946.57,-169"/>
<polygon fill="black" stroke="black" points="946.57,-165.5 936.57,-169 946.57,-172.5 946.57,-165.5"/>
</g>
<!-- UsersModule -->
<g id="node4" class="node">
<title>UsersModule</title>
<polygon fill="#8dd3c7" stroke="black" points="1211.92,-122 1208.92,-126 1187.92,-126 1184.92,-122 1120.08,-122 1120.08,-86 1211.92,-86 1211.92,-122"/>
<text text-anchor="middle" x="1166" y="-99.8" font-family="Times,serif" font-size="14.00">UsersModule</text>
</g>
<!-- UsersModule&#45;&gt;AuthModule -->
<g id="edge4" class="edge">
<title>UsersModule&#45;&gt;AuthModule</title>
<path fill="none" stroke="black" d="M1166,-122.02C1166,-139.37 1166,-163 1166,-163 1166,-163 946.56,-163 946.56,-163"/>
<polygon fill="black" stroke="black" points="946.56,-159.5 936.56,-163 946.56,-166.5 946.56,-159.5"/>
</g>
<!-- AuthService  -->
<g id="node6" class="node">
<title>AuthService </title>
<polygon fill="#fb8072" stroke="black" points="994.98,-252 905.02,-252 905.02,-216 994.98,-216 994.98,-252"/>
<text text-anchor="middle" x="950" y="-229.8" font-family="Times,serif" font-size="14.00">AuthService </text>
</g>
<!-- AuthModule&#45;&gt;AuthService  -->
<g id="edge5" class="edge">
<title>AuthModule&#45;&gt;AuthService </title>
<path fill="none" stroke="black" stroke-dasharray="5,2" d="M921.02,-187.11C921.02,-187.11 921.02,-205.99 921.02,-205.99"/>
<polygon fill="black" stroke="black" points="917.52,-205.99 921.02,-215.99 924.52,-205.99 917.52,-205.99"/>
</g>
<!-- BcryptService  -->
<g id="node7" class="node">
<title>BcryptService </title>
<polygon fill="#fb8072" stroke="black" points="886.58,-252 787.42,-252 787.42,-216 886.58,-216 886.58,-252"/>
<text text-anchor="middle" x="837" y="-229.8" font-family="Times,serif" font-size="14.00">BcryptService </text>
</g>
<!-- AuthModule&#45;&gt;BcryptService  -->
<g id="edge6" class="edge">
<title>AuthModule&#45;&gt;BcryptService </title>
<path fill="none" stroke="black" stroke-dasharray="5,2" d="M868.01,-187.11C868.01,-187.11 868.01,-205.99 868.01,-205.99"/>
<polygon fill="black" stroke="black" points="864.51,-205.99 868.01,-215.99 871.51,-205.99 864.51,-205.99"/>
</g>
<!-- AuthService -->
<g id="node8" class="node">
<title>AuthService</title>
<ellipse fill="#fdb462" stroke="black" cx="1037" cy="-104" rx="59.11" ry="18"/>
<text text-anchor="middle" x="1037" y="-99.8" font-family="Times,serif" font-size="14.00">AuthService</text>
</g>
<!-- AuthService&#45;&gt;AuthModule -->
<g id="edge7" class="edge">
<title>AuthService&#45;&gt;AuthModule</title>
<path fill="none" stroke="black" d="M986.22,-113.72C986.22,-129.02 986.22,-157 986.22,-157 986.22,-157 946.61,-157 946.61,-157"/>
<polygon fill="black" stroke="black" points="946.61,-153.5 936.61,-157 946.61,-160.5 946.61,-153.5"/>
</g>
<!-- BcryptService -->
<g id="node9" class="node">
<title>BcryptService</title>
<ellipse fill="#fdb462" stroke="black" cx="893" cy="-104" rx="66.05" ry="18"/>
<text text-anchor="middle" x="893" y="-99.8" font-family="Times,serif" font-size="14.00">BcryptService</text>
</g>
<!-- BcryptService&#45;&gt;AuthModule -->
<g id="edge8" class="edge">
<title>BcryptService&#45;&gt;AuthModule</title>
<path fill="none" stroke="black" d="M893,-122.11C893,-122.11 893,-140.99 893,-140.99"/>
<polygon fill="black" stroke="black" points="889.5,-140.99 893,-150.99 896.5,-140.99 889.5,-140.99"/>
</g>
<!-- CommonService -->
<g id="node10" class="node">
<title>CommonService</title>
<ellipse fill="#fdb462" stroke="black" cx="733" cy="-104" rx="75.88" ry="18"/>
<text text-anchor="middle" x="733" y="-99.8" font-family="Times,serif" font-size="14.00">CommonService</text>
</g>
<!-- CommonService&#45;&gt;AuthModule -->
<g id="edge9" class="edge">
<title>CommonService&#45;&gt;AuthModule</title>
<path fill="none" stroke="black" d="M798.08,-113.72C798.08,-129.02 798.08,-157 798.08,-157 798.08,-157 839.43,-157 839.43,-157"/>
<polygon fill="black" stroke="black" points="839.43,-160.5 849.43,-157 839.43,-153.5 839.43,-160.5"/>
</g>
<!-- EnvironmentService -->
<g id="node11" class="node">
<title>EnvironmentService</title>
<ellipse fill="#fdb462" stroke="black" cx="549" cy="-104" rx="90.33" ry="18"/>
<text text-anchor="middle" x="549" y="-99.8" font-family="Times,serif" font-size="14.00">EnvironmentService</text>
</g>
<!-- EnvironmentService&#45;&gt;AuthModule -->
<g id="edge10" class="edge">
<title>EnvironmentService&#45;&gt;AuthModule</title>
<path fill="none" stroke="black" d="M549,-122.02C549,-139.37 549,-163 549,-163 549,-163 839.43,-163 839.43,-163"/>
<polygon fill="black" stroke="black" points="839.43,-166.5 849.43,-163 839.43,-159.5 839.43,-166.5"/>
</g>
<!-- JwtStrategy -->
<g id="node12" class="node">
<title>JwtStrategy</title>
<ellipse fill="#fdb462" stroke="black" cx="384" cy="-104" rx="56.76" ry="18"/>
<text text-anchor="middle" x="384" y="-99.8" font-family="Times,serif" font-size="14.00">JwtStrategy</text>
</g>
<!-- JwtStrategy&#45;&gt;AuthModule -->
<g id="edge11" class="edge">
<title>JwtStrategy&#45;&gt;AuthModule</title>
<path fill="none" stroke="black" d="M384,-122.11C384,-141.34 384,-169 384,-169 384,-169 839.16,-169 839.16,-169"/>
<polygon fill="black" stroke="black" points="839.16,-172.5 849.16,-169 839.16,-165.5 839.16,-172.5"/>
</g>
<!-- PatientService -->
<g id="node13" class="node">
<title>PatientService</title>
<ellipse fill="#fdb462" stroke="black" cx="243" cy="-104" rx="66.63" ry="18"/>
<text text-anchor="middle" x="243" y="-99.8" font-family="Times,serif" font-size="14.00">PatientService</text>
</g>
<!-- PatientService&#45;&gt;AuthModule -->
<g id="edge12" class="edge">
<title>PatientService&#45;&gt;AuthModule</title>
<path fill="none" stroke="black" d="M243,-122.28C243,-143.32 243,-175 243,-175 243,-175 839.34,-175 839.34,-175"/>
<polygon fill="black" stroke="black" points="839.34,-178.5 849.34,-175 839.34,-171.5 839.34,-178.5"/>
</g>
<!-- SettingService -->
<g id="node14" class="node">
<title>SettingService</title>
<ellipse fill="#fdb462" stroke="black" cx="91" cy="-104" rx="67.21" ry="18"/>
<text text-anchor="middle" x="91" y="-99.8" font-family="Times,serif" font-size="14.00">SettingService</text>
</g>
<!-- SettingService&#45;&gt;AuthModule -->
<g id="edge13" class="edge">
<title>SettingService&#45;&gt;AuthModule</title>
<path fill="none" stroke="black" d="M91,-122.25C91,-145.02 91,-181 91,-181 91,-181 839.31,-181 839.31,-181"/>
<polygon fill="black" stroke="black" points="839.31,-184.5 849.31,-181 839.31,-177.5 839.31,-184.5"/>
</g>
</g>
</svg>
