<?xml version="1.0" encoding="UTF-8" standalone="no"?>
<!DOCTYPE svg PUBLIC "-//W3C//DTD SVG 1.1//EN"
 "http://www.w3.org/Graphics/SVG/1.1/DTD/svg11.dtd">
<!-- Generated by graphviz version 2.47.0 (20210316.0004)
 -->
<!-- Title: dependencies Pages: 1 -->
<svg width="504pt" height="284pt"
 viewBox="0.00 0.00 504.00 284.00" xmlns="http://www.w3.org/2000/svg" xmlns:xlink="http://www.w3.org/1999/xlink">
<g id="graph0" class="graph" transform="scale(1 1) rotate(0) translate(4 280)">
<title>dependencies</title>
<polygon fill="white" stroke="transparent" points="-4,4 -4,-280 500,-280 500,4 -4,4"/>
<text text-anchor="start" x="227.01" y="-42.4" font-family="Times-12" font-weight="bold" font-size="14.00">Legend</text>
<polygon fill="#ffffb3" stroke="transparent" points="14,-10 14,-30 34,-30 34,-10 14,-10"/>
<text text-anchor="start" x="37.63" y="-15.4" font-family="Times-12" font-size="14.00"> &#160;Declarations</text>
<polygon fill="#8dd3c7" stroke="transparent" points="127,-10 127,-30 147,-30 147,-10 127,-10"/>
<text text-anchor="start" x="150.73" y="-15.4" font-family="Times-12" font-size="14.00"> &#160;Module</text>
<polygon fill="#80b1d3" stroke="transparent" points="213,-10 213,-30 233,-30 233,-10 213,-10"/>
<text text-anchor="start" x="236.78" y="-15.4" font-family="Times-12" font-size="14.00"> &#160;Bootstrap</text>
<polygon fill="#fdb462" stroke="transparent" points="310,-10 310,-30 330,-30 330,-10 310,-10"/>
<text text-anchor="start" x="333.67" y="-15.4" font-family="Times-12" font-size="14.00"> &#160;Providers</text>
<polygon fill="#fb8072" stroke="transparent" points="406,-10 406,-30 426,-30 426,-10 406,-10"/>
<text text-anchor="start" x="429.73" y="-15.4" font-family="Times-12" font-size="14.00"> &#160;Exports</text>
<g id="clust1" class="cluster">
<title>cluster_GroupsModule</title>
<polygon fill="none" stroke="black" stroke-dasharray="1,5" points="96,-70 96,-268 400,-268 400,-70 96,-70"/>
</g>
<g id="clust3" class="cluster">
<title>cluster_GroupsModule_imports</title>
<polygon fill="none" stroke="black" points="264,-78 264,-130 392,-130 392,-78 264,-78"/>
</g>
<g id="clust6" class="cluster">
<title>cluster_GroupsModule_providers</title>
<polygon fill="none" stroke="black" points="104,-78 104,-130 256,-130 256,-78 104,-78"/>
</g>
<g id="clust4" class="cluster">
<title>cluster_GroupsModule_exports</title>
<polygon fill="none" stroke="black" points="195,-208 195,-260 313,-260 313,-208 195,-208"/>
</g>
<!-- CommonModule -->
<g id="node1" class="node">
<title>CommonModule</title>
<polygon fill="#8dd3c7" stroke="black" points="383.67,-122 380.67,-126 359.67,-126 356.67,-122 272.33,-122 272.33,-86 383.67,-86 383.67,-122"/>
<text text-anchor="middle" x="328" y="-99.8" font-family="Times,serif" font-size="14.00">CommonModule</text>
</g>
<!-- GroupsModule -->
<g id="node2" class="node">
<title>GroupsModule</title>
<polygon fill="#8dd3c7" stroke="black" points="304.26,-187 301.26,-191 280.26,-191 277.26,-187 203.74,-187 203.74,-151 304.26,-151 304.26,-187"/>
<text text-anchor="middle" x="254" y="-164.8" font-family="Times,serif" font-size="14.00">GroupsModule</text>
</g>
<!-- CommonModule&#45;&gt;GroupsModule -->
<g id="edge1" class="edge">
<title>CommonModule&#45;&gt;GroupsModule</title>
<path fill="none" stroke="black" d="M288.27,-122.11C288.27,-122.11 288.27,-140.99 288.27,-140.99"/>
<polygon fill="black" stroke="black" points="284.77,-140.99 288.27,-150.99 291.77,-140.99 284.77,-140.99"/>
</g>
<!-- GroupsService  -->
<g id="node3" class="node">
<title>GroupsService </title>
<polygon fill="#fb8072" stroke="black" points="305.19,-252 202.81,-252 202.81,-216 305.19,-216 305.19,-252"/>
<text text-anchor="middle" x="254" y="-229.8" font-family="Times,serif" font-size="14.00">GroupsService </text>
</g>
<!-- GroupsModule&#45;&gt;GroupsService  -->
<g id="edge2" class="edge">
<title>GroupsModule&#45;&gt;GroupsService </title>
<path fill="none" stroke="black" stroke-dasharray="5,2" d="M254,-187.11C254,-187.11 254,-205.99 254,-205.99"/>
<polygon fill="black" stroke="black" points="250.5,-205.99 254,-215.99 257.5,-205.99 250.5,-205.99"/>
</g>
<!-- GroupsService -->
<g id="node4" class="node">
<title>GroupsService</title>
<ellipse fill="#fdb462" stroke="black" cx="180" cy="-104" rx="68.34" ry="18"/>
<text text-anchor="middle" x="180" y="-99.8" font-family="Times,serif" font-size="14.00">GroupsService</text>
</g>
<!-- GroupsService&#45;&gt;GroupsModule -->
<g id="edge3" class="edge">
<title>GroupsService&#45;&gt;GroupsModule</title>
<path fill="none" stroke="black" d="M226.02,-117.47C226.02,-117.47 226.02,-140.86 226.02,-140.86"/>
<polygon fill="black" stroke="black" points="222.52,-140.86 226.02,-150.86 229.52,-140.86 222.52,-140.86"/>
</g>
</g>
</svg>
