<?xml version="1.0" encoding="UTF-8" standalone="no"?>
<!DOCTYPE svg PUBLIC "-//W3C//DTD SVG 1.1//EN"
 "http://www.w3.org/Graphics/SVG/1.1/DTD/svg11.dtd">
<!-- Generated by graphviz version 2.47.0 (20210316.0004)
 -->
<!-- Title: dependencies Pages: 1 -->
<svg width="928pt" height="284pt"
 viewBox="0.00 0.00 928.00 284.00" xmlns="http://www.w3.org/2000/svg" xmlns:xlink="http://www.w3.org/1999/xlink">
<g id="graph0" class="graph" transform="scale(1 1) rotate(0) translate(4 280)">
<title>dependencies</title>
<polygon fill="white" stroke="transparent" points="-4,4 -4,-280 924,-280 924,4 -4,4"/>
<text text-anchor="start" x="439.01" y="-42.4" font-family="Times-12" font-weight="bold" font-size="14.00">Legend</text>
<polygon fill="#ffffb3" stroke="transparent" points="226,-10 226,-30 246,-30 246,-10 226,-10"/>
<text text-anchor="start" x="249.63" y="-15.4" font-family="Times-12" font-size="14.00"> &#160;Declarations</text>
<polygon fill="#8dd3c7" stroke="transparent" points="339,-10 339,-30 359,-30 359,-10 339,-10"/>
<text text-anchor="start" x="362.73" y="-15.4" font-family="Times-12" font-size="14.00"> &#160;Module</text>
<polygon fill="#80b1d3" stroke="transparent" points="425,-10 425,-30 445,-30 445,-10 425,-10"/>
<text text-anchor="start" x="448.78" y="-15.4" font-family="Times-12" font-size="14.00"> &#160;Bootstrap</text>
<polygon fill="#fdb462" stroke="transparent" points="522,-10 522,-30 542,-30 542,-10 522,-10"/>
<text text-anchor="start" x="545.67" y="-15.4" font-family="Times-12" font-size="14.00"> &#160;Providers</text>
<polygon fill="#fb8072" stroke="transparent" points="618,-10 618,-30 638,-30 638,-10 618,-10"/>
<text text-anchor="start" x="641.73" y="-15.4" font-family="Times-12" font-size="14.00"> &#160;Exports</text>
<g id="clust1" class="cluster">
<title>cluster_PrivateChatsModule</title>
<polygon fill="none" stroke="black" stroke-dasharray="1,5" points="8,-70 8,-268 912,-268 912,-70 8,-70"/>
</g>
<g id="clust6" class="cluster">
<title>cluster_PrivateChatsModule_providers</title>
<polygon fill="none" stroke="black" points="508,-78 508,-130 904,-130 904,-78 508,-78"/>
</g>
<g id="clust3" class="cluster">
<title>cluster_PrivateChatsModule_imports</title>
<polygon fill="none" stroke="black" points="16,-78 16,-130 500,-130 500,-78 16,-78"/>
</g>
<g id="clust4" class="cluster">
<title>cluster_PrivateChatsModule_exports</title>
<polygon fill="none" stroke="black" points="285,-208 285,-260 589,-260 589,-208 285,-208"/>
</g>
<!-- CommonModule -->
<g id="node1" class="node">
<title>CommonModule</title>
<polygon fill="#8dd3c7" stroke="black" points="491.67,-122 488.67,-126 467.67,-126 464.67,-122 380.33,-122 380.33,-86 491.67,-86 491.67,-122"/>
<text text-anchor="middle" x="436" y="-99.8" font-family="Times,serif" font-size="14.00">CommonModule</text>
</g>
<!-- PrivateChatsModule -->
<g id="node4" class="node">
<title>PrivateChatsModule</title>
<polygon fill="#8dd3c7" stroke="black" points="501.59,-187 498.59,-191 477.59,-191 474.59,-187 370.41,-187 370.41,-151 501.59,-151 501.59,-187"/>
<text text-anchor="middle" x="436" y="-164.8" font-family="Times,serif" font-size="14.00">PrivateChatsModule</text>
</g>
<!-- CommonModule&#45;&gt;PrivateChatsModule -->
<g id="edge1" class="edge">
<title>CommonModule&#45;&gt;PrivateChatsModule</title>
<path fill="none" stroke="black" d="M436,-122.11C436,-122.11 436,-140.99 436,-140.99"/>
<polygon fill="black" stroke="black" points="432.5,-140.99 436,-150.99 439.5,-140.99 432.5,-140.99"/>
</g>
<!-- HealthFacilityModule -->
<g id="node2" class="node">
<title>HealthFacilityModule</title>
<polygon fill="#8dd3c7" stroke="black" points="361.64,-122 358.64,-126 337.64,-126 334.64,-122 222.36,-122 222.36,-86 361.64,-86 361.64,-122"/>
<text text-anchor="middle" x="292" y="-99.8" font-family="Times,serif" font-size="14.00">HealthFacilityModule</text>
</g>
<!-- HealthFacilityModule&#45;&gt;PrivateChatsModule -->
<g id="edge2" class="edge">
<title>HealthFacilityModule&#45;&gt;PrivateChatsModule</title>
<path fill="none" stroke="black" d="M361.93,-104C369.94,-104 375.31,-104 375.31,-104 375.31,-104 375.31,-140.89 375.31,-140.89"/>
<polygon fill="black" stroke="black" points="371.81,-140.89 375.31,-150.89 378.81,-140.89 371.81,-140.89"/>
</g>
<!-- PrivateChatMessagesModule -->
<g id="node3" class="node">
<title>PrivateChatMessagesModule</title>
<polygon fill="#8dd3c7" stroke="black" points="204.07,-122 201.07,-126 180.07,-126 177.07,-122 23.93,-122 23.93,-86 204.07,-86 204.07,-122"/>
<text text-anchor="middle" x="114" y="-99.8" font-family="Times,serif" font-size="14.00">PrivateChatMessagesModule</text>
</g>
<!-- PrivateChatMessagesModule&#45;&gt;PrivateChatsModule -->
<g id="edge3" class="edge">
<title>PrivateChatMessagesModule&#45;&gt;PrivateChatsModule</title>
<path fill="none" stroke="black" d="M114,-122.11C114,-141.34 114,-169 114,-169 114,-169 360.45,-169 360.45,-169"/>
<polygon fill="black" stroke="black" points="360.45,-172.5 370.45,-169 360.45,-165.5 360.45,-172.5"/>
</g>
<!-- PrivateChatsListener  -->
<g id="node5" class="node">
<title>PrivateChatsListener </title>
<polygon fill="#fb8072" stroke="black" points="581.41,-252 444.59,-252 444.59,-216 581.41,-216 581.41,-252"/>
<text text-anchor="middle" x="513" y="-229.8" font-family="Times,serif" font-size="14.00">PrivateChatsListener </text>
</g>
<!-- PrivateChatsModule&#45;&gt;PrivateChatsListener  -->
<g id="edge4" class="edge">
<title>PrivateChatsModule&#45;&gt;PrivateChatsListener </title>
<path fill="none" stroke="black" stroke-dasharray="5,2" d="M473.05,-187.11C473.05,-187.11 473.05,-205.99 473.05,-205.99"/>
<polygon fill="black" stroke="black" points="469.55,-205.99 473.05,-215.99 476.55,-205.99 469.55,-205.99"/>
</g>
<!-- PrivateChatsService  -->
<g id="node6" class="node">
<title>PrivateChatsService </title>
<polygon fill="#fb8072" stroke="black" points="426.52,-252 293.48,-252 293.48,-216 426.52,-216 426.52,-252"/>
<text text-anchor="middle" x="360" y="-229.8" font-family="Times,serif" font-size="14.00">PrivateChatsService </text>
</g>
<!-- PrivateChatsModule&#45;&gt;PrivateChatsService  -->
<g id="edge5" class="edge">
<title>PrivateChatsModule&#45;&gt;PrivateChatsService </title>
<path fill="none" stroke="black" stroke-dasharray="5,2" d="M398.48,-187.11C398.48,-187.11 398.48,-205.99 398.48,-205.99"/>
<polygon fill="black" stroke="black" points="394.98,-205.99 398.48,-215.99 401.98,-205.99 394.98,-205.99"/>
</g>
<!-- PrivateChatsListener -->
<g id="node7" class="node">
<title>PrivateChatsListener</title>
<ellipse fill="#fdb462" stroke="black" cx="804" cy="-104" rx="92.05" ry="18"/>
<text text-anchor="middle" x="804" y="-99.8" font-family="Times,serif" font-size="14.00">PrivateChatsListener</text>
</g>
<!-- PrivateChatsListener&#45;&gt;PrivateChatsModule -->
<g id="edge6" class="edge">
<title>PrivateChatsListener&#45;&gt;PrivateChatsModule</title>
<path fill="none" stroke="black" d="M804,-122.11C804,-141.34 804,-169 804,-169 804,-169 511.79,-169 511.79,-169"/>
<polygon fill="black" stroke="black" points="511.79,-165.5 501.79,-169 511.79,-172.5 511.79,-165.5"/>
</g>
<!-- PrivateChatsService -->
<g id="node8" class="node">
<title>PrivateChatsService</title>
<ellipse fill="#fdb462" stroke="black" cx="605" cy="-104" rx="89.18" ry="18"/>
<text text-anchor="middle" x="605" y="-99.8" font-family="Times,serif" font-size="14.00">PrivateChatsService</text>
</g>
<!-- PrivateChatsService&#45;&gt;PrivateChatsModule -->
<g id="edge7" class="edge">
<title>PrivateChatsService&#45;&gt;PrivateChatsModule</title>
<path fill="none" stroke="black" d="M515.56,-104C504.33,-104 496.69,-104 496.69,-104 496.69,-104 496.69,-140.89 496.69,-140.89"/>
<polygon fill="black" stroke="black" points="493.19,-140.89 496.69,-150.89 500.19,-140.89 493.19,-140.89"/>
</g>
</g>
</svg>
