<?xml version="1.0" encoding="UTF-8" standalone="no"?>
<!DOCTYPE svg PUBLIC "-//W3C//DTD SVG 1.1//EN"
 "http://www.w3.org/Graphics/SVG/1.1/DTD/svg11.dtd">
<!-- Generated by graphviz version 2.47.0 (20210316.0004)
 -->
<!-- Title: dependencies Pages: 1 -->
<svg width="536pt" height="284pt"
 viewBox="0.00 0.00 536.00 284.00" xmlns="http://www.w3.org/2000/svg" xmlns:xlink="http://www.w3.org/1999/xlink">
<g id="graph0" class="graph" transform="scale(1 1) rotate(0) translate(4 280)">
<title>dependencies</title>
<polygon fill="white" stroke="transparent" points="-4,4 -4,-280 532,-280 532,4 -4,4"/>
<text text-anchor="start" x="243.01" y="-42.4" font-family="Times-12" font-weight="bold" font-size="14.00">Legend</text>
<polygon fill="#ffffb3" stroke="transparent" points="30,-10 30,-30 50,-30 50,-10 30,-10"/>
<text text-anchor="start" x="53.63" y="-15.4" font-family="Times-12" font-size="14.00"> &#160;Declarations</text>
<polygon fill="#8dd3c7" stroke="transparent" points="143,-10 143,-30 163,-30 163,-10 143,-10"/>
<text text-anchor="start" x="166.73" y="-15.4" font-family="Times-12" font-size="14.00"> &#160;Module</text>
<polygon fill="#80b1d3" stroke="transparent" points="229,-10 229,-30 249,-30 249,-10 229,-10"/>
<text text-anchor="start" x="252.78" y="-15.4" font-family="Times-12" font-size="14.00"> &#160;Bootstrap</text>
<polygon fill="#fdb462" stroke="transparent" points="326,-10 326,-30 346,-30 346,-10 326,-10"/>
<text text-anchor="start" x="349.67" y="-15.4" font-family="Times-12" font-size="14.00"> &#160;Providers</text>
<polygon fill="#fb8072" stroke="transparent" points="422,-10 422,-30 442,-30 442,-10 422,-10"/>
<text text-anchor="start" x="445.73" y="-15.4" font-family="Times-12" font-size="14.00"> &#160;Exports</text>
<g id="clust1" class="cluster">
<title>cluster_FaqCategoriesModule</title>
<polygon fill="none" stroke="black" stroke-dasharray="1,5" points="8,-70 8,-268 520,-268 520,-70 8,-70"/>
</g>
<g id="clust4" class="cluster">
<title>cluster_FaqCategoriesModule_exports</title>
<polygon fill="none" stroke="black" points="148,-208 148,-260 306,-260 306,-208 148,-208"/>
</g>
<g id="clust6" class="cluster">
<title>cluster_FaqCategoriesModule_providers</title>
<polygon fill="none" stroke="black" points="152,-78 152,-130 512,-130 512,-78 152,-78"/>
</g>
<g id="clust3" class="cluster">
<title>cluster_FaqCategoriesModule_imports</title>
<polygon fill="none" stroke="black" points="16,-78 16,-130 144,-130 144,-78 16,-78"/>
</g>
<!-- CommonModule -->
<g id="node1" class="node">
<title>CommonModule</title>
<polygon fill="#8dd3c7" stroke="black" points="135.67,-122 132.67,-126 111.67,-126 108.67,-122 24.33,-122 24.33,-86 135.67,-86 135.67,-122"/>
<text text-anchor="middle" x="80" y="-99.8" font-family="Times,serif" font-size="14.00">CommonModule</text>
</g>
<!-- FaqCategoriesModule -->
<g id="node2" class="node">
<title>FaqCategoriesModule</title>
<polygon fill="#8dd3c7" stroke="black" points="297.41,-187 294.41,-191 273.41,-191 270.41,-187 156.59,-187 156.59,-151 297.41,-151 297.41,-187"/>
<text text-anchor="middle" x="227" y="-164.8" font-family="Times,serif" font-size="14.00">FaqCategoriesModule</text>
</g>
<!-- CommonModule&#45;&gt;FaqCategoriesModule -->
<g id="edge1" class="edge">
<title>CommonModule&#45;&gt;FaqCategoriesModule</title>
<path fill="none" stroke="black" d="M80,-122.11C80,-141.34 80,-169 80,-169 80,-169 146.51,-169 146.51,-169"/>
<polygon fill="black" stroke="black" points="146.51,-172.5 156.51,-169 146.51,-165.5 146.51,-172.5"/>
</g>
<!-- FaqCategoriesService  -->
<g id="node3" class="node">
<title>FaqCategoriesService </title>
<polygon fill="#fb8072" stroke="black" points="298.34,-252 155.66,-252 155.66,-216 298.34,-216 298.34,-252"/>
<text text-anchor="middle" x="227" y="-229.8" font-family="Times,serif" font-size="14.00">FaqCategoriesService </text>
</g>
<!-- FaqCategoriesModule&#45;&gt;FaqCategoriesService  -->
<g id="edge2" class="edge">
<title>FaqCategoriesModule&#45;&gt;FaqCategoriesService </title>
<path fill="none" stroke="black" stroke-dasharray="5,2" d="M227,-187.11C227,-187.11 227,-205.99 227,-205.99"/>
<polygon fill="black" stroke="black" points="223.5,-205.99 227,-215.99 230.5,-205.99 223.5,-205.99"/>
</g>
<!-- FaqCategoriesService -->
<g id="node4" class="node">
<title>FaqCategoriesService</title>
<ellipse fill="#fdb462" stroke="black" cx="408" cy="-104" rx="95.54" ry="18"/>
<text text-anchor="middle" x="408" y="-99.8" font-family="Times,serif" font-size="14.00">FaqCategoriesService</text>
</g>
<!-- FaqCategoriesService&#45;&gt;FaqCategoriesModule -->
<g id="edge3" class="edge">
<title>FaqCategoriesService&#45;&gt;FaqCategoriesModule</title>
<path fill="none" stroke="black" d="M408,-122.11C408,-141.34 408,-169 408,-169 408,-169 307.24,-169 307.24,-169"/>
<polygon fill="black" stroke="black" points="307.24,-165.5 297.24,-169 307.24,-172.5 307.24,-165.5"/>
</g>
<!-- PrismaService -->
<g id="node5" class="node">
<title>PrismaService</title>
<ellipse fill="#fdb462" stroke="black" cx="227" cy="-104" rx="66.63" ry="18"/>
<text text-anchor="middle" x="227" y="-99.8" font-family="Times,serif" font-size="14.00">PrismaService</text>
</g>
<!-- PrismaService&#45;&gt;FaqCategoriesModule -->
<g id="edge4" class="edge">
<title>PrismaService&#45;&gt;FaqCategoriesModule</title>
<path fill="none" stroke="black" d="M227,-122.11C227,-122.11 227,-140.99 227,-140.99"/>
<polygon fill="black" stroke="black" points="223.5,-140.99 227,-150.99 230.5,-140.99 223.5,-140.99"/>
</g>
</g>
</svg>
