<?xml version="1.0" encoding="UTF-8" standalone="no"?>
<!DOCTYPE svg PUBLIC "-//W3C//DTD SVG 1.1//EN"
 "http://www.w3.org/Graphics/SVG/1.1/DTD/svg11.dtd">
<!-- Generated by graphviz version 2.47.0 (20210316.0004)
 -->
<!-- Title: dependencies Pages: 1 -->
<svg width="504pt" height="284pt"
 viewBox="0.00 0.00 504.00 284.00" xmlns="http://www.w3.org/2000/svg" xmlns:xlink="http://www.w3.org/1999/xlink">
<g id="graph0" class="graph" transform="scale(1 1) rotate(0) translate(4 280)">
<title>dependencies</title>
<polygon fill="white" stroke="transparent" points="-4,4 -4,-280 500,-280 500,4 -4,4"/>
<text text-anchor="start" x="227.01" y="-42.4" font-family="Times-12" font-weight="bold" font-size="14.00">Legend</text>
<polygon fill="#ffffb3" stroke="transparent" points="14,-10 14,-30 34,-30 34,-10 14,-10"/>
<text text-anchor="start" x="37.63" y="-15.4" font-family="Times-12" font-size="14.00"> &#160;Declarations</text>
<polygon fill="#8dd3c7" stroke="transparent" points="127,-10 127,-30 147,-30 147,-10 127,-10"/>
<text text-anchor="start" x="150.73" y="-15.4" font-family="Times-12" font-size="14.00"> &#160;Module</text>
<polygon fill="#80b1d3" stroke="transparent" points="213,-10 213,-30 233,-30 233,-10 213,-10"/>
<text text-anchor="start" x="236.78" y="-15.4" font-family="Times-12" font-size="14.00"> &#160;Bootstrap</text>
<polygon fill="#fdb462" stroke="transparent" points="310,-10 310,-30 330,-30 330,-10 310,-10"/>
<text text-anchor="start" x="333.67" y="-15.4" font-family="Times-12" font-size="14.00"> &#160;Providers</text>
<polygon fill="#fb8072" stroke="transparent" points="406,-10 406,-30 426,-30 426,-10 406,-10"/>
<text text-anchor="start" x="429.73" y="-15.4" font-family="Times-12" font-size="14.00"> &#160;Exports</text>
<g id="clust1" class="cluster">
<title>cluster_BlockedUsersModule</title>
<polygon fill="none" stroke="black" stroke-dasharray="1,5" points="70,-70 70,-268 426,-268 426,-70 70,-70"/>
</g>
<g id="clust4" class="cluster">
<title>cluster_BlockedUsersModule_exports</title>
<polygon fill="none" stroke="black" points="182,-208 182,-260 338,-260 338,-208 182,-208"/>
</g>
<g id="clust3" class="cluster">
<title>cluster_BlockedUsersModule_imports</title>
<polygon fill="none" stroke="black" points="290,-78 290,-130 418,-130 418,-78 290,-78"/>
</g>
<g id="clust6" class="cluster">
<title>cluster_BlockedUsersModule_providers</title>
<polygon fill="none" stroke="black" points="78,-78 78,-130 282,-130 282,-78 78,-78"/>
</g>
<!-- CommonModule -->
<g id="node1" class="node">
<title>CommonModule</title>
<polygon fill="#8dd3c7" stroke="black" points="409.67,-122 406.67,-126 385.67,-126 382.67,-122 298.33,-122 298.33,-86 409.67,-86 409.67,-122"/>
<text text-anchor="middle" x="354" y="-99.8" font-family="Times,serif" font-size="14.00">CommonModule</text>
</g>
<!-- BlockedUsersModule -->
<g id="node2" class="node">
<title>BlockedUsersModule</title>
<polygon fill="#8dd3c7" stroke="black" points="329.08,-187 326.08,-191 305.08,-191 302.08,-187 190.92,-187 190.92,-151 329.08,-151 329.08,-187"/>
<text text-anchor="middle" x="260" y="-164.8" font-family="Times,serif" font-size="14.00">BlockedUsersModule</text>
</g>
<!-- CommonModule&#45;&gt;BlockedUsersModule -->
<g id="edge1" class="edge">
<title>CommonModule&#45;&gt;BlockedUsersModule</title>
<path fill="none" stroke="black" d="M313.6,-122.11C313.6,-122.11 313.6,-140.99 313.6,-140.99"/>
<polygon fill="black" stroke="black" points="310.1,-140.99 313.6,-150.99 317.1,-140.99 310.1,-140.99"/>
</g>
<!-- BlockedUsersService  -->
<g id="node3" class="node">
<title>BlockedUsersService </title>
<polygon fill="#fb8072" stroke="black" points="330.01,-252 189.99,-252 189.99,-216 330.01,-216 330.01,-252"/>
<text text-anchor="middle" x="260" y="-229.8" font-family="Times,serif" font-size="14.00">BlockedUsersService </text>
</g>
<!-- BlockedUsersModule&#45;&gt;BlockedUsersService  -->
<g id="edge2" class="edge">
<title>BlockedUsersModule&#45;&gt;BlockedUsersService </title>
<path fill="none" stroke="black" stroke-dasharray="5,2" d="M260,-187.11C260,-187.11 260,-205.99 260,-205.99"/>
<polygon fill="black" stroke="black" points="256.5,-205.99 260,-215.99 263.5,-205.99 256.5,-205.99"/>
</g>
<!-- BlockedUsersService -->
<g id="node4" class="node">
<title>BlockedUsersService</title>
<ellipse fill="#fdb462" stroke="black" cx="180" cy="-104" rx="94.32" ry="18"/>
<text text-anchor="middle" x="180" y="-99.8" font-family="Times,serif" font-size="14.00">BlockedUsersService</text>
</g>
<!-- BlockedUsersService&#45;&gt;BlockedUsersModule -->
<g id="edge3" class="edge">
<title>BlockedUsersService&#45;&gt;BlockedUsersModule</title>
<path fill="none" stroke="black" d="M232.56,-119.08C232.56,-119.08 232.56,-140.76 232.56,-140.76"/>
<polygon fill="black" stroke="black" points="229.06,-140.76 232.56,-150.76 236.06,-140.76 229.06,-140.76"/>
</g>
</g>
</svg>
