<?xml version="1.0" encoding="UTF-8" standalone="no"?>
<!DOCTYPE svg PUBLIC "-//W3C//DTD SVG 1.1//EN"
 "http://www.w3.org/Graphics/SVG/1.1/DTD/svg11.dtd">
<!-- Generated by graphviz version 2.47.0 (20210316.0004)
 -->
<!-- Title: dependencies Pages: 1 -->
<svg width="504pt" height="284pt"
 viewBox="0.00 0.00 504.00 284.00" xmlns="http://www.w3.org/2000/svg" xmlns:xlink="http://www.w3.org/1999/xlink">
<g id="graph0" class="graph" transform="scale(1 1) rotate(0) translate(4 280)">
<title>dependencies</title>
<polygon fill="white" stroke="transparent" points="-4,4 -4,-280 500,-280 500,4 -4,4"/>
<text text-anchor="start" x="227.01" y="-42.4" font-family="Times-12" font-weight="bold" font-size="14.00">Legend</text>
<polygon fill="#ffffb3" stroke="transparent" points="14,-10 14,-30 34,-30 34,-10 14,-10"/>
<text text-anchor="start" x="37.63" y="-15.4" font-family="Times-12" font-size="14.00"> &#160;Declarations</text>
<polygon fill="#8dd3c7" stroke="transparent" points="127,-10 127,-30 147,-30 147,-10 127,-10"/>
<text text-anchor="start" x="150.73" y="-15.4" font-family="Times-12" font-size="14.00"> &#160;Module</text>
<polygon fill="#80b1d3" stroke="transparent" points="213,-10 213,-30 233,-30 233,-10 213,-10"/>
<text text-anchor="start" x="236.78" y="-15.4" font-family="Times-12" font-size="14.00"> &#160;Bootstrap</text>
<polygon fill="#fdb462" stroke="transparent" points="310,-10 310,-30 330,-30 330,-10 310,-10"/>
<text text-anchor="start" x="333.67" y="-15.4" font-family="Times-12" font-size="14.00"> &#160;Providers</text>
<polygon fill="#fb8072" stroke="transparent" points="406,-10 406,-30 426,-30 426,-10 406,-10"/>
<text text-anchor="start" x="429.73" y="-15.4" font-family="Times-12" font-size="14.00"> &#160;Exports</text>
<g id="clust1" class="cluster">
<title>cluster_NrtsModule</title>
<polygon fill="none" stroke="black" stroke-dasharray="1,5" points="39,-70 39,-268 457,-268 457,-70 39,-70"/>
</g>
<g id="clust4" class="cluster">
<title>cluster_NrtsModule_exports</title>
<polygon fill="none" stroke="black" points="196,-208 196,-260 298,-260 298,-208 196,-208"/>
</g>
<g id="clust6" class="cluster">
<title>cluster_NrtsModule_providers</title>
<polygon fill="none" stroke="black" points="319,-78 319,-130 449,-130 449,-78 319,-78"/>
</g>
<g id="clust3" class="cluster">
<title>cluster_NrtsModule_imports</title>
<polygon fill="none" stroke="black" points="47,-78 47,-130 311,-130 311,-78 47,-78"/>
</g>
<!-- CommonModule -->
<g id="node1" class="node">
<title>CommonModule</title>
<polygon fill="#8dd3c7" stroke="black" points="302.67,-122 299.67,-126 278.67,-126 275.67,-122 191.33,-122 191.33,-86 302.67,-86 302.67,-122"/>
<text text-anchor="middle" x="247" y="-99.8" font-family="Times,serif" font-size="14.00">CommonModule</text>
</g>
<!-- NrtsModule -->
<g id="node3" class="node">
<title>NrtsModule</title>
<polygon fill="#8dd3c7" stroke="black" points="288.65,-187 285.65,-191 264.65,-191 261.65,-187 205.35,-187 205.35,-151 288.65,-151 288.65,-187"/>
<text text-anchor="middle" x="247" y="-164.8" font-family="Times,serif" font-size="14.00">NrtsModule</text>
</g>
<!-- CommonModule&#45;&gt;NrtsModule -->
<g id="edge1" class="edge">
<title>CommonModule&#45;&gt;NrtsModule</title>
<path fill="none" stroke="black" d="M247,-122.11C247,-122.11 247,-140.99 247,-140.99"/>
<polygon fill="black" stroke="black" points="243.5,-140.99 247,-150.99 250.5,-140.99 243.5,-140.99"/>
</g>
<!-- NrtsDetailModule -->
<g id="node2" class="node">
<title>NrtsDetailModule</title>
<polygon fill="#8dd3c7" stroke="black" points="172.86,-122 169.86,-126 148.86,-126 145.86,-122 55.14,-122 55.14,-86 172.86,-86 172.86,-122"/>
<text text-anchor="middle" x="114" y="-99.8" font-family="Times,serif" font-size="14.00">NrtsDetailModule</text>
</g>
<!-- NrtsDetailModule&#45;&gt;NrtsModule -->
<g id="edge2" class="edge">
<title>NrtsDetailModule&#45;&gt;NrtsModule</title>
<path fill="none" stroke="black" d="M114,-122.11C114,-141.34 114,-169 114,-169 114,-169 195.28,-169 195.28,-169"/>
<polygon fill="black" stroke="black" points="195.28,-172.5 205.28,-169 195.28,-165.5 195.28,-172.5"/>
</g>
<!-- NrtsService  -->
<g id="node4" class="node">
<title>NrtsService </title>
<polygon fill="#fb8072" stroke="black" points="289.58,-252 204.42,-252 204.42,-216 289.58,-216 289.58,-252"/>
<text text-anchor="middle" x="247" y="-229.8" font-family="Times,serif" font-size="14.00">NrtsService </text>
</g>
<!-- NrtsModule&#45;&gt;NrtsService  -->
<g id="edge3" class="edge">
<title>NrtsModule&#45;&gt;NrtsService </title>
<path fill="none" stroke="black" stroke-dasharray="5,2" d="M247,-187.11C247,-187.11 247,-205.99 247,-205.99"/>
<polygon fill="black" stroke="black" points="243.5,-205.99 247,-215.99 250.5,-205.99 243.5,-205.99"/>
</g>
<!-- NrtsService -->
<g id="node5" class="node">
<title>NrtsService</title>
<ellipse fill="#fdb462" stroke="black" cx="384" cy="-104" rx="56.73" ry="18"/>
<text text-anchor="middle" x="384" y="-99.8" font-family="Times,serif" font-size="14.00">NrtsService</text>
</g>
<!-- NrtsService&#45;&gt;NrtsModule -->
<g id="edge4" class="edge">
<title>NrtsService&#45;&gt;NrtsModule</title>
<path fill="none" stroke="black" d="M384,-122.11C384,-141.34 384,-169 384,-169 384,-169 298.85,-169 298.85,-169"/>
<polygon fill="black" stroke="black" points="298.85,-165.5 288.85,-169 298.85,-172.5 298.85,-165.5"/>
</g>
</g>
</svg>
