<?xml version="1.0" encoding="UTF-8" standalone="no"?>
<!DOCTYPE svg PUBLIC "-//W3C//DTD SVG 1.1//EN"
 "http://www.w3.org/Graphics/SVG/1.1/DTD/svg11.dtd">
<!-- Generated by graphviz version 2.47.0 (20210316.0004)
 -->
<!-- Title: dependencies Pages: 1 -->
<svg width="1075pt" height="211pt"
 viewBox="0.00 0.00 1075.00 211.00" xmlns="http://www.w3.org/2000/svg" xmlns:xlink="http://www.w3.org/1999/xlink">
<g id="graph0" class="graph" transform="scale(1 1) rotate(0) translate(4 207)">
<title>dependencies</title>
<polygon fill="white" stroke="transparent" points="-4,4 -4,-207 1071,-207 1071,4 -4,4"/>
<text text-anchor="start" x="512.51" y="-42.4" font-family="Times-12" font-weight="bold" font-size="14.00">Legend</text>
<polygon fill="#ffffb3" stroke="transparent" points="299.5,-10 299.5,-30 319.5,-30 319.5,-10 299.5,-10"/>
<text text-anchor="start" x="323.13" y="-15.4" font-family="Times-12" font-size="14.00"> &#160;Declarations</text>
<polygon fill="#8dd3c7" stroke="transparent" points="412.5,-10 412.5,-30 432.5,-30 432.5,-10 412.5,-10"/>
<text text-anchor="start" x="436.23" y="-15.4" font-family="Times-12" font-size="14.00"> &#160;Module</text>
<polygon fill="#80b1d3" stroke="transparent" points="498.5,-10 498.5,-30 518.5,-30 518.5,-10 498.5,-10"/>
<text text-anchor="start" x="522.28" y="-15.4" font-family="Times-12" font-size="14.00"> &#160;Bootstrap</text>
<polygon fill="#fdb462" stroke="transparent" points="595.5,-10 595.5,-30 615.5,-30 615.5,-10 595.5,-10"/>
<text text-anchor="start" x="619.17" y="-15.4" font-family="Times-12" font-size="14.00"> &#160;Providers</text>
<polygon fill="#fb8072" stroke="transparent" points="691.5,-10 691.5,-30 711.5,-30 711.5,-10 691.5,-10"/>
<text text-anchor="start" x="715.23" y="-15.4" font-family="Times-12" font-size="14.00"> &#160;Exports</text>
<g id="clust1" class="cluster">
<title>cluster_ScPlansModule</title>
<polygon fill="none" stroke="black" stroke-dasharray="1,5" points="8,-70 8,-195 1059,-195 1059,-70 8,-70"/>
</g>
<g id="clust6" class="cluster">
<title>cluster_ScPlansModule_providers</title>
<polygon fill="none" stroke="black" points="893,-78 893,-130 1051,-130 1051,-78 893,-78"/>
</g>
<g id="clust3" class="cluster">
<title>cluster_ScPlansModule_imports</title>
<polygon fill="none" stroke="black" points="16,-78 16,-130 885,-130 885,-78 16,-78"/>
</g>
<!-- ArticlesModule -->
<g id="node1" class="node">
<title>ArticlesModule</title>
<polygon fill="#8dd3c7" stroke="black" points="876.86,-122 873.86,-126 852.86,-126 849.86,-122 773.14,-122 773.14,-86 876.86,-86 876.86,-122"/>
<text text-anchor="middle" x="825" y="-99.8" font-family="Times,serif" font-size="14.00">ArticlesModule</text>
</g>
<!-- ScPlansModule -->
<g id="node8" class="node">
<title>ScPlansModule</title>
<polygon fill="#8dd3c7" stroke="black" points="560.88,-187 557.88,-191 536.88,-191 533.88,-187 457.12,-187 457.12,-151 560.88,-151 560.88,-187"/>
<text text-anchor="middle" x="509" y="-164.8" font-family="Times,serif" font-size="14.00">ScPlansModule</text>
</g>
<!-- ArticlesModule&#45;&gt;ScPlansModule -->
<g id="edge1" class="edge">
<title>ArticlesModule&#45;&gt;ScPlansModule</title>
<path fill="none" stroke="black" d="M825,-122.11C825,-141.34 825,-169 825,-169 825,-169 571.18,-169 571.18,-169"/>
<polygon fill="black" stroke="black" points="571.18,-165.5 561.18,-169 571.18,-172.5 571.18,-165.5"/>
</g>
<!-- CommonModule -->
<g id="node2" class="node">
<title>CommonModule</title>
<polygon fill="#8dd3c7" stroke="black" points="754.67,-122 751.67,-126 730.67,-126 727.67,-122 643.33,-122 643.33,-86 754.67,-86 754.67,-122"/>
<text text-anchor="middle" x="699" y="-99.8" font-family="Times,serif" font-size="14.00">CommonModule</text>
</g>
<!-- CommonModule&#45;&gt;ScPlansModule -->
<g id="edge2" class="edge">
<title>CommonModule&#45;&gt;ScPlansModule</title>
<path fill="none" stroke="black" d="M699,-122.03C699,-138.4 699,-160 699,-160 699,-160 570.92,-160 570.92,-160"/>
<polygon fill="black" stroke="black" points="570.92,-156.5 560.92,-160 570.92,-163.5 570.92,-156.5"/>
</g>
<!-- GroupsModule -->
<g id="node3" class="node">
<title>GroupsModule</title>
<polygon fill="#8dd3c7" stroke="black" points="625.26,-122 622.26,-126 601.26,-126 598.26,-122 524.74,-122 524.74,-86 625.26,-86 625.26,-122"/>
<text text-anchor="middle" x="575" y="-99.8" font-family="Times,serif" font-size="14.00">GroupsModule</text>
</g>
<!-- GroupsModule&#45;&gt;ScPlansModule -->
<g id="edge3" class="edge">
<title>GroupsModule&#45;&gt;ScPlansModule</title>
<path fill="none" stroke="black" d="M542.78,-122.11C542.78,-122.11 542.78,-140.99 542.78,-140.99"/>
<polygon fill="black" stroke="black" points="539.28,-140.99 542.78,-150.99 546.28,-140.99 539.28,-140.99"/>
</g>
<!-- NotificationModule -->
<g id="node4" class="node">
<title>NotificationModule</title>
<polygon fill="#8dd3c7" stroke="black" points="506.7,-122 503.7,-126 482.7,-126 479.7,-122 379.3,-122 379.3,-86 506.7,-86 506.7,-122"/>
<text text-anchor="middle" x="443" y="-99.8" font-family="Times,serif" font-size="14.00">NotificationModule</text>
</g>
<!-- NotificationModule&#45;&gt;ScPlansModule -->
<g id="edge4" class="edge">
<title>NotificationModule&#45;&gt;ScPlansModule</title>
<path fill="none" stroke="black" d="M481.83,-122.11C481.83,-122.11 481.83,-140.99 481.83,-140.99"/>
<polygon fill="black" stroke="black" points="478.33,-140.99 481.83,-150.99 485.33,-140.99 478.33,-140.99"/>
</g>
<!-- NrtsModule -->
<g id="node5" class="node">
<title>NrtsModule</title>
<polygon fill="#8dd3c7" stroke="black" points="361.65,-122 358.65,-126 337.65,-126 334.65,-122 278.35,-122 278.35,-86 361.65,-86 361.65,-122"/>
<text text-anchor="middle" x="320" y="-99.8" font-family="Times,serif" font-size="14.00">NrtsModule</text>
</g>
<!-- NrtsModule&#45;&gt;ScPlansModule -->
<g id="edge5" class="edge">
<title>NrtsModule&#45;&gt;ScPlansModule</title>
<path fill="none" stroke="black" d="M320,-122.03C320,-138.4 320,-160 320,-160 320,-160 447.1,-160 447.1,-160"/>
<polygon fill="black" stroke="black" points="447.1,-163.5 457.1,-160 447.1,-156.5 447.1,-163.5"/>
</g>
<!-- OnboardingModule -->
<g id="node6" class="node">
<title>OnboardingModule</title>
<polygon fill="#8dd3c7" stroke="black" points="260.42,-122 257.42,-126 236.42,-126 233.42,-122 133.58,-122 133.58,-86 260.42,-86 260.42,-122"/>
<text text-anchor="middle" x="197" y="-99.8" font-family="Times,serif" font-size="14.00">OnboardingModule</text>
</g>
<!-- OnboardingModule&#45;&gt;ScPlansModule -->
<g id="edge6" class="edge">
<title>OnboardingModule&#45;&gt;ScPlansModule</title>
<path fill="none" stroke="black" d="M197,-122.11C197,-141.34 197,-169 197,-169 197,-169 446.78,-169 446.78,-169"/>
<polygon fill="black" stroke="black" points="446.78,-172.5 456.78,-169 446.78,-165.5 446.78,-172.5"/>
</g>
<!-- UsersModule -->
<g id="node7" class="node">
<title>UsersModule</title>
<polygon fill="#8dd3c7" stroke="black" points="115.92,-122 112.92,-126 91.92,-126 88.92,-122 24.08,-122 24.08,-86 115.92,-86 115.92,-122"/>
<text text-anchor="middle" x="70" y="-99.8" font-family="Times,serif" font-size="14.00">UsersModule</text>
</g>
<!-- UsersModule&#45;&gt;ScPlansModule -->
<g id="edge7" class="edge">
<title>UsersModule&#45;&gt;ScPlansModule</title>
<path fill="none" stroke="black" d="M70,-122.29C70,-144.21 70,-178 70,-178 70,-178 446.92,-178 446.92,-178"/>
<polygon fill="black" stroke="black" points="446.92,-181.5 456.92,-178 446.92,-174.5 446.92,-181.5"/>
</g>
<!-- ScPlansService -->
<g id="node9" class="node">
<title>ScPlansService</title>
<ellipse fill="#fdb462" stroke="black" cx="972" cy="-104" rx="70.64" ry="18"/>
<text text-anchor="middle" x="972" y="-99.8" font-family="Times,serif" font-size="14.00">ScPlansService</text>
</g>
<!-- ScPlansService&#45;&gt;ScPlansModule -->
<g id="edge8" class="edge">
<title>ScPlansService&#45;&gt;ScPlansModule</title>
<path fill="none" stroke="black" d="M972,-122.29C972,-144.21 972,-178 972,-178 972,-178 571.21,-178 571.21,-178"/>
<polygon fill="black" stroke="black" points="571.21,-174.5 561.21,-178 571.21,-181.5 571.21,-174.5"/>
</g>
</g>
</svg>
