<?xml version="1.0" encoding="UTF-8" standalone="no"?>
<!DOCTYPE svg PUBLIC "-//W3C//DTD SVG 1.1//EN"
 "http://www.w3.org/Graphics/SVG/1.1/DTD/svg11.dtd">
<!-- Generated by graphviz version 2.47.0 (20210316.0004)
 -->
<!-- Title: dependencies Pages: 1 -->
<svg width="710pt" height="284pt"
 viewBox="0.00 0.00 710.00 284.00" xmlns="http://www.w3.org/2000/svg" xmlns:xlink="http://www.w3.org/1999/xlink">
<g id="graph0" class="graph" transform="scale(1 1) rotate(0) translate(4 280)">
<title>dependencies</title>
<polygon fill="white" stroke="transparent" points="-4,4 -4,-280 706,-280 706,4 -4,4"/>
<text text-anchor="start" x="330.01" y="-42.4" font-family="Times-12" font-weight="bold" font-size="14.00">Legend</text>
<polygon fill="#ffffb3" stroke="transparent" points="117,-10 117,-30 137,-30 137,-10 117,-10"/>
<text text-anchor="start" x="140.63" y="-15.4" font-family="Times-12" font-size="14.00"> &#160;Declarations</text>
<polygon fill="#8dd3c7" stroke="transparent" points="230,-10 230,-30 250,-30 250,-10 230,-10"/>
<text text-anchor="start" x="253.73" y="-15.4" font-family="Times-12" font-size="14.00"> &#160;Module</text>
<polygon fill="#80b1d3" stroke="transparent" points="316,-10 316,-30 336,-30 336,-10 316,-10"/>
<text text-anchor="start" x="339.78" y="-15.4" font-family="Times-12" font-size="14.00"> &#160;Bootstrap</text>
<polygon fill="#fdb462" stroke="transparent" points="413,-10 413,-30 433,-30 433,-10 413,-10"/>
<text text-anchor="start" x="436.67" y="-15.4" font-family="Times-12" font-size="14.00"> &#160;Providers</text>
<polygon fill="#fb8072" stroke="transparent" points="509,-10 509,-30 529,-30 529,-10 509,-10"/>
<text text-anchor="start" x="532.73" y="-15.4" font-family="Times-12" font-size="14.00"> &#160;Exports</text>
<g id="clust1" class="cluster">
<title>cluster_CommunityMessagesModule</title>
<polygon fill="none" stroke="black" stroke-dasharray="1,5" points="8,-70 8,-268 694,-268 694,-70 8,-70"/>
</g>
<g id="clust3" class="cluster">
<title>cluster_CommunityMessagesModule_imports</title>
<polygon fill="none" stroke="black" points="558,-78 558,-130 686,-130 686,-78 558,-78"/>
</g>
<g id="clust6" class="cluster">
<title>cluster_CommunityMessagesModule_providers</title>
<polygon fill="none" stroke="black" points="16,-78 16,-130 550,-130 550,-78 16,-78"/>
</g>
<g id="clust4" class="cluster">
<title>cluster_CommunityMessagesModule_exports</title>
<polygon fill="none" stroke="black" points="199,-208 199,-260 602,-260 602,-208 199,-208"/>
</g>
<!-- CommonModule -->
<g id="node1" class="node">
<title>CommonModule</title>
<polygon fill="#8dd3c7" stroke="black" points="677.67,-122 674.67,-126 653.67,-126 650.67,-122 566.33,-122 566.33,-86 677.67,-86 677.67,-122"/>
<text text-anchor="middle" x="622" y="-99.8" font-family="Times,serif" font-size="14.00">CommonModule</text>
</g>
<!-- CommunityMessagesModule -->
<g id="node2" class="node">
<title>CommunityMessagesModule</title>
<polygon fill="#8dd3c7" stroke="black" points="506.37,-187 503.37,-191 482.37,-191 479.37,-187 325.63,-187 325.63,-151 506.37,-151 506.37,-187"/>
<text text-anchor="middle" x="416" y="-164.8" font-family="Times,serif" font-size="14.00">CommunityMessagesModule</text>
</g>
<!-- CommonModule&#45;&gt;CommunityMessagesModule -->
<g id="edge1" class="edge">
<title>CommonModule&#45;&gt;CommunityMessagesModule</title>
<path fill="none" stroke="black" d="M580.26,-122.11C580.26,-141.34 580.26,-169 580.26,-169 580.26,-169 516.78,-169 516.78,-169"/>
<polygon fill="black" stroke="black" points="516.78,-165.5 506.78,-169 516.78,-172.5 516.78,-165.5"/>
</g>
<!-- CommunityMessagesListener  -->
<g id="node3" class="node">
<title>CommunityMessagesListener </title>
<polygon fill="#fb8072" stroke="black" points="594.19,-252 407.81,-252 407.81,-216 594.19,-216 594.19,-252"/>
<text text-anchor="middle" x="501" y="-229.8" font-family="Times,serif" font-size="14.00">CommunityMessagesListener </text>
</g>
<!-- CommunityMessagesModule&#45;&gt;CommunityMessagesListener  -->
<g id="edge2" class="edge">
<title>CommunityMessagesModule&#45;&gt;CommunityMessagesListener </title>
<path fill="none" stroke="black" stroke-dasharray="5,2" d="M457.05,-187.11C457.05,-187.11 457.05,-205.99 457.05,-205.99"/>
<polygon fill="black" stroke="black" points="453.55,-205.99 457.05,-215.99 460.55,-205.99 453.55,-205.99"/>
</g>
<!-- CommunityMessagesService  -->
<g id="node4" class="node">
<title>CommunityMessagesService </title>
<polygon fill="#fb8072" stroke="black" points="389.3,-252 206.7,-252 206.7,-216 389.3,-216 389.3,-252"/>
<text text-anchor="middle" x="298" y="-229.8" font-family="Times,serif" font-size="14.00">CommunityMessagesService </text>
</g>
<!-- CommunityMessagesModule&#45;&gt;CommunityMessagesService  -->
<g id="edge3" class="edge">
<title>CommunityMessagesModule&#45;&gt;CommunityMessagesService </title>
<path fill="none" stroke="black" stroke-dasharray="5,2" d="M357.48,-187.11C357.48,-187.11 357.48,-205.99 357.48,-205.99"/>
<polygon fill="black" stroke="black" points="353.98,-205.99 357.48,-215.99 360.98,-205.99 353.98,-205.99"/>
</g>
<!-- CommunityMessagesListener -->
<g id="node5" class="node">
<title>CommunityMessagesListener</title>
<ellipse fill="#fdb462" stroke="black" cx="416" cy="-104" rx="126.22" ry="18"/>
<text text-anchor="middle" x="416" y="-99.8" font-family="Times,serif" font-size="14.00">CommunityMessagesListener</text>
</g>
<!-- CommunityMessagesListener&#45;&gt;CommunityMessagesModule -->
<g id="edge4" class="edge">
<title>CommunityMessagesListener&#45;&gt;CommunityMessagesModule</title>
<path fill="none" stroke="black" d="M416,-122.11C416,-122.11 416,-140.99 416,-140.99"/>
<polygon fill="black" stroke="black" points="412.5,-140.99 416,-150.99 419.5,-140.99 412.5,-140.99"/>
</g>
<!-- CommunityMessagesService -->
<g id="node6" class="node">
<title>CommunityMessagesService</title>
<ellipse fill="#fdb462" stroke="black" cx="148" cy="-104" rx="123.85" ry="18"/>
<text text-anchor="middle" x="148" y="-99.8" font-family="Times,serif" font-size="14.00">CommunityMessagesService</text>
</g>
<!-- CommunityMessagesService&#45;&gt;CommunityMessagesModule -->
<g id="edge5" class="edge">
<title>CommunityMessagesService&#45;&gt;CommunityMessagesModule</title>
<path fill="none" stroke="black" d="M239.14,-116.23C239.14,-135.05 239.14,-169 239.14,-169 239.14,-169 315.5,-169 315.5,-169"/>
<polygon fill="black" stroke="black" points="315.5,-172.5 325.5,-169 315.5,-165.5 315.5,-172.5"/>
</g>
</g>
</svg>
