<?xml version="1.0" encoding="UTF-8" standalone="no"?>
<!DOCTYPE svg PUBLIC "-//W3C//DTD SVG 1.1//EN"
 "http://www.w3.org/Graphics/SVG/1.1/DTD/svg11.dtd">
<!-- Generated by graphviz version 2.47.0 (20210316.0004)
 -->
<!-- Title: dependencies Pages: 1 -->
<svg width="504pt" height="284pt"
 viewBox="0.00 0.00 504.00 284.00" xmlns="http://www.w3.org/2000/svg" xmlns:xlink="http://www.w3.org/1999/xlink">
<g id="graph0" class="graph" transform="scale(1 1) rotate(0) translate(4 280)">
<title>dependencies</title>
<polygon fill="white" stroke="transparent" points="-4,4 -4,-280 500,-280 500,4 -4,4"/>
<text text-anchor="start" x="227.01" y="-42.4" font-family="Times-12" font-weight="bold" font-size="14.00">Legend</text>
<polygon fill="#ffffb3" stroke="transparent" points="14,-10 14,-30 34,-30 34,-10 14,-10"/>
<text text-anchor="start" x="37.63" y="-15.4" font-family="Times-12" font-size="14.00"> &#160;Declarations</text>
<polygon fill="#8dd3c7" stroke="transparent" points="127,-10 127,-30 147,-30 147,-10 127,-10"/>
<text text-anchor="start" x="150.73" y="-15.4" font-family="Times-12" font-size="14.00"> &#160;Module</text>
<polygon fill="#80b1d3" stroke="transparent" points="213,-10 213,-30 233,-30 233,-10 213,-10"/>
<text text-anchor="start" x="236.78" y="-15.4" font-family="Times-12" font-size="14.00"> &#160;Bootstrap</text>
<polygon fill="#fdb462" stroke="transparent" points="310,-10 310,-30 330,-30 330,-10 310,-10"/>
<text text-anchor="start" x="333.67" y="-15.4" font-family="Times-12" font-size="14.00"> &#160;Providers</text>
<polygon fill="#fb8072" stroke="transparent" points="406,-10 406,-30 426,-30 426,-10 406,-10"/>
<text text-anchor="start" x="429.73" y="-15.4" font-family="Times-12" font-size="14.00"> &#160;Exports</text>
<g id="clust1" class="cluster">
<title>cluster_PatchesModule</title>
<polygon fill="none" stroke="black" stroke-dasharray="1,5" points="95,-70 95,-268 401,-268 401,-70 95,-70"/>
</g>
<g id="clust4" class="cluster">
<title>cluster_PatchesModule_exports</title>
<polygon fill="none" stroke="black" points="194,-208 194,-260 314,-260 314,-208 194,-208"/>
</g>
<g id="clust3" class="cluster">
<title>cluster_PatchesModule_imports</title>
<polygon fill="none" stroke="black" points="265,-78 265,-130 393,-130 393,-78 265,-78"/>
</g>
<g id="clust6" class="cluster">
<title>cluster_PatchesModule_providers</title>
<polygon fill="none" stroke="black" points="103,-78 103,-130 257,-130 257,-78 103,-78"/>
</g>
<!-- CommonModule -->
<g id="node1" class="node">
<title>CommonModule</title>
<polygon fill="#8dd3c7" stroke="black" points="384.67,-122 381.67,-126 360.67,-126 357.67,-122 273.33,-122 273.33,-86 384.67,-86 384.67,-122"/>
<text text-anchor="middle" x="329" y="-99.8" font-family="Times,serif" font-size="14.00">CommonModule</text>
</g>
<!-- PatchesModule -->
<g id="node2" class="node">
<title>PatchesModule</title>
<polygon fill="#8dd3c7" stroke="black" points="305.31,-187 302.31,-191 281.31,-191 278.31,-187 202.69,-187 202.69,-151 305.31,-151 305.31,-187"/>
<text text-anchor="middle" x="254" y="-164.8" font-family="Times,serif" font-size="14.00">PatchesModule</text>
</g>
<!-- CommonModule&#45;&gt;PatchesModule -->
<g id="edge1" class="edge">
<title>CommonModule&#45;&gt;PatchesModule</title>
<path fill="none" stroke="black" d="M289.16,-122.11C289.16,-122.11 289.16,-140.99 289.16,-140.99"/>
<polygon fill="black" stroke="black" points="285.66,-140.99 289.16,-150.99 292.66,-140.99 285.66,-140.99"/>
</g>
<!-- PatchesService  -->
<g id="node3" class="node">
<title>PatchesService </title>
<polygon fill="#fb8072" stroke="black" points="306.24,-252 201.76,-252 201.76,-216 306.24,-216 306.24,-252"/>
<text text-anchor="middle" x="254" y="-229.8" font-family="Times,serif" font-size="14.00">PatchesService </text>
</g>
<!-- PatchesModule&#45;&gt;PatchesService  -->
<g id="edge2" class="edge">
<title>PatchesModule&#45;&gt;PatchesService </title>
<path fill="none" stroke="black" stroke-dasharray="5,2" d="M254,-187.11C254,-187.11 254,-205.99 254,-205.99"/>
<polygon fill="black" stroke="black" points="250.5,-205.99 254,-215.99 257.5,-205.99 250.5,-205.99"/>
</g>
<!-- PatchesService -->
<g id="node4" class="node">
<title>PatchesService</title>
<ellipse fill="#fdb462" stroke="black" cx="180" cy="-104" rx="69.48" ry="18"/>
<text text-anchor="middle" x="180" y="-99.8" font-family="Times,serif" font-size="14.00">PatchesService</text>
</g>
<!-- PatchesService&#45;&gt;PatchesModule -->
<g id="edge3" class="edge">
<title>PatchesService&#45;&gt;PatchesModule</title>
<path fill="none" stroke="black" d="M226.17,-117.47C226.17,-117.47 226.17,-140.86 226.17,-140.86"/>
<polygon fill="black" stroke="black" points="222.67,-140.86 226.17,-150.86 229.67,-140.86 222.67,-140.86"/>
</g>
</g>
</svg>
